G04*
G04 #@! TF.GenerationSoftware,Altium Limited,Altium Designer,25.8.1 (18)*
G04*
G04 Layer_Color=65535*
%FSLAX44Y44*%
%MOMM*%
G71*
G04*
G04 #@! TF.SameCoordinates,BCE08161-644A-4D5C-BD65-52524292B4E2*
G04*
G04*
G04 #@! TF.FilePolarity,Positive*
G04*
G01*
G75*
%ADD10C,0.2000*%
%ADD11C,0.2500*%
%ADD12C,0.1500*%
%ADD13C,0.2540*%
%ADD14C,0.0762*%
G36*
X198873Y-93904D02*
Y-94056D01*
Y-94208D01*
Y-94361D01*
Y-94513D01*
Y-94666D01*
Y-94818D01*
Y-94970D01*
Y-95123D01*
Y-95275D01*
Y-95428D01*
Y-95580D01*
Y-95732D01*
Y-95885D01*
Y-96037D01*
Y-96190D01*
Y-96342D01*
Y-96494D01*
Y-96647D01*
Y-96799D01*
Y-96952D01*
Y-97104D01*
Y-97256D01*
Y-97409D01*
Y-97561D01*
Y-97714D01*
Y-97866D01*
Y-98018D01*
Y-98171D01*
Y-98323D01*
Y-98476D01*
Y-98628D01*
Y-98780D01*
Y-98933D01*
Y-99085D01*
Y-99238D01*
Y-99390D01*
Y-99542D01*
Y-99695D01*
Y-99847D01*
Y-100000D01*
Y-100152D01*
Y-100304D01*
Y-100457D01*
Y-100609D01*
Y-100762D01*
Y-100914D01*
Y-101066D01*
Y-101219D01*
Y-101371D01*
Y-101524D01*
Y-101676D01*
Y-101828D01*
Y-101981D01*
Y-102133D01*
Y-102286D01*
Y-102438D01*
Y-102590D01*
Y-102743D01*
Y-102895D01*
Y-103048D01*
Y-103200D01*
Y-103352D01*
Y-103505D01*
Y-103657D01*
Y-103810D01*
Y-103962D01*
Y-104114D01*
Y-104267D01*
Y-104419D01*
Y-104572D01*
Y-104724D01*
Y-104876D01*
Y-105029D01*
Y-105181D01*
Y-105334D01*
Y-105486D01*
Y-105638D01*
Y-105791D01*
Y-105943D01*
Y-106096D01*
Y-106248D01*
Y-106400D01*
Y-106553D01*
Y-106705D01*
Y-106858D01*
Y-107010D01*
Y-107162D01*
Y-107315D01*
Y-107467D01*
Y-107620D01*
Y-107772D01*
Y-107924D01*
Y-108077D01*
Y-108229D01*
Y-108382D01*
Y-108534D01*
Y-108686D01*
Y-108839D01*
Y-108991D01*
Y-109144D01*
Y-109296D01*
Y-109448D01*
Y-109601D01*
Y-109753D01*
Y-109906D01*
Y-110058D01*
Y-110210D01*
Y-110363D01*
X191863D01*
Y-110210D01*
X191710D01*
Y-110058D01*
Y-109906D01*
Y-109753D01*
Y-109601D01*
Y-109448D01*
Y-109296D01*
Y-109144D01*
Y-108991D01*
Y-108839D01*
Y-108686D01*
Y-108534D01*
Y-108382D01*
Y-108229D01*
Y-108077D01*
Y-107924D01*
Y-107772D01*
Y-107620D01*
Y-107467D01*
Y-107315D01*
Y-107162D01*
Y-107010D01*
Y-106858D01*
Y-106705D01*
Y-106553D01*
Y-106400D01*
Y-106248D01*
Y-106096D01*
Y-105943D01*
Y-105791D01*
Y-105638D01*
Y-105486D01*
Y-105334D01*
Y-105181D01*
Y-105029D01*
Y-104876D01*
Y-104724D01*
Y-104572D01*
Y-104419D01*
Y-104267D01*
Y-104114D01*
Y-103962D01*
Y-103810D01*
Y-103657D01*
Y-103505D01*
Y-103352D01*
Y-103200D01*
Y-103048D01*
Y-102895D01*
Y-102743D01*
Y-102590D01*
Y-102438D01*
Y-102286D01*
Y-102133D01*
Y-101981D01*
Y-101828D01*
Y-101676D01*
Y-101524D01*
X191558D01*
Y-101371D01*
Y-101219D01*
X191405D01*
Y-101066D01*
X191253D01*
Y-100914D01*
X191101D01*
Y-100762D01*
X190796D01*
Y-100609D01*
X190186D01*
Y-100457D01*
X190034D01*
Y-100609D01*
X189424D01*
Y-100762D01*
X189119D01*
Y-100914D01*
X188967D01*
Y-101066D01*
X188815D01*
Y-101219D01*
X188662D01*
Y-101371D01*
Y-101524D01*
X188510D01*
Y-101676D01*
Y-101828D01*
Y-101981D01*
Y-102133D01*
Y-102286D01*
Y-102438D01*
Y-102590D01*
Y-102743D01*
Y-102895D01*
Y-103048D01*
Y-103200D01*
Y-103352D01*
Y-103505D01*
Y-103657D01*
Y-103810D01*
Y-103962D01*
Y-104114D01*
Y-104267D01*
Y-104419D01*
Y-104572D01*
Y-104724D01*
Y-104876D01*
Y-105029D01*
Y-105181D01*
Y-105334D01*
X188357D01*
Y-105486D01*
Y-105638D01*
Y-105791D01*
Y-105943D01*
Y-106096D01*
Y-106248D01*
Y-106400D01*
Y-106553D01*
Y-106705D01*
Y-106858D01*
Y-107010D01*
Y-107162D01*
Y-107315D01*
Y-107467D01*
Y-107620D01*
Y-107772D01*
Y-107924D01*
Y-108077D01*
Y-108229D01*
Y-108382D01*
Y-108534D01*
Y-108686D01*
Y-108839D01*
Y-108991D01*
Y-109144D01*
Y-109296D01*
Y-109448D01*
Y-109601D01*
Y-109753D01*
Y-109906D01*
Y-110058D01*
Y-110210D01*
Y-110363D01*
Y-110515D01*
Y-110668D01*
Y-110820D01*
Y-110972D01*
Y-111125D01*
Y-111277D01*
Y-111430D01*
Y-111582D01*
Y-111734D01*
Y-111887D01*
Y-112039D01*
Y-112192D01*
Y-112344D01*
Y-112496D01*
Y-112649D01*
Y-112801D01*
Y-112954D01*
Y-113106D01*
Y-113258D01*
Y-113411D01*
Y-113563D01*
Y-113716D01*
Y-113868D01*
Y-114020D01*
Y-114173D01*
Y-114325D01*
Y-114478D01*
Y-114630D01*
Y-114782D01*
X188510D01*
Y-114935D01*
Y-115087D01*
Y-115240D01*
Y-115392D01*
Y-115544D01*
Y-115697D01*
Y-115849D01*
Y-116002D01*
Y-116154D01*
Y-116306D01*
Y-116459D01*
Y-116611D01*
Y-116764D01*
Y-116916D01*
Y-117068D01*
Y-117221D01*
Y-117373D01*
Y-117526D01*
Y-117678D01*
Y-117830D01*
Y-117983D01*
Y-118135D01*
Y-118288D01*
Y-118440D01*
Y-118592D01*
Y-118745D01*
Y-118897D01*
X177842D01*
Y-118745D01*
Y-118592D01*
X177689D01*
Y-118440D01*
Y-118288D01*
X177537D01*
Y-118135D01*
Y-117983D01*
X177384D01*
Y-117830D01*
X177232D01*
Y-117678D01*
Y-117526D01*
X177080D01*
Y-117373D01*
Y-117221D01*
X176927D01*
Y-117068D01*
X176775D01*
Y-116916D01*
Y-116764D01*
X176623D01*
Y-116611D01*
Y-116459D01*
X176470D01*
Y-116306D01*
Y-116154D01*
X176318D01*
Y-116002D01*
X176165D01*
Y-115849D01*
Y-115697D01*
X176013D01*
Y-115544D01*
Y-115392D01*
X175861D01*
Y-115240D01*
Y-115087D01*
X175708D01*
Y-114935D01*
X175556D01*
Y-114782D01*
Y-114630D01*
X175403D01*
Y-114478D01*
Y-114325D01*
X175251D01*
Y-114173D01*
Y-114020D01*
X175098D01*
Y-113868D01*
X174946D01*
Y-113716D01*
Y-113563D01*
X174794D01*
Y-113411D01*
Y-113258D01*
X174641D01*
Y-113106D01*
Y-112954D01*
X174489D01*
Y-112801D01*
Y-112649D01*
Y-112496D01*
Y-112344D01*
Y-112192D01*
Y-112039D01*
Y-111887D01*
Y-111734D01*
Y-111582D01*
Y-111430D01*
X174641D01*
Y-111277D01*
Y-111125D01*
Y-110972D01*
X174794D01*
Y-110820D01*
Y-110668D01*
X174946D01*
Y-110515D01*
X175098D01*
Y-110363D01*
Y-110210D01*
X175251D01*
Y-110058D01*
Y-109906D01*
X175403D01*
Y-109753D01*
Y-109601D01*
X175556D01*
Y-109448D01*
X175708D01*
Y-109296D01*
Y-109144D01*
X175861D01*
Y-108991D01*
Y-108839D01*
X176013D01*
Y-108686D01*
X176165D01*
Y-108534D01*
Y-108382D01*
X176318D01*
Y-108229D01*
Y-108077D01*
X176470D01*
Y-107924D01*
Y-107772D01*
X176623D01*
Y-107620D01*
X176775D01*
Y-107467D01*
Y-107315D01*
X176927D01*
Y-107162D01*
Y-107010D01*
X177080D01*
Y-106858D01*
Y-106705D01*
X177232D01*
Y-106553D01*
X177384D01*
Y-106400D01*
Y-106248D01*
X177537D01*
Y-106096D01*
X177689D01*
Y-105943D01*
Y-105791D01*
X177842D01*
Y-105638D01*
Y-105486D01*
X177994D01*
Y-105334D01*
Y-105181D01*
X178146D01*
Y-105029D01*
X178299D01*
Y-104876D01*
Y-104724D01*
X178451D01*
Y-104572D01*
Y-104419D01*
X178604D01*
Y-104267D01*
Y-104114D01*
X178756D01*
Y-103962D01*
X178909D01*
Y-103810D01*
Y-103657D01*
X179061D01*
Y-103505D01*
Y-103352D01*
X179213D01*
Y-103200D01*
Y-103048D01*
X179366D01*
Y-102895D01*
X179518D01*
Y-102743D01*
Y-102590D01*
X179671D01*
Y-102438D01*
Y-102286D01*
X179823D01*
Y-102133D01*
X179975D01*
Y-101981D01*
Y-101828D01*
X180128D01*
Y-101676D01*
Y-101524D01*
X180280D01*
Y-101371D01*
Y-101219D01*
X180432D01*
Y-101066D01*
X180585D01*
Y-100914D01*
Y-100762D01*
X180737D01*
Y-100609D01*
Y-100457D01*
X180890D01*
Y-100304D01*
Y-100152D01*
X181042D01*
Y-100000D01*
X181194D01*
Y-99847D01*
Y-99695D01*
X181347D01*
Y-99542D01*
Y-99390D01*
X181499D01*
Y-99238D01*
Y-99085D01*
X181652D01*
Y-98933D01*
X181804D01*
Y-98780D01*
Y-98628D01*
X181957D01*
Y-98476D01*
Y-98323D01*
X182109D01*
Y-98171D01*
X182261D01*
Y-98018D01*
Y-97866D01*
X182414D01*
Y-97714D01*
Y-97561D01*
X182566D01*
Y-97409D01*
Y-97256D01*
X182719D01*
Y-97104D01*
X182871D01*
Y-96952D01*
Y-96799D01*
X183023D01*
Y-96647D01*
Y-96494D01*
X183176D01*
Y-96342D01*
Y-96190D01*
X183328D01*
Y-96037D01*
X183480D01*
Y-95885D01*
Y-95732D01*
X183633D01*
Y-95580D01*
Y-95428D01*
X183785D01*
Y-95275D01*
Y-95123D01*
X183938D01*
Y-94970D01*
X184090D01*
Y-94818D01*
Y-94666D01*
X184242D01*
Y-94513D01*
X184395D01*
Y-94361D01*
X184547D01*
Y-94208D01*
X184852D01*
Y-94056D01*
X185157D01*
Y-93904D01*
X185462D01*
Y-93751D01*
X198873D01*
Y-93904D01*
D02*
G37*
G36*
X205121D02*
X205578D01*
Y-94056D01*
X205883D01*
Y-94208D01*
X206036D01*
Y-94361D01*
X206188D01*
Y-94513D01*
X206341D01*
Y-94666D01*
X206493D01*
Y-94818D01*
X206645D01*
Y-94970D01*
X206798D01*
Y-95123D01*
Y-95275D01*
X206950D01*
Y-95428D01*
Y-95580D01*
X207103D01*
Y-95732D01*
Y-95885D01*
X207255D01*
Y-96037D01*
X207407D01*
Y-96190D01*
Y-96342D01*
X207560D01*
Y-96494D01*
Y-96647D01*
X207712D01*
Y-96799D01*
X207864D01*
Y-96952D01*
Y-97104D01*
X208017D01*
Y-97256D01*
Y-97409D01*
X208169D01*
Y-97561D01*
Y-97714D01*
X208322D01*
Y-97866D01*
X208474D01*
Y-98018D01*
Y-98171D01*
X208626D01*
Y-98323D01*
Y-98476D01*
X208779D01*
Y-98628D01*
Y-98780D01*
X208931D01*
Y-98933D01*
X209084D01*
Y-99085D01*
Y-99238D01*
X209236D01*
Y-99390D01*
Y-99542D01*
X209389D01*
Y-99695D01*
Y-99847D01*
X209541D01*
Y-100000D01*
X209693D01*
Y-100152D01*
Y-100304D01*
X209846D01*
Y-100457D01*
Y-100609D01*
X209998D01*
Y-100762D01*
X210151D01*
Y-100914D01*
Y-101066D01*
X210303D01*
Y-101219D01*
Y-101371D01*
X210455D01*
Y-101524D01*
Y-101676D01*
X210608D01*
Y-101828D01*
X210760D01*
Y-101981D01*
Y-102133D01*
X210912D01*
Y-102286D01*
Y-102438D01*
X211065D01*
Y-102590D01*
Y-102743D01*
X211217D01*
Y-102895D01*
X211370D01*
Y-103048D01*
Y-103200D01*
X211522D01*
Y-103352D01*
Y-103505D01*
X211674D01*
Y-103657D01*
Y-103810D01*
X211827D01*
Y-103962D01*
X211979D01*
Y-104114D01*
Y-104267D01*
X212132D01*
Y-104419D01*
Y-104572D01*
X212284D01*
Y-104724D01*
X212437D01*
Y-104876D01*
Y-105029D01*
X212589D01*
Y-105181D01*
Y-105334D01*
X212741D01*
Y-105486D01*
Y-105638D01*
X212894D01*
Y-105791D01*
X213046D01*
Y-105943D01*
Y-106096D01*
X213199D01*
Y-106248D01*
Y-106400D01*
X213351D01*
Y-106553D01*
Y-106705D01*
X213503D01*
Y-106858D01*
X213656D01*
Y-107010D01*
Y-107162D01*
X213808D01*
Y-107315D01*
Y-107467D01*
X213960D01*
Y-107620D01*
Y-107772D01*
X214113D01*
Y-107924D01*
X214265D01*
Y-108077D01*
Y-108229D01*
X214418D01*
Y-108382D01*
Y-108534D01*
X214570D01*
Y-108686D01*
X214722D01*
Y-108839D01*
Y-108991D01*
X214875D01*
Y-109144D01*
Y-109296D01*
X215027D01*
Y-109448D01*
Y-109601D01*
X215180D01*
Y-109753D01*
X215332D01*
Y-109906D01*
Y-110058D01*
X215485D01*
Y-110210D01*
Y-110363D01*
X215637D01*
Y-110515D01*
Y-110668D01*
X215789D01*
Y-110820D01*
X215942D01*
Y-110972D01*
Y-111125D01*
X216094D01*
Y-111277D01*
Y-111430D01*
Y-111582D01*
Y-111734D01*
X216246D01*
Y-111887D01*
Y-112039D01*
Y-112192D01*
Y-112344D01*
Y-112496D01*
X216094D01*
Y-112649D01*
Y-112801D01*
Y-112954D01*
Y-113106D01*
X215942D01*
Y-113258D01*
Y-113411D01*
X215789D01*
Y-113563D01*
Y-113716D01*
X215637D01*
Y-113868D01*
Y-114020D01*
X215485D01*
Y-114173D01*
X215332D01*
Y-114325D01*
Y-114478D01*
X215180D01*
Y-114630D01*
Y-114782D01*
X215027D01*
Y-114935D01*
X214875D01*
Y-115087D01*
Y-115240D01*
X214722D01*
Y-115392D01*
Y-115544D01*
X214570D01*
Y-115697D01*
Y-115849D01*
X214418D01*
Y-116002D01*
X214265D01*
Y-116154D01*
Y-116306D01*
X214113D01*
Y-116459D01*
Y-116611D01*
X213960D01*
Y-116764D01*
Y-116916D01*
X213808D01*
Y-117068D01*
X213656D01*
Y-117221D01*
Y-117373D01*
X213503D01*
Y-117526D01*
Y-117678D01*
X213351D01*
Y-117830D01*
X213199D01*
Y-117983D01*
Y-118135D01*
X213046D01*
Y-118288D01*
Y-118440D01*
X212894D01*
Y-118592D01*
Y-118745D01*
X212741D01*
Y-118897D01*
X202226D01*
Y-118745D01*
Y-118592D01*
Y-118440D01*
Y-118288D01*
Y-118135D01*
Y-117983D01*
Y-117830D01*
Y-117678D01*
Y-117526D01*
Y-117373D01*
Y-117221D01*
Y-117068D01*
Y-116916D01*
Y-116764D01*
Y-116611D01*
Y-116459D01*
Y-116306D01*
Y-116154D01*
Y-116002D01*
Y-115849D01*
Y-115697D01*
Y-115544D01*
Y-115392D01*
Y-115240D01*
Y-115087D01*
Y-114935D01*
Y-114782D01*
Y-114630D01*
Y-114478D01*
Y-114325D01*
Y-114173D01*
Y-114020D01*
Y-113868D01*
Y-113716D01*
Y-113563D01*
Y-113411D01*
Y-113258D01*
Y-113106D01*
Y-112954D01*
Y-112801D01*
Y-112649D01*
Y-112496D01*
Y-112344D01*
Y-112192D01*
Y-112039D01*
Y-111887D01*
Y-111734D01*
Y-111582D01*
Y-111430D01*
Y-111277D01*
Y-111125D01*
Y-110972D01*
Y-110820D01*
Y-110668D01*
Y-110515D01*
Y-110363D01*
Y-110210D01*
Y-110058D01*
Y-109906D01*
Y-109753D01*
Y-109601D01*
Y-109448D01*
Y-109296D01*
Y-109144D01*
Y-108991D01*
Y-108839D01*
Y-108686D01*
Y-108534D01*
Y-108382D01*
Y-108229D01*
Y-108077D01*
Y-107924D01*
Y-107772D01*
Y-107620D01*
Y-107467D01*
Y-107315D01*
Y-107162D01*
Y-107010D01*
Y-106858D01*
Y-106705D01*
Y-106553D01*
Y-106400D01*
Y-106248D01*
Y-106096D01*
Y-105943D01*
Y-105791D01*
Y-105638D01*
Y-105486D01*
Y-105334D01*
Y-105181D01*
Y-105029D01*
Y-104876D01*
Y-104724D01*
Y-104572D01*
Y-104419D01*
Y-104267D01*
Y-104114D01*
Y-103962D01*
Y-103810D01*
Y-103657D01*
Y-103505D01*
Y-103352D01*
Y-103200D01*
Y-103048D01*
Y-102895D01*
Y-102743D01*
Y-102590D01*
Y-102438D01*
Y-102286D01*
Y-102133D01*
Y-101981D01*
Y-101828D01*
Y-101676D01*
Y-101524D01*
Y-101371D01*
Y-101219D01*
Y-101066D01*
Y-100914D01*
Y-100762D01*
Y-100609D01*
Y-100457D01*
Y-100304D01*
Y-100152D01*
Y-100000D01*
Y-99847D01*
Y-99695D01*
Y-99542D01*
Y-99390D01*
Y-99238D01*
Y-99085D01*
Y-98933D01*
Y-98780D01*
Y-98628D01*
Y-98476D01*
Y-98323D01*
Y-98171D01*
Y-98018D01*
Y-97866D01*
Y-97714D01*
Y-97561D01*
Y-97409D01*
Y-97256D01*
Y-97104D01*
Y-96952D01*
Y-96799D01*
Y-96647D01*
Y-96494D01*
Y-96342D01*
Y-96190D01*
Y-96037D01*
Y-95885D01*
Y-95732D01*
Y-95580D01*
Y-95428D01*
Y-95275D01*
Y-95123D01*
Y-94970D01*
Y-94818D01*
Y-94666D01*
Y-94513D01*
Y-94361D01*
Y-94208D01*
Y-94056D01*
Y-93904D01*
Y-93751D01*
X205121D01*
Y-93904D01*
D02*
G37*
G36*
X198873Y-114020D02*
Y-114173D01*
Y-114325D01*
Y-114478D01*
Y-114630D01*
Y-114782D01*
Y-114935D01*
Y-115087D01*
Y-115240D01*
Y-115392D01*
Y-115544D01*
Y-115697D01*
Y-115849D01*
Y-116002D01*
Y-116154D01*
Y-116306D01*
Y-116459D01*
Y-116611D01*
Y-116764D01*
Y-116916D01*
Y-117068D01*
Y-117221D01*
Y-117373D01*
Y-117526D01*
Y-117678D01*
Y-117830D01*
Y-117983D01*
Y-118135D01*
Y-118288D01*
Y-118440D01*
Y-118592D01*
Y-118745D01*
Y-118897D01*
X191710D01*
Y-118745D01*
Y-118592D01*
Y-118440D01*
Y-118288D01*
Y-118135D01*
Y-117983D01*
Y-117830D01*
Y-117678D01*
Y-117526D01*
Y-117373D01*
Y-117221D01*
Y-117068D01*
Y-116916D01*
Y-116764D01*
Y-116611D01*
Y-116459D01*
Y-116306D01*
Y-116154D01*
Y-116002D01*
Y-115849D01*
Y-115697D01*
Y-115544D01*
Y-115392D01*
Y-115240D01*
Y-115087D01*
Y-114935D01*
Y-114782D01*
Y-114630D01*
Y-114478D01*
Y-114325D01*
Y-114173D01*
Y-114020D01*
X191863D01*
Y-113868D01*
X198873D01*
Y-114020D01*
D02*
G37*
G36*
X71178Y-97128D02*
X71171Y-97188D01*
Y-97256D01*
X71163Y-97414D01*
X71140Y-97579D01*
X71118Y-97760D01*
X71080Y-97925D01*
X71058Y-98008D01*
X71035Y-98075D01*
Y-98083D01*
X71028Y-98090D01*
X71005Y-98135D01*
X70975Y-98203D01*
X70922Y-98286D01*
X70855Y-98376D01*
X70765Y-98474D01*
X70659Y-98564D01*
X70539Y-98654D01*
X70532D01*
X70524Y-98662D01*
X70479Y-98692D01*
X70404Y-98722D01*
X70306Y-98767D01*
X70193Y-98805D01*
X70058Y-98842D01*
X69915Y-98865D01*
X69757Y-98872D01*
X69750D01*
X69735D01*
X69704D01*
X69667Y-98865D01*
X69614D01*
X69562Y-98857D01*
X69434Y-98827D01*
X69283Y-98782D01*
X69125Y-98722D01*
X68968Y-98632D01*
X68892Y-98572D01*
X68817Y-98511D01*
X68810Y-98504D01*
X68802Y-98496D01*
X68780Y-98474D01*
X68757Y-98444D01*
X68727Y-98406D01*
X68697Y-98361D01*
X68659Y-98301D01*
X68614Y-98241D01*
X68577Y-98166D01*
X68539Y-98083D01*
X68494Y-97993D01*
X68456Y-97895D01*
X68426Y-97782D01*
X68389Y-97669D01*
X68366Y-97542D01*
X68344Y-97406D01*
X68336Y-97421D01*
X68321Y-97451D01*
X68291Y-97496D01*
X68261Y-97556D01*
X68178Y-97692D01*
X68126Y-97760D01*
X68081Y-97820D01*
X68065Y-97835D01*
X68028Y-97872D01*
X67968Y-97932D01*
X67892Y-98008D01*
X67787Y-98090D01*
X67674Y-98188D01*
X67539Y-98286D01*
X67389Y-98391D01*
X65975Y-99286D01*
Y-98429D01*
X67058Y-97745D01*
X67066D01*
X67080Y-97729D01*
X67103Y-97714D01*
X67133Y-97692D01*
X67216Y-97639D01*
X67321Y-97572D01*
X67434Y-97489D01*
X67554Y-97406D01*
X67667Y-97324D01*
X67772Y-97248D01*
X67780Y-97241D01*
X67810Y-97218D01*
X67855Y-97181D01*
X67908Y-97128D01*
X68020Y-97015D01*
X68073Y-96955D01*
X68118Y-96895D01*
X68126Y-96887D01*
X68133Y-96872D01*
X68148Y-96842D01*
X68171Y-96797D01*
X68193Y-96752D01*
X68216Y-96699D01*
X68253Y-96579D01*
Y-96572D01*
X68261Y-96557D01*
Y-96526D01*
X68268Y-96489D01*
X68276Y-96436D01*
Y-96376D01*
X68284Y-96293D01*
Y-95406D01*
X65975D01*
Y-94715D01*
X71178D01*
Y-97128D01*
D02*
G37*
G36*
X69892Y-100188D02*
X69907Y-100203D01*
X69915Y-100233D01*
X69938Y-100271D01*
X69960Y-100316D01*
X69990Y-100368D01*
X70065Y-100496D01*
X70148Y-100647D01*
X70253Y-100797D01*
X70374Y-100955D01*
X70501Y-101113D01*
X70509Y-101120D01*
X70516Y-101128D01*
X70539Y-101150D01*
X70562Y-101180D01*
X70637Y-101248D01*
X70727Y-101338D01*
X70832Y-101428D01*
X70953Y-101526D01*
X71073Y-101609D01*
X71201Y-101684D01*
Y-102098D01*
X65975D01*
Y-101459D01*
X70043D01*
X70035Y-101451D01*
X70005Y-101413D01*
X69960Y-101368D01*
X69907Y-101293D01*
X69840Y-101210D01*
X69765Y-101105D01*
X69682Y-100985D01*
X69599Y-100850D01*
Y-100842D01*
X69592Y-100835D01*
X69562Y-100789D01*
X69524Y-100714D01*
X69479Y-100624D01*
X69426Y-100519D01*
X69374Y-100406D01*
X69321Y-100293D01*
X69276Y-100180D01*
X69892D01*
Y-100188D01*
D02*
G37*
G36*
X130515Y-99357D02*
X125929D01*
Y-101920D01*
X125313D01*
Y-98665D01*
X130515D01*
Y-99357D01*
D02*
G37*
G36*
Y-106514D02*
X129899D01*
Y-103439D01*
X128313D01*
Y-106319D01*
X127696D01*
Y-103439D01*
X125929D01*
Y-106634D01*
X125313D01*
Y-102747D01*
X130515D01*
Y-106514D01*
D02*
G37*
G36*
Y-109589D02*
X130508Y-109725D01*
X130500Y-109875D01*
X130485Y-110025D01*
X130463Y-110176D01*
X130440Y-110303D01*
Y-110311D01*
X130433Y-110326D01*
Y-110349D01*
X130418Y-110379D01*
X130395Y-110461D01*
X130358Y-110567D01*
X130305Y-110687D01*
X130237Y-110815D01*
X130162Y-110942D01*
X130064Y-111063D01*
X130057Y-111070D01*
X130049Y-111078D01*
X130027Y-111100D01*
X130004Y-111130D01*
X129929Y-111206D01*
X129824Y-111296D01*
X129696Y-111394D01*
X129546Y-111499D01*
X129373Y-111597D01*
X129177Y-111679D01*
X129170D01*
X129155Y-111687D01*
X129125Y-111702D01*
X129080Y-111709D01*
X129027Y-111732D01*
X128967Y-111747D01*
X128899Y-111762D01*
X128816Y-111784D01*
X128734Y-111807D01*
X128636Y-111822D01*
X128425Y-111860D01*
X128192Y-111882D01*
X127937Y-111890D01*
X127929D01*
X127914D01*
X127877D01*
X127839D01*
X127786Y-111882D01*
X127726D01*
X127583Y-111875D01*
X127418Y-111852D01*
X127245Y-111830D01*
X127065Y-111792D01*
X126884Y-111747D01*
X126877D01*
X126861Y-111739D01*
X126839Y-111732D01*
X126809Y-111724D01*
X126726Y-111694D01*
X126621Y-111649D01*
X126501Y-111604D01*
X126380Y-111544D01*
X126253Y-111469D01*
X126132Y-111394D01*
X126117Y-111386D01*
X126080Y-111356D01*
X126027Y-111311D01*
X125959Y-111251D01*
X125884Y-111183D01*
X125809Y-111100D01*
X125726Y-111018D01*
X125659Y-110920D01*
X125651Y-110905D01*
X125628Y-110875D01*
X125598Y-110822D01*
X125561Y-110747D01*
X125516Y-110657D01*
X125478Y-110552D01*
X125433Y-110431D01*
X125395Y-110296D01*
Y-110281D01*
X125388Y-110258D01*
X125380Y-110236D01*
X125373Y-110161D01*
X125358Y-110055D01*
X125343Y-109935D01*
X125328Y-109792D01*
X125320Y-109634D01*
X125313Y-109461D01*
Y-107589D01*
X130515D01*
Y-109589D01*
D02*
G37*
G36*
X129230Y-113070D02*
X129245Y-113085D01*
X129252Y-113115D01*
X129275Y-113153D01*
X129298Y-113198D01*
X129328Y-113251D01*
X129403Y-113378D01*
X129486Y-113529D01*
X129591Y-113679D01*
X129711Y-113837D01*
X129839Y-113995D01*
X129846Y-114003D01*
X129854Y-114010D01*
X129876Y-114032D01*
X129899Y-114063D01*
X129974Y-114130D01*
X130064Y-114221D01*
X130170Y-114311D01*
X130290Y-114409D01*
X130410Y-114491D01*
X130538Y-114566D01*
Y-114980D01*
X125313D01*
Y-114341D01*
X129380D01*
X129373Y-114333D01*
X129343Y-114296D01*
X129298Y-114251D01*
X129245Y-114175D01*
X129177Y-114093D01*
X129102Y-113987D01*
X129019Y-113867D01*
X128937Y-113732D01*
Y-113724D01*
X128929Y-113717D01*
X128899Y-113672D01*
X128861Y-113596D01*
X128816Y-113506D01*
X128764Y-113401D01*
X128711Y-113288D01*
X128658Y-113175D01*
X128613Y-113063D01*
X129230D01*
Y-113070D01*
D02*
G37*
%LPC*%
G36*
X70599Y-95406D02*
X68877D01*
Y-96955D01*
X68885Y-97045D01*
X68892Y-97150D01*
X68900Y-97271D01*
X68915Y-97391D01*
X68938Y-97511D01*
X68968Y-97617D01*
X68975Y-97632D01*
X68990Y-97662D01*
X69013Y-97707D01*
X69043Y-97767D01*
X69088Y-97835D01*
X69141Y-97902D01*
X69208Y-97970D01*
X69283Y-98023D01*
X69291Y-98030D01*
X69321Y-98045D01*
X69366Y-98068D01*
X69426Y-98098D01*
X69494Y-98120D01*
X69569Y-98143D01*
X69659Y-98158D01*
X69750Y-98166D01*
X69757D01*
X69765D01*
X69810Y-98158D01*
X69877Y-98151D01*
X69968Y-98135D01*
X70058Y-98098D01*
X70163Y-98053D01*
X70261Y-97985D01*
X70359Y-97895D01*
X70366Y-97880D01*
X70396Y-97842D01*
X70434Y-97782D01*
X70479Y-97684D01*
X70524Y-97572D01*
X70562Y-97421D01*
X70592Y-97248D01*
X70599Y-97045D01*
Y-95406D01*
D02*
G37*
G36*
X129899Y-108281D02*
X125929D01*
Y-109514D01*
X125937Y-109567D01*
X125944Y-109679D01*
X125952Y-109807D01*
X125967Y-109943D01*
X125989Y-110078D01*
X126019Y-110191D01*
X126027Y-110206D01*
X126034Y-110243D01*
X126057Y-110296D01*
X126087Y-110364D01*
X126132Y-110439D01*
X126177Y-110514D01*
X126230Y-110589D01*
X126290Y-110664D01*
X126305Y-110672D01*
X126335Y-110702D01*
X126388Y-110747D01*
X126463Y-110800D01*
X126561Y-110860D01*
X126674Y-110927D01*
X126801Y-110988D01*
X126944Y-111040D01*
X126952D01*
X126967Y-111048D01*
X126989Y-111055D01*
X127019Y-111063D01*
X127057Y-111070D01*
X127110Y-111085D01*
X127162Y-111100D01*
X127222Y-111115D01*
X127373Y-111138D01*
X127546Y-111160D01*
X127741Y-111175D01*
X127952Y-111183D01*
X127959D01*
X127989D01*
X128027D01*
X128087Y-111175D01*
X128155D01*
X128230Y-111168D01*
X128320Y-111160D01*
X128410Y-111153D01*
X128613Y-111115D01*
X128824Y-111070D01*
X129019Y-111003D01*
X129117Y-110957D01*
X129200Y-110912D01*
X129207D01*
X129222Y-110897D01*
X129245Y-110882D01*
X129275Y-110867D01*
X129350Y-110807D01*
X129440Y-110732D01*
X129538Y-110634D01*
X129636Y-110521D01*
X129719Y-110394D01*
X129786Y-110258D01*
X129794Y-110243D01*
X129801Y-110206D01*
X129824Y-110138D01*
X129846Y-110040D01*
X129861Y-109920D01*
X129884Y-109770D01*
X129892Y-109679D01*
Y-109582D01*
X129899Y-109484D01*
Y-108281D01*
D02*
G37*
%LPD*%
D10*
X231944Y29004D02*
G03*
X231944Y29004I-1000J0D01*
G01*
X241944Y-63996D02*
Y-43996D01*
Y-63996D02*
X274944D01*
Y-43996D01*
X241944Y47004D02*
Y67004D01*
X274944D01*
Y47004D02*
Y67004D01*
X174954Y41599D02*
X181954D01*
Y32599D02*
Y41599D01*
X151954D02*
X158954D01*
X151954Y32599D02*
Y41599D01*
X120906Y-137436D02*
Y-119436D01*
X136906Y-137436D02*
Y-119436D01*
X-122188Y-15217D02*
X-95487D01*
X-122188Y12083D02*
X-95487D01*
X-122188Y-67917D02*
Y12083D01*
Y-67917D02*
X-95487D01*
Y12083D01*
D11*
X149204Y24499D02*
G03*
X149204Y24499I-1250J0D01*
G01*
X130156Y-145686D02*
G03*
X130156Y-145686I-1250J0D01*
G01*
X-125837Y-2517D02*
G03*
X-125837Y-2517I-1250J0D01*
G01*
D12*
X135913Y63738D02*
X139914D01*
X209492Y48162D02*
Y52162D01*
D13*
X-134620Y-53340D02*
Y-72640D01*
Y-53340D02*
X-126349D01*
X-123591Y-54259D01*
X-122673Y-55178D01*
X-121753Y-57016D01*
Y-58854D01*
X-122673Y-60692D01*
X-123591Y-61611D01*
X-126349Y-62530D01*
X-134620D01*
X-128187D02*
X-121753Y-72640D01*
X-160020Y-53340D02*
Y-71116D01*
Y-53340D02*
X-154095D01*
X-151555Y-54187D01*
X-149862Y-55880D01*
X-149016Y-57572D01*
X-148169Y-60112D01*
Y-64344D01*
X-149016Y-66884D01*
X-149862Y-68577D01*
X-151555Y-70270D01*
X-154095Y-71116D01*
X-160020D01*
X-171634Y-57935D02*
X-172553Y-56097D01*
X-174391Y-54259D01*
X-176230Y-53340D01*
X-179906D01*
X-181744Y-54259D01*
X-183582Y-56097D01*
X-184501Y-57935D01*
X-185420Y-60692D01*
Y-65287D01*
X-184501Y-68045D01*
X-183582Y-69883D01*
X-181744Y-71721D01*
X-179906Y-72640D01*
X-176230D01*
X-174391Y-71721D01*
X-172553Y-69883D01*
X-171634Y-68045D01*
X-275336Y-2490D02*
X-267065D01*
X-264307Y-1570D01*
X-263389Y-651D01*
X-262469Y1187D01*
Y3944D01*
X-263389Y5782D01*
X-264307Y6701D01*
X-267065Y7620D01*
X-275336D01*
Y-11680D01*
X-247121Y7620D02*
X-256312D01*
X-257231Y-651D01*
X-256312Y268D01*
X-253555Y1187D01*
X-250798D01*
X-248041Y268D01*
X-246202Y-1570D01*
X-245283Y-4327D01*
Y-6166D01*
X-246202Y-8923D01*
X-248041Y-10761D01*
X-250798Y-11680D01*
X-253555D01*
X-256312Y-10761D01*
X-257231Y-9842D01*
X-258150Y-8004D01*
X-92456Y94031D02*
X-84185D01*
X-81427Y94950D01*
X-80508Y95869D01*
X-79589Y97707D01*
Y100464D01*
X-80508Y102302D01*
X-81427Y103221D01*
X-84185Y104140D01*
X-92456D01*
Y84840D01*
X-74351Y99545D02*
Y100464D01*
X-73432Y102302D01*
X-72513Y103221D01*
X-70675Y104140D01*
X-66999D01*
X-65160Y103221D01*
X-64241Y102302D01*
X-63322Y100464D01*
Y98626D01*
X-64241Y96788D01*
X-66080Y94031D01*
X-75270Y84840D01*
X-62403D01*
X-53489Y104140D02*
Y93111D01*
X-58084Y101383D02*
X-48893Y95869D01*
Y101383D02*
X-58084Y95869D01*
X-97536Y-99010D02*
X-89265D01*
X-86508Y-98090D01*
X-85589Y-97171D01*
X-84669Y-95333D01*
Y-92576D01*
X-85589Y-90738D01*
X-86508Y-89819D01*
X-89265Y-88900D01*
X-97536D01*
Y-108200D01*
X-78512Y-88900D02*
X-68402D01*
X-73917Y-96252D01*
X-71160D01*
X-69321Y-97171D01*
X-68402Y-98090D01*
X-67483Y-100848D01*
Y-102686D01*
X-68402Y-105443D01*
X-70241Y-107281D01*
X-72998Y-108200D01*
X-75755D01*
X-78512Y-107281D01*
X-79431Y-106362D01*
X-80350Y-104524D01*
X-239776Y-93930D02*
X-231505D01*
X-228748Y-93010D01*
X-227829Y-92091D01*
X-226909Y-90253D01*
Y-87496D01*
X-227829Y-85658D01*
X-228748Y-84739D01*
X-231505Y-83820D01*
X-239776D01*
Y-103120D01*
X-213400Y-83820D02*
X-222590Y-96687D01*
X-208804D01*
X-213400Y-83820D02*
Y-103120D01*
X-244856Y94031D02*
X-236585D01*
X-233827Y94950D01*
X-232908Y95869D01*
X-231989Y97707D01*
Y100464D01*
X-232908Y102302D01*
X-233827Y103221D01*
X-236585Y104140D01*
X-244856D01*
Y84840D01*
X-227670Y100464D02*
X-225832Y101383D01*
X-223075Y104140D01*
Y84840D01*
X194711Y-39881D02*
X184554D01*
Y-47499D01*
X189632D01*
X184554D01*
Y-55117D01*
X199789D02*
Y-39881D01*
X207407D01*
X209946Y-42421D01*
Y-47499D01*
X207407Y-50038D01*
X199789D01*
X225181Y-42421D02*
X222642Y-39881D01*
X217563D01*
X215024Y-42421D01*
Y-52577D01*
X217563Y-55117D01*
X222642D01*
X225181Y-52577D01*
X187951Y60944D02*
Y76179D01*
X195569D01*
X198108Y73640D01*
Y68561D01*
X195569Y66022D01*
X187951D01*
X193030D02*
X198108Y60944D01*
X213343Y76179D02*
X203186D01*
Y68561D01*
X208265Y71101D01*
X210804D01*
X213343Y68561D01*
Y63483D01*
X210804Y60944D01*
X205725D01*
X203186Y63483D01*
X128413Y80420D02*
Y95655D01*
X136031D01*
X138570Y93116D01*
Y88038D01*
X136031Y85499D01*
X128413D01*
X133492D02*
X138570Y80420D01*
X151266D02*
Y95655D01*
X143648Y88038D01*
X153805D01*
X203548Y26818D02*
Y36975D01*
X201009Y39514D01*
X195931D01*
X193391Y36975D01*
Y26818D01*
X195931Y24279D01*
X201009D01*
X198470Y29357D02*
X203548Y24279D01*
X201009D02*
X203548Y26818D01*
X208626Y24279D02*
X213705D01*
X211166D01*
Y39514D01*
X208626Y36975D01*
D14*
X-20496Y-8996D02*
X-20109Y-9383D01*
X-20496Y-9770D01*
X-20883Y-9383D01*
Y-8996D01*
X-20496Y-8222D01*
X-20109Y-7835D01*
X-18948Y-7448D01*
X-17400D01*
X-16239Y-7835D01*
X-15852Y-8609D01*
Y-9770D01*
X-16239Y-10544D01*
X-17400Y-10931D01*
X-18561D01*
X-17400Y-7448D02*
X-16626Y-7835D01*
X-16239Y-8609D01*
Y-9770D01*
X-16626Y-10544D01*
X-17400Y-10931D01*
X-16626Y-11318D01*
X-15852Y-12092D01*
X-15466Y-12866D01*
Y-14026D01*
X-15852Y-14800D01*
X-16239Y-15187D01*
X-17400Y-15574D01*
X-18948D01*
X-20109Y-15187D01*
X-20496Y-14800D01*
X-20883Y-14026D01*
Y-13640D01*
X-20496Y-13253D01*
X-20109Y-13640D01*
X-20496Y-14026D01*
X-16239Y-11705D02*
X-15852Y-12866D01*
Y-14026D01*
X-16239Y-14800D01*
X-16626Y-15187D01*
X-17400Y-15574D01*
X-13492Y-7448D02*
X-10783Y-15574D01*
X-13105Y-7448D02*
X-10783Y-14413D01*
X-8074Y-7448D02*
X-10783Y-15574D01*
X-14266Y-7448D02*
X-11944D01*
X-9622D02*
X-7301D01*
X-5869Y-8996D02*
X-5482Y-9383D01*
X-5869Y-9770D01*
X-6256Y-9383D01*
Y-8996D01*
X-5869Y-8222D01*
X-5482Y-7835D01*
X-4321Y-7448D01*
X-2773D01*
X-1612Y-7835D01*
X-1225Y-8609D01*
Y-9770D01*
X-1612Y-10544D01*
X-2773Y-10931D01*
X-3934D01*
X-2773Y-7448D02*
X-1999Y-7835D01*
X-1612Y-8609D01*
Y-9770D01*
X-1999Y-10544D01*
X-2773Y-10931D01*
X-1999Y-11318D01*
X-1225Y-12092D01*
X-838Y-12866D01*
Y-14026D01*
X-1225Y-14800D01*
X-1612Y-15187D01*
X-2773Y-15574D01*
X-4321D01*
X-5482Y-15187D01*
X-5869Y-14800D01*
X-6256Y-14026D01*
Y-13640D01*
X-5869Y-13253D01*
X-5482Y-13640D01*
X-5869Y-14026D01*
X-1612Y-11705D02*
X-1225Y-12866D01*
Y-14026D01*
X-1612Y-14800D01*
X-1999Y-15187D01*
X-2773Y-15574D01*
X256673Y-83590D02*
X257060Y-83977D01*
X256673Y-84364D01*
X256286Y-83977D01*
Y-83590D01*
X256673Y-82816D01*
X257060Y-82429D01*
X258221Y-82042D01*
X259769D01*
X260930Y-82429D01*
X261317Y-83203D01*
Y-84364D01*
X260930Y-85138D01*
X259769Y-85525D01*
X258608D01*
X259769Y-82042D02*
X260543Y-82429D01*
X260930Y-83203D01*
Y-84364D01*
X260543Y-85138D01*
X259769Y-85525D01*
X260543Y-85912D01*
X261317Y-86686D01*
X261703Y-87459D01*
Y-88620D01*
X261317Y-89394D01*
X260930Y-89781D01*
X259769Y-90168D01*
X258221D01*
X257060Y-89781D01*
X256673Y-89394D01*
X256286Y-88620D01*
Y-88233D01*
X256673Y-87846D01*
X257060Y-88233D01*
X256673Y-88620D01*
X260930Y-86299D02*
X261317Y-87459D01*
Y-88620D01*
X260930Y-89394D01*
X260543Y-89781D01*
X259769Y-90168D01*
X263677Y-82042D02*
X266386Y-90168D01*
X264064Y-82042D02*
X266386Y-89007D01*
X269095Y-82042D02*
X266386Y-90168D01*
X262903Y-82042D02*
X265225D01*
X267547D02*
X269869D01*
X271300Y-83590D02*
X271687Y-83977D01*
X271300Y-84364D01*
X270913Y-83977D01*
Y-83590D01*
X271300Y-82816D01*
X271687Y-82429D01*
X272848Y-82042D01*
X274396D01*
X275557Y-82429D01*
X275944Y-83203D01*
Y-84364D01*
X275557Y-85138D01*
X274396Y-85525D01*
X273235D01*
X274396Y-82042D02*
X275170Y-82429D01*
X275557Y-83203D01*
Y-84364D01*
X275170Y-85138D01*
X274396Y-85525D01*
X275170Y-85912D01*
X275944Y-86686D01*
X276331Y-87459D01*
Y-88620D01*
X275944Y-89394D01*
X275557Y-89781D01*
X274396Y-90168D01*
X272848D01*
X271687Y-89781D01*
X271300Y-89394D01*
X270913Y-88620D01*
Y-88233D01*
X271300Y-87846D01*
X271687Y-88233D01*
X271300Y-88620D01*
X275557Y-86299D02*
X275944Y-87459D01*
Y-88620D01*
X275557Y-89394D01*
X275170Y-89781D01*
X274396Y-90168D01*
X256673Y89130D02*
X257060Y88743D01*
X256673Y88356D01*
X256286Y88743D01*
Y89130D01*
X256673Y89904D01*
X257060Y90291D01*
X258221Y90678D01*
X259769D01*
X260930Y90291D01*
X261317Y89517D01*
Y88356D01*
X260930Y87582D01*
X259769Y87195D01*
X258608D01*
X259769Y90678D02*
X260543Y90291D01*
X260930Y89517D01*
Y88356D01*
X260543Y87582D01*
X259769Y87195D01*
X260543Y86808D01*
X261317Y86034D01*
X261703Y85260D01*
Y84100D01*
X261317Y83326D01*
X260930Y82939D01*
X259769Y82552D01*
X258221D01*
X257060Y82939D01*
X256673Y83326D01*
X256286Y84100D01*
Y84487D01*
X256673Y84874D01*
X257060Y84487D01*
X256673Y84100D01*
X260930Y86421D02*
X261317Y85260D01*
Y84100D01*
X260930Y83326D01*
X260543Y82939D01*
X259769Y82552D01*
X263677Y90678D02*
X266386Y82552D01*
X264064Y90678D02*
X266386Y83713D01*
X269095Y90678D02*
X266386Y82552D01*
X262903Y90678D02*
X265225D01*
X267547D02*
X269869D01*
X271300Y89130D02*
X271687Y88743D01*
X271300Y88356D01*
X270913Y88743D01*
Y89130D01*
X271300Y89904D01*
X271687Y90291D01*
X272848Y90678D01*
X274396D01*
X275557Y90291D01*
X275944Y89517D01*
Y88356D01*
X275557Y87582D01*
X274396Y87195D01*
X273235D01*
X274396Y90678D02*
X275170Y90291D01*
X275557Y89517D01*
Y88356D01*
X275170Y87582D01*
X274396Y87195D01*
X275170Y86808D01*
X275944Y86034D01*
X276331Y85260D01*
Y84100D01*
X275944Y83326D01*
X275557Y82939D01*
X274396Y82552D01*
X272848D01*
X271687Y82939D01*
X271300Y83326D01*
X270913Y84100D01*
Y84487D01*
X271300Y84874D01*
X271687Y84487D01*
X271300Y84100D01*
X275557Y86421D02*
X275944Y85260D01*
Y84100D01*
X275557Y83326D01*
X275170Y82939D01*
X274396Y82552D01*
X139833Y-144550D02*
X140220Y-144937D01*
X139833Y-145324D01*
X139446Y-144937D01*
Y-144550D01*
X139833Y-143776D01*
X140220Y-143389D01*
X141381Y-143002D01*
X142929D01*
X144090Y-143389D01*
X144476Y-144163D01*
Y-145324D01*
X144090Y-146098D01*
X142929Y-146485D01*
X141768D01*
X142929Y-143002D02*
X143703Y-143389D01*
X144090Y-144163D01*
Y-145324D01*
X143703Y-146098D01*
X142929Y-146485D01*
X143703Y-146872D01*
X144476Y-147646D01*
X144864Y-148420D01*
Y-149580D01*
X144476Y-150354D01*
X144090Y-150741D01*
X142929Y-151128D01*
X141381D01*
X140220Y-150741D01*
X139833Y-150354D01*
X139446Y-149580D01*
Y-149193D01*
X139833Y-148806D01*
X140220Y-149193D01*
X139833Y-149580D01*
X144090Y-147259D02*
X144476Y-148420D01*
Y-149580D01*
X144090Y-150354D01*
X143703Y-150741D01*
X142929Y-151128D01*
X146837Y-143002D02*
X149546Y-151128D01*
X147224Y-143002D02*
X149546Y-149967D01*
X152254Y-143002D02*
X149546Y-151128D01*
X146063Y-143002D02*
X148385D01*
X150707D02*
X153028D01*
X154460Y-144550D02*
X154847Y-144937D01*
X154460Y-145324D01*
X154073Y-144937D01*
Y-144550D01*
X154460Y-143776D01*
X154847Y-143389D01*
X156008Y-143002D01*
X157556D01*
X158717Y-143389D01*
X159104Y-144163D01*
Y-145324D01*
X158717Y-146098D01*
X157556Y-146485D01*
X156395D01*
X157556Y-143002D02*
X158330Y-143389D01*
X158717Y-144163D01*
Y-145324D01*
X158330Y-146098D01*
X157556Y-146485D01*
X158330Y-146872D01*
X159104Y-147646D01*
X159491Y-148420D01*
Y-149580D01*
X159104Y-150354D01*
X158717Y-150741D01*
X157556Y-151128D01*
X156008D01*
X154847Y-150741D01*
X154460Y-150354D01*
X154073Y-149580D01*
Y-149193D01*
X154460Y-148806D01*
X154847Y-149193D01*
X154460Y-149580D01*
X158717Y-147259D02*
X159104Y-148420D01*
Y-149580D01*
X158717Y-150354D01*
X158330Y-150741D01*
X157556Y-151128D01*
X-12567Y-58190D02*
X-12180Y-58577D01*
X-12567Y-58964D01*
X-12954Y-58577D01*
Y-58190D01*
X-12567Y-57416D01*
X-12180Y-57029D01*
X-11019Y-56642D01*
X-9471D01*
X-8310Y-57029D01*
X-7923Y-57803D01*
Y-58964D01*
X-8310Y-59738D01*
X-9471Y-60125D01*
X-10632D01*
X-9471Y-56642D02*
X-8697Y-57029D01*
X-8310Y-57803D01*
Y-58964D01*
X-8697Y-59738D01*
X-9471Y-60125D01*
X-8697Y-60512D01*
X-7923Y-61286D01*
X-7537Y-62059D01*
Y-63220D01*
X-7923Y-63994D01*
X-8310Y-64381D01*
X-9471Y-64768D01*
X-11019D01*
X-12180Y-64381D01*
X-12567Y-63994D01*
X-12954Y-63220D01*
Y-62833D01*
X-12567Y-62446D01*
X-12180Y-62833D01*
X-12567Y-63220D01*
X-8310Y-60899D02*
X-7923Y-62059D01*
Y-63220D01*
X-8310Y-63994D01*
X-8697Y-64381D01*
X-9471Y-64768D01*
X-5563Y-56642D02*
X-2854Y-64768D01*
X-5176Y-56642D02*
X-2854Y-63607D01*
X-146Y-56642D02*
X-2854Y-64768D01*
X-6337Y-56642D02*
X-4015D01*
X-1693D02*
X628D01*
X2060Y-58190D02*
X2447Y-58577D01*
X2060Y-58964D01*
X1673Y-58577D01*
Y-58190D01*
X2060Y-57416D01*
X2447Y-57029D01*
X3608Y-56642D01*
X5156D01*
X6317Y-57029D01*
X6704Y-57803D01*
Y-58964D01*
X6317Y-59738D01*
X5156Y-60125D01*
X3995D01*
X5156Y-56642D02*
X5930Y-57029D01*
X6317Y-57803D01*
Y-58964D01*
X5930Y-59738D01*
X5156Y-60125D01*
X5930Y-60512D01*
X6704Y-61286D01*
X7091Y-62059D01*
Y-63220D01*
X6704Y-63994D01*
X6317Y-64381D01*
X5156Y-64768D01*
X3608D01*
X2447Y-64381D01*
X2060Y-63994D01*
X1673Y-63220D01*
Y-62833D01*
X2060Y-62446D01*
X2447Y-62833D01*
X2060Y-63220D01*
X6317Y-60899D02*
X6704Y-62059D01*
Y-63220D01*
X6317Y-63994D01*
X5930Y-64381D01*
X5156Y-64768D01*
X-159887Y150090D02*
X-159500Y149703D01*
X-159887Y149316D01*
X-160274Y149703D01*
Y150090D01*
X-159887Y150864D01*
X-159500Y151251D01*
X-158339Y151638D01*
X-156791D01*
X-155630Y151251D01*
X-155244Y150477D01*
Y149316D01*
X-155630Y148542D01*
X-156791Y148155D01*
X-157952D01*
X-156791Y151638D02*
X-156017Y151251D01*
X-155630Y150477D01*
Y149316D01*
X-156017Y148542D01*
X-156791Y148155D01*
X-156017Y147768D01*
X-155244Y146994D01*
X-154857Y146221D01*
Y145060D01*
X-155244Y144286D01*
X-155630Y143899D01*
X-156791Y143512D01*
X-158339D01*
X-159500Y143899D01*
X-159887Y144286D01*
X-160274Y145060D01*
Y145447D01*
X-159887Y145834D01*
X-159500Y145447D01*
X-159887Y145060D01*
X-155630Y147381D02*
X-155244Y146221D01*
Y145060D01*
X-155630Y144286D01*
X-156017Y143899D01*
X-156791Y143512D01*
X-152883Y151638D02*
X-150174Y143512D01*
X-152496Y151638D02*
X-150174Y144673D01*
X-147465Y151638D02*
X-150174Y143512D01*
X-153657Y151638D02*
X-151335D01*
X-149013D02*
X-146692D01*
X-145260Y150090D02*
X-144873Y149703D01*
X-145260Y149316D01*
X-145647Y149703D01*
Y150090D01*
X-145260Y150864D01*
X-144873Y151251D01*
X-143712Y151638D01*
X-142164D01*
X-141003Y151251D01*
X-140616Y150477D01*
Y149316D01*
X-141003Y148542D01*
X-142164Y148155D01*
X-143325D01*
X-142164Y151638D02*
X-141390Y151251D01*
X-141003Y150477D01*
Y149316D01*
X-141390Y148542D01*
X-142164Y148155D01*
X-141390Y147768D01*
X-140616Y146994D01*
X-140229Y146221D01*
Y145060D01*
X-140616Y144286D01*
X-141003Y143899D01*
X-142164Y143512D01*
X-143712D01*
X-144873Y143899D01*
X-145260Y144286D01*
X-145647Y145060D01*
Y145447D01*
X-145260Y145834D01*
X-144873Y145447D01*
X-145260Y145060D01*
X-141003Y147381D02*
X-140616Y146221D01*
Y145060D01*
X-141003Y144286D01*
X-141390Y143899D01*
X-142164Y143512D01*
X-141865Y-150090D02*
X-142252Y-149703D01*
X-141865Y-149316D01*
X-141478Y-149703D01*
Y-150090D01*
X-141865Y-150864D01*
X-142252Y-151251D01*
X-143413Y-151638D01*
X-144961D01*
X-146122Y-151251D01*
X-146509Y-150477D01*
Y-149316D01*
X-146122Y-148542D01*
X-144961Y-148155D01*
X-143800D01*
X-144961Y-151638D02*
X-145735Y-151251D01*
X-146122Y-150477D01*
Y-149316D01*
X-145735Y-148542D01*
X-144961Y-148155D01*
X-145735Y-147768D01*
X-146509Y-146994D01*
X-146896Y-146221D01*
Y-145060D01*
X-146509Y-144286D01*
X-146122Y-143899D01*
X-144961Y-143512D01*
X-143413D01*
X-142252Y-143899D01*
X-141865Y-144286D01*
X-141478Y-145060D01*
Y-145447D01*
X-141865Y-145834D01*
X-142252Y-145447D01*
X-141865Y-145060D01*
X-146122Y-147381D02*
X-146509Y-146221D01*
Y-145060D01*
X-146122Y-144286D01*
X-145735Y-143899D01*
X-144961Y-143512D01*
X-148869Y-151638D02*
X-151578Y-143512D01*
X-149256Y-151638D02*
X-151578Y-144673D01*
X-154286Y-151638D02*
X-151578Y-143512D01*
X-148095Y-151638D02*
X-150417D01*
X-152739D02*
X-155061D01*
X-156492Y-150090D02*
X-156879Y-149703D01*
X-156492Y-149316D01*
X-156105Y-149703D01*
Y-150090D01*
X-156492Y-150864D01*
X-156879Y-151251D01*
X-158040Y-151638D01*
X-159588D01*
X-160749Y-151251D01*
X-161136Y-150477D01*
Y-149316D01*
X-160749Y-148542D01*
X-159588Y-148155D01*
X-158427D01*
X-159588Y-151638D02*
X-160362Y-151251D01*
X-160749Y-150477D01*
Y-149316D01*
X-160362Y-148542D01*
X-159588Y-148155D01*
X-160362Y-147768D01*
X-161136Y-146994D01*
X-161523Y-146221D01*
Y-145060D01*
X-161136Y-144286D01*
X-160749Y-143899D01*
X-159588Y-143512D01*
X-158040D01*
X-156879Y-143899D01*
X-156492Y-144286D01*
X-156105Y-145060D01*
Y-145447D01*
X-156492Y-145834D01*
X-156879Y-145447D01*
X-156492Y-145060D01*
X-160749Y-147381D02*
X-161136Y-146221D01*
Y-145060D01*
X-160749Y-144286D01*
X-160362Y-143899D01*
X-159588Y-143512D01*
X-276727Y-78510D02*
X-276340Y-78897D01*
X-276727Y-79284D01*
X-277114Y-78897D01*
Y-78510D01*
X-276727Y-77736D01*
X-276340Y-77349D01*
X-275179Y-76962D01*
X-273631D01*
X-272470Y-77349D01*
X-272083Y-78123D01*
Y-79284D01*
X-272470Y-80058D01*
X-273631Y-80445D01*
X-274792D01*
X-273631Y-76962D02*
X-272857Y-77349D01*
X-272470Y-78123D01*
Y-79284D01*
X-272857Y-80058D01*
X-273631Y-80445D01*
X-272857Y-80832D01*
X-272083Y-81606D01*
X-271696Y-82380D01*
Y-83540D01*
X-272083Y-84314D01*
X-272470Y-84701D01*
X-273631Y-85088D01*
X-275179D01*
X-276340Y-84701D01*
X-276727Y-84314D01*
X-277114Y-83540D01*
Y-83153D01*
X-276727Y-82767D01*
X-276340Y-83153D01*
X-276727Y-83540D01*
X-272470Y-81219D02*
X-272083Y-82380D01*
Y-83540D01*
X-272470Y-84314D01*
X-272857Y-84701D01*
X-273631Y-85088D01*
X-269723Y-76962D02*
X-267014Y-85088D01*
X-269336Y-76962D02*
X-267014Y-83927D01*
X-264305Y-76962D02*
X-267014Y-85088D01*
X-270497Y-76962D02*
X-268175D01*
X-265853D02*
X-263531D01*
X-262100Y-78510D02*
X-261713Y-78897D01*
X-262100Y-79284D01*
X-262487Y-78897D01*
Y-78510D01*
X-262100Y-77736D01*
X-261713Y-77349D01*
X-260552Y-76962D01*
X-259004D01*
X-257843Y-77349D01*
X-257456Y-78123D01*
Y-79284D01*
X-257843Y-80058D01*
X-259004Y-80445D01*
X-260165D01*
X-259004Y-76962D02*
X-258230Y-77349D01*
X-257843Y-78123D01*
Y-79284D01*
X-258230Y-80058D01*
X-259004Y-80445D01*
X-258230Y-80832D01*
X-257456Y-81606D01*
X-257069Y-82380D01*
Y-83540D01*
X-257456Y-84314D01*
X-257843Y-84701D01*
X-259004Y-85088D01*
X-260552D01*
X-261713Y-84701D01*
X-262100Y-84314D01*
X-262487Y-83540D01*
Y-83153D01*
X-262100Y-82767D01*
X-261713Y-83153D01*
X-262100Y-83540D01*
X-257843Y-81219D02*
X-257456Y-82380D01*
Y-83540D01*
X-257843Y-84314D01*
X-258230Y-84701D01*
X-259004Y-85088D01*
X-275566Y67189D02*
X-275179Y67576D01*
X-274792Y67189D01*
X-275179Y66802D01*
X-275566D01*
X-276340Y67189D01*
X-276727Y67576D01*
X-277114Y68737D01*
Y70285D01*
X-276727Y71446D01*
X-275953Y71832D01*
X-274792D01*
X-274018Y71446D01*
X-273631Y70285D01*
Y69124D01*
X-277114Y70285D02*
X-276727Y71059D01*
X-275953Y71446D01*
X-274792D01*
X-274018Y71059D01*
X-273631Y70285D01*
X-273244Y71059D01*
X-272470Y71832D01*
X-271696Y72220D01*
X-270536D01*
X-269762Y71832D01*
X-269375Y71446D01*
X-268988Y70285D01*
Y68737D01*
X-269375Y67576D01*
X-269762Y67189D01*
X-270536Y66802D01*
X-270923D01*
X-271310Y67189D01*
X-270923Y67576D01*
X-270536Y67189D01*
X-272857Y71446D02*
X-271696Y71832D01*
X-270536D01*
X-269762Y71446D01*
X-269375Y71059D01*
X-268988Y70285D01*
X-277114Y74193D02*
X-268988Y76902D01*
X-277114Y74580D02*
X-270149Y76902D01*
X-277114Y79611D02*
X-268988Y76902D01*
X-277114Y73419D02*
Y75741D01*
Y78063D02*
Y80385D01*
X-275566Y81816D02*
X-275179Y82203D01*
X-274792Y81816D01*
X-275179Y81429D01*
X-275566D01*
X-276340Y81816D01*
X-276727Y82203D01*
X-277114Y83364D01*
Y84912D01*
X-276727Y86073D01*
X-275953Y86460D01*
X-274792D01*
X-274018Y86073D01*
X-273631Y84912D01*
Y83751D01*
X-277114Y84912D02*
X-276727Y85686D01*
X-275953Y86073D01*
X-274792D01*
X-274018Y85686D01*
X-273631Y84912D01*
X-273244Y85686D01*
X-272470Y86460D01*
X-271696Y86847D01*
X-270536D01*
X-269762Y86460D01*
X-269375Y86073D01*
X-268988Y84912D01*
Y83364D01*
X-269375Y82203D01*
X-269762Y81816D01*
X-270536Y81429D01*
X-270923D01*
X-271310Y81816D01*
X-270923Y82203D01*
X-270536Y81816D01*
X-272857Y86073D02*
X-271696Y86460D01*
X-270536D01*
X-269762Y86073D01*
X-269375Y85686D01*
X-268988Y84912D01*
M02*
