G04*
G04 #@! TF.GenerationSoftware,Altium Limited,Altium Designer,25.8.1 (18)*
G04*
G04 Layer_Physical_Order=1*
G04 Layer_Color=255*
%FSLAX44Y44*%
%MOMM*%
G71*
G04*
G04 #@! TF.SameCoordinates,BCE08161-644A-4D5C-BD65-52524292B4E2*
G04*
G04*
G04 #@! TF.FilePolarity,Positive*
G04*
G01*
G75*
%ADD13C,0.2540*%
%ADD15R,1.5000X0.6000*%
%ADD16R,1.5000X0.8000*%
%ADD17R,0.8000X0.8000*%
G04:AMPARAMS|DCode=18|XSize=0.55mm|YSize=0.5mm|CornerRadius=0.0625mm|HoleSize=0mm|Usage=FLASHONLY|Rotation=180.000|XOffset=0mm|YOffset=0mm|HoleType=Round|Shape=RoundedRectangle|*
%AMROUNDEDRECTD18*
21,1,0.5500,0.3750,0,0,180.0*
21,1,0.4250,0.5000,0,0,180.0*
1,1,0.1250,-0.2125,0.1875*
1,1,0.1250,0.2125,0.1875*
1,1,0.1250,0.2125,-0.1875*
1,1,0.1250,-0.2125,-0.1875*
%
%ADD18ROUNDEDRECTD18*%
%ADD19R,0.9500X0.8000*%
%ADD20R,0.8000X0.8000*%
G04:AMPARAMS|DCode=21|XSize=1mm|YSize=1mm|CornerRadius=0.5mm|HoleSize=0mm|Usage=FLASHONLY|Rotation=210.000|XOffset=0mm|YOffset=0mm|HoleType=Round|Shape=RoundedRectangle|*
%AMROUNDEDRECTD21*
21,1,1.0000,0.0000,0,0,210.0*
21,1,0.0000,1.0000,0,0,210.0*
1,1,1.0000,0.0000,0.0000*
1,1,1.0000,0.0000,0.0000*
1,1,1.0000,0.0000,0.0000*
1,1,1.0000,0.0000,0.0000*
%
%ADD21ROUNDEDRECTD21*%
G04:AMPARAMS|DCode=22|XSize=1mm|YSize=1mm|CornerRadius=0.5mm|HoleSize=0mm|Usage=FLASHONLY|Rotation=90.000|XOffset=0mm|YOffset=0mm|HoleType=Round|Shape=RoundedRectangle|*
%AMROUNDEDRECTD22*
21,1,1.0000,0.0000,0,0,90.0*
21,1,0.0000,1.0000,0,0,90.0*
1,1,1.0000,0.0000,0.0000*
1,1,1.0000,0.0000,0.0000*
1,1,1.0000,0.0000,0.0000*
1,1,1.0000,0.0000,0.0000*
%
%ADD22ROUNDEDRECTD22*%
G04:AMPARAMS|DCode=23|XSize=1mm|YSize=1mm|CornerRadius=0.5mm|HoleSize=0mm|Usage=FLASHONLY|Rotation=150.000|XOffset=0mm|YOffset=0mm|HoleType=Round|Shape=RoundedRectangle|*
%AMROUNDEDRECTD23*
21,1,1.0000,0.0000,0,0,150.0*
21,1,0.0000,1.0000,0,0,150.0*
1,1,1.0000,0.0000,0.0000*
1,1,1.0000,0.0000,0.0000*
1,1,1.0000,0.0000,0.0000*
1,1,1.0000,0.0000,0.0000*
%
%ADD23ROUNDEDRECTD23*%
G04:AMPARAMS|DCode=24|XSize=0.55mm|YSize=0.5mm|CornerRadius=0.0625mm|HoleSize=0mm|Usage=FLASHONLY|Rotation=90.000|XOffset=0mm|YOffset=0mm|HoleType=Round|Shape=RoundedRectangle|*
%AMROUNDEDRECTD24*
21,1,0.5500,0.3750,0,0,90.0*
21,1,0.4250,0.5000,0,0,90.0*
1,1,0.1250,0.1875,0.2125*
1,1,0.1250,0.1875,-0.2125*
1,1,0.1250,-0.1875,-0.2125*
1,1,0.1250,-0.1875,0.2125*
%
%ADD24ROUNDEDRECTD24*%
%ADD34C,1.5700*%
%ADD35R,1.5700X1.5700*%
%ADD37C,0.3048*%
%ADD38C,0.3048*%
%ADD39C,0.2794*%
%ADD40C,0.1524*%
%ADD41C,0.5588*%
G36*
X-136089Y164387D02*
X-136883Y162923D01*
X-138966Y160324D01*
X-141478Y158138D01*
X-144339Y156435D01*
X-147458Y155268D01*
X-150735Y154675D01*
X-154065D01*
X-157342Y155268D01*
X-160461Y156435D01*
X-163322Y158138D01*
X-165834Y160324D01*
X-167917Y162923D01*
X-168711Y164387D01*
X-168710Y164387D01*
X-152400Y173778D01*
X-136089Y164387D01*
D02*
G37*
G36*
X163670Y163521D02*
X162877Y162057D01*
X160794Y159459D01*
X158282Y157273D01*
X155421Y155569D01*
X152302Y154402D01*
X149025Y153809D01*
X145695D01*
X142418Y154402D01*
X139299Y155569D01*
X136438Y157273D01*
X133925Y159459D01*
X131843Y162057D01*
X131049Y163521D01*
X131049Y163521D01*
X147360Y172912D01*
X163670Y163521D01*
D02*
G37*
G36*
X-53382Y116601D02*
X-54443Y114685D01*
X-57145Y111236D01*
X-60359Y108258D01*
X-64004Y105827D01*
X-67987Y104003D01*
X-72209Y102831D01*
X-76563Y102343D01*
X-80940Y102550D01*
X-85228Y103447D01*
X-89321Y105010D01*
X-93115Y107202D01*
X-96514Y109967D01*
X-99432Y113234D01*
X-101798Y116923D01*
X-103549Y120939D01*
X-104643Y125181D01*
X-105052Y129543D01*
X-104766Y133915D01*
X-103791Y138187D01*
X-102153Y142250D01*
X-101023Y144127D01*
X-101023D01*
X-53382Y116601D01*
D02*
G37*
G36*
X-202692Y142205D02*
X-201056Y138140D01*
X-200084Y133868D01*
X-199801Y129496D01*
X-200212Y125134D01*
X-201309Y120892D01*
X-203063Y116877D01*
X-205431Y113190D01*
X-208351Y109925D01*
X-211752Y107162D01*
X-215547Y104973D01*
X-219641Y103411D01*
X-223930Y102517D01*
X-228307Y102313D01*
X-232660Y102804D01*
X-236882Y103978D01*
X-240864Y105805D01*
X-244507Y108239D01*
X-247719Y111219D01*
X-250419Y114669D01*
X-251479Y116586D01*
X-251479Y116586D01*
X-203821Y144082D01*
X-202692Y142205D01*
D02*
G37*
G36*
X298130Y86890D02*
X298152Y68069D01*
X296488Y68025D01*
X293196Y68529D01*
X290047Y69612D01*
X287141Y71238D01*
X284571Y73355D01*
X282419Y75897D01*
X280753Y78781D01*
X279629Y81915D01*
X279080Y85200D01*
X279125Y88529D01*
X279762Y91798D01*
X280971Y94901D01*
X281842Y96320D01*
X281842D01*
X298130Y86890D01*
D02*
G37*
G36*
X-285738Y94901D02*
X-284529Y91798D01*
X-283892Y88529D01*
X-283847Y85200D01*
X-284396Y81915D01*
X-285521Y78781D01*
X-287186Y75897D01*
X-289338Y73355D01*
X-291908Y71238D01*
X-294814Y69612D01*
X-297964Y68529D01*
X-301255Y68025D01*
X-302920Y68069D01*
Y68069D01*
X-302897Y86890D01*
X-286609Y96320D01*
X-285738Y94901D01*
D02*
G37*
G36*
X-2400Y87176D02*
X14278Y96781D01*
X15189Y95288D01*
X16452Y92025D01*
X17114Y88590D01*
X17155Y85092D01*
X16573Y81642D01*
X15387Y78351D01*
X13634Y75323D01*
X11371Y72655D01*
X8669Y70432D01*
X5615Y68726D01*
X2306Y67589D01*
X-1152Y67059D01*
X-2400Y67093D01*
X-3649Y67059D01*
X-7107Y67589D01*
X-10416Y68726D01*
X-13470Y70432D01*
X-16171Y72655D01*
X-18435Y75323D01*
X-20187Y78351D01*
X-21374Y81642D01*
X-21956Y85092D01*
X-21915Y88590D01*
X-21253Y92025D01*
X-19990Y95288D01*
X-19079Y96781D01*
Y96781D01*
X-2400Y87176D01*
D02*
G37*
G36*
X-296410Y26904D02*
X-292224Y25609D01*
X-288296Y23669D01*
X-284724Y21131D01*
X-281599Y18060D01*
X-278999Y14534D01*
X-276990Y10640D01*
X-275622Y6478D01*
X-274930Y2152D01*
X-274932Y-2230D01*
X-275626Y-6556D01*
X-276997Y-10717D01*
X-279008Y-14609D01*
X-281610Y-18134D01*
X-284737Y-21203D01*
X-288311Y-23738D01*
X-292240Y-25676D01*
X-296427Y-26968D01*
X-300765Y-27581D01*
X-302955Y-27541D01*
Y-27541D01*
X-302938Y27480D01*
X-300748Y27520D01*
X-296410Y26904D01*
D02*
G37*
G36*
X2306Y-67589D02*
X5615Y-68726D01*
X8669Y-70432D01*
X11371Y-72655D01*
X13634Y-75323D01*
X15387Y-78351D01*
X16573Y-81642D01*
X17155Y-85092D01*
X17114Y-88590D01*
X16452Y-92025D01*
X15189Y-95288D01*
X14278Y-96781D01*
X-2400Y-87176D01*
X-19079Y-96781D01*
X-19990Y-95288D01*
X-21253Y-92025D01*
X-21915Y-88590D01*
X-21956Y-85092D01*
X-21374Y-81642D01*
X-20187Y-78351D01*
X-18435Y-75323D01*
X-16171Y-72655D01*
X-13470Y-70432D01*
X-10416Y-68726D01*
X-7107Y-67589D01*
X-3649Y-67059D01*
X-2400Y-67093D01*
X-1152Y-67059D01*
X2306Y-67589D01*
D02*
G37*
G36*
X298152Y-68069D02*
X298152Y-68069D01*
X298130Y-86890D01*
X281842Y-96320D01*
X280971Y-94901D01*
X279762Y-91798D01*
X279125Y-88529D01*
X279080Y-85200D01*
X279629Y-81915D01*
X280753Y-78781D01*
X282419Y-75897D01*
X284571Y-73355D01*
X287141Y-71238D01*
X290047Y-69612D01*
X293196Y-68529D01*
X296488Y-68025D01*
X298152Y-68069D01*
D02*
G37*
G36*
X-297964Y-68529D02*
X-294814Y-69612D01*
X-291908Y-71238D01*
X-289338Y-73355D01*
X-287186Y-75897D01*
X-285521Y-78781D01*
X-284396Y-81915D01*
X-283847Y-85200D01*
X-283892Y-88529D01*
X-284529Y-91798D01*
X-285738Y-94901D01*
X-286609Y-96320D01*
X-286609Y-96320D01*
X-302897Y-86890D01*
X-302920Y-68069D01*
X-301255Y-68025D01*
X-297964Y-68529D01*
D02*
G37*
G36*
X14278Y-96781D02*
X14278D01*
D01*
X14278D01*
D02*
G37*
G36*
X-72140Y-102804D02*
X-67918Y-103978D01*
X-63936Y-105805D01*
X-60293Y-108239D01*
X-57081Y-111219D01*
X-54381Y-114669D01*
X-53321Y-116586D01*
X-100979Y-144082D01*
X-102108Y-142205D01*
X-103744Y-138140D01*
X-104716Y-133868D01*
X-105000Y-129496D01*
X-104588Y-125134D01*
X-103491Y-120892D01*
X-101737Y-116877D01*
X-99369Y-113190D01*
X-96449Y-109925D01*
X-93048Y-107162D01*
X-89253Y-104973D01*
X-85159Y-103411D01*
X-80870Y-102517D01*
X-76493Y-102313D01*
X-72140Y-102804D01*
D02*
G37*
G36*
X-223860Y-102550D02*
X-219572Y-103447D01*
X-215479Y-105011D01*
X-211685Y-107202D01*
X-208286Y-109967D01*
X-205368Y-113234D01*
X-203002Y-116923D01*
X-201251Y-120939D01*
X-200157Y-125181D01*
X-199748Y-129543D01*
X-200034Y-133915D01*
X-201009Y-138187D01*
X-202647Y-142250D01*
X-203777Y-144127D01*
Y-144127D01*
X-251418Y-116601D01*
X-250357Y-114685D01*
X-247655Y-111236D01*
X-244441Y-108259D01*
X-240796Y-105827D01*
X-236813Y-104003D01*
X-232591Y-102831D01*
X-228237Y-102343D01*
X-223860Y-102550D01*
D02*
G37*
G36*
X152541Y-155268D02*
X155660Y-156435D01*
X158522Y-158139D01*
X161034Y-160324D01*
X163116Y-162923D01*
X163910Y-164387D01*
X147599Y-173778D01*
X131289Y-164387D01*
X132082Y-162923D01*
X134165Y-160324D01*
X136677Y-158139D01*
X139538Y-156435D01*
X142657Y-155268D01*
X145934Y-154675D01*
X149264D01*
X152541Y-155268D01*
D02*
G37*
G36*
X-147458D02*
X-144339Y-156435D01*
X-141478Y-158139D01*
X-138966Y-160324D01*
X-136883Y-162923D01*
X-136089Y-164387D01*
X-152400Y-173778D01*
X-168711Y-164387D01*
X-167917Y-162923D01*
X-165834Y-160324D01*
X-163322Y-158139D01*
X-160461Y-156435D01*
X-157342Y-155268D01*
X-154065Y-154675D01*
X-150735D01*
X-147458Y-155268D01*
D02*
G37*
D13*
X235197Y-27996D02*
X235268Y-28068D01*
X253260D01*
X255754Y-25574D01*
Y-16418D01*
X255754Y-9772D02*
X259530Y-5996D01*
X255754Y-16418D02*
Y-9772D01*
X259530Y-5996D02*
X272444D01*
X255754Y-16418D02*
X255754Y-16418D01*
D15*
X272444Y14004D02*
D03*
X244444Y19004D02*
D03*
X272444Y24004D02*
D03*
X244444Y-996D02*
D03*
X272444Y-15996D02*
D03*
X244444Y-10996D02*
D03*
X272444Y-5996D02*
D03*
Y4004D02*
D03*
Y-25996D02*
D03*
X244444Y9004D02*
D03*
Y29004D02*
D03*
Y-20996D02*
D03*
D16*
Y-35996D02*
D03*
X272444D02*
D03*
X244444Y39004D02*
D03*
X272444D02*
D03*
D17*
X166954Y44699D02*
D03*
X157454Y24499D02*
D03*
X176454D02*
D03*
D18*
X137914Y68238D02*
D03*
Y59238D02*
D03*
D19*
X59454Y-91466D02*
D03*
Y-103966D02*
D03*
D20*
X128906Y-120936D02*
D03*
Y-135936D02*
D03*
D21*
X-223901Y-123901D02*
D03*
X-80899Y123901D02*
D03*
X290700Y82601D02*
D03*
X-295468Y-82601D02*
D03*
D22*
X-223901Y123901D02*
D03*
X-80899Y-123901D02*
D03*
X-1679Y77521D02*
D03*
X147360Y164334D02*
D03*
X147599Y-165199D02*
D03*
X-152400Y165199D02*
D03*
X-1679Y-77521D02*
D03*
X-152400Y-165199D02*
D03*
D23*
X-295501Y0D02*
D03*
X290700Y-82601D02*
D03*
X-295468Y82601D02*
D03*
D24*
X213992Y50162D02*
D03*
X204992D02*
D03*
D34*
X-108837Y-53317D02*
D03*
Y-27917D02*
D03*
D35*
Y-2517D02*
D03*
D37*
X290829Y83477D02*
D03*
Y-83477D02*
D03*
D38*
X289937Y85632D02*
X289936Y85633D01*
X289936Y-85633D02*
X289937Y-85632D01*
X-263721Y23479D02*
X-82746D01*
X-249419Y70628D02*
X-209129Y30337D01*
X60398D01*
X-274198Y33956D02*
X-263721Y23479D01*
X42920Y42205D02*
X47444Y37681D01*
X49997D02*
X50483Y37195D01*
X42920Y42205D02*
Y42205D01*
X47444Y37681D02*
X49997D01*
X39264Y45861D02*
X42920Y42205D01*
X36528Y45861D02*
X39264D01*
X36446Y45860D02*
X36528Y45861D01*
X-49754Y43523D02*
X36446Y45860D01*
X-152400Y159705D02*
X-50103Y57407D01*
X47609D01*
X3137Y62995D02*
X3611D01*
X44768Y50549D02*
X80415Y29451D01*
X3611Y62995D02*
X67725Y62995D01*
X82200Y-1886D02*
Y27665D01*
X68500Y62469D02*
X80241Y54502D01*
X47609Y57407D02*
X78969Y44329D01*
X80415Y29451D02*
X82200Y27665D01*
X67725Y62995D02*
X68500Y62469D01*
X78969Y44329D02*
X93761Y44261D01*
X33370Y80040D02*
X64138Y80040D01*
X97977Y54421D01*
X147360Y77434D02*
Y162962D01*
Y164334D01*
X-46031Y62995D02*
X3137D01*
X-80899Y97864D02*
X-46031Y62995D01*
X-80899Y97864D02*
Y123901D01*
X-88799Y81222D02*
X-51992Y44414D01*
X-51100Y43523D01*
X-88799Y81222D02*
Y81222D01*
X-51100Y43523D02*
X-49754Y43523D01*
X142256Y-120936D02*
X235197Y-27996D01*
X128906Y-120936D02*
X142256D01*
X261045Y-41845D02*
X264467Y-45266D01*
X264467Y-17726D02*
X271000D01*
X247232Y-66026D02*
X264467Y-48791D01*
Y-45266D01*
X230458Y-75087D02*
X240144Y-84774D01*
X230458Y-50933D02*
X246644Y-34747D01*
X230458Y-75087D02*
Y-50933D01*
X157475Y38489D02*
Y64903D01*
Y38489D02*
X169775Y26189D01*
X157475Y64903D02*
X180530Y87958D01*
X235306Y9004D02*
X235306D01*
X116862Y-25707D02*
X121235Y-21334D01*
X116175Y-25707D02*
X116862D01*
X121235Y-21334D02*
X124374D01*
X144713Y-996D01*
X243211Y30253D02*
Y39004D01*
X236467Y27274D02*
X247500D01*
X177318Y25363D02*
X178622Y24059D01*
X45543Y-46699D02*
X62113Y-30128D01*
X128610Y15012D02*
X187592D01*
X62113Y-30128D02*
X83470D01*
X128610Y15012D01*
X244444Y9004D02*
X261197D01*
X238197D02*
X244444D01*
X272444Y4004D02*
X273457Y2991D01*
X270968Y5480D02*
X272444Y4004D01*
X235306Y9004D02*
X235306Y9004D01*
X232880Y11431D02*
X235306Y9004D01*
X219315D02*
X235306D01*
X283129Y-36532D02*
Y-25372D01*
Y-50436D02*
Y-36532D01*
X55869Y-57231D02*
X174014D01*
X210249Y-20996D01*
X-193749Y-1444D02*
X-177125Y15180D01*
X-76962D01*
X-276018Y33956D02*
X-274198D01*
X-295468Y-46718D02*
X-257660Y-8911D01*
X-295468Y-82601D02*
Y-46718D01*
X-290353Y-1330D02*
X-290240Y-1444D01*
X-295501Y0D02*
X-294171Y-1330D01*
X-290240Y-1444D02*
X-193749D01*
X-294171Y-1330D02*
X-290353D01*
X273067Y-25372D02*
X283129D01*
X284538Y-23963D01*
X290700Y-82601D02*
Y14461D01*
X282300Y2991D02*
X284538Y753D01*
Y-23963D02*
Y753D01*
X272444Y-25996D02*
X273067Y-25372D01*
X273457Y2991D02*
X282300D01*
X282730Y-36134D02*
X283129Y-36532D01*
X272444Y-35996D02*
X272582Y-36134D01*
X282730D01*
X279867Y23817D02*
X281543D01*
X285112Y27387D01*
X272444Y14004D02*
X272900Y14461D01*
X264273Y15928D02*
X272444D01*
X272900Y14461D02*
X290700D01*
X261197Y9004D02*
X264721Y5480D01*
X270968D01*
X261197Y19004D02*
X264273Y15928D01*
X210249Y-20996D02*
X244444D01*
Y19004D02*
X261197D01*
X235306Y9004D02*
X238197D01*
X232880Y11431D02*
Y23688D01*
X213308Y15012D02*
X219315Y9004D01*
X232880Y23688D02*
X236467Y27274D01*
X244444Y39004D02*
X272444D01*
X280042Y50162D02*
X285112Y45091D01*
X213992Y50162D02*
X280042D01*
X166954Y44699D02*
X199779D01*
X204992Y49912D01*
X174763Y26189D02*
X176454Y24499D01*
X169775Y26189D02*
X174763D01*
X187592Y15012D02*
Y19708D01*
X178622Y24059D02*
X183241D01*
X187592Y15012D02*
X213308D01*
X183241Y24059D02*
X187592Y19708D01*
X145046Y24499D02*
X157454D01*
X126954Y42591D02*
X145046Y24499D01*
X137158Y58483D02*
X137914Y59238D01*
X126954Y42591D02*
X127440Y43077D01*
X137158Y54740D02*
Y58483D01*
X127440Y45021D02*
X137158Y54740D01*
X127440Y43077D02*
Y45021D01*
X138163Y68238D02*
X147360Y77434D01*
X143064Y162057D02*
X144979Y163971D01*
X145988Y162962D02*
X147360Y164334D01*
X290700Y82601D02*
X290829Y82730D01*
X147360Y164334D02*
X153828D01*
X102699Y44261D02*
X103650Y45212D01*
X116794Y59861D01*
X93761Y44261D02*
X102699Y44261D01*
X116794Y59861D02*
Y81304D01*
X105524Y92574D02*
X116794Y81304D01*
X9009Y88209D02*
X16570Y92574D01*
X16570Y92574D01*
X9009Y88209D02*
X9009Y88209D01*
X16570Y92574D02*
X105524D01*
X16570D02*
X136919Y162057D01*
X143064D01*
X-1679Y77521D02*
X9009Y88209D01*
X201456Y-10682D02*
X201613Y-10839D01*
X244887D02*
X245072Y-10654D01*
X201613Y-10839D02*
X244887D01*
X144713Y-996D02*
X244444D01*
X45543Y-60340D02*
Y-46699D01*
X59454Y-91466D02*
Y-74251D01*
X45543Y-60340D02*
X59454Y-74251D01*
X24187Y-64760D02*
X50894Y-91466D01*
X59454D01*
X24139Y-64712D02*
X24187Y-64760D01*
X-133765Y-90730D02*
X-98921D01*
X-68590Y-60399D01*
X-67270D01*
X23294Y-63867D02*
X24139Y-64712D01*
X-67270Y-60399D02*
X23294Y-63867D01*
X-157333Y-99975D02*
X-141147Y-83788D01*
X-174615Y-99975D02*
X-157333D01*
X-145885Y-102851D02*
X-133765Y-90730D01*
X-104144Y-83788D02*
X-46032Y-25677D01*
X-141147Y-83788D02*
X-104144D01*
X-111136Y-74291D02*
X-62522Y-25677D01*
X-199291Y-74291D02*
X-111136D01*
X-99485Y-51332D02*
X-98620Y-50467D01*
X-96033Y-46487D02*
X-76492Y-16420D01*
X-108837Y-53317D02*
X-99485Y-51332D01*
X-98620Y-50467D02*
X-96033Y-46487D01*
X67667Y-16420D02*
X82200Y-1886D01*
X-76492Y-16420D02*
X67667D01*
X-46032Y-25677D02*
X-44516D01*
X128906Y-120936D02*
X129850Y-119993D01*
Y-85476D01*
X129850Y-85476D01*
X153828Y164334D02*
X289653Y85916D01*
X290829Y83477D02*
Y84740D01*
X289937Y85632D02*
X290829Y84740D01*
X289653Y85916D02*
X289936Y85633D01*
X290829Y82730D02*
Y83477D01*
X290700Y15928D02*
Y79700D01*
Y14461D02*
Y15928D01*
X285112Y27387D02*
Y45091D01*
X240144Y-84774D02*
X249772D01*
X274979Y-59567D01*
Y-38384D01*
X290700Y-82601D02*
X290829Y-82730D01*
Y-83477D02*
Y-82730D01*
X289937Y-85632D02*
X290829Y-84740D01*
X149998Y-165842D02*
X151216D01*
X289653Y-85916D02*
X289936Y-85633D01*
X147599Y-165199D02*
X149998Y-165842D01*
X290829Y-84740D02*
Y-83477D01*
X151216Y-165842D02*
X289653Y-85916D01*
X-151507Y-133566D02*
X-151182Y-133242D01*
X-46420Y-77521D01*
X-1679Y-77521D01*
X-152400Y-134459D02*
X-151507Y-133566D01*
X-152400Y-142828D02*
Y-134459D01*
X7273Y-86473D02*
X7557Y-86757D01*
X126430Y-133460D02*
X128906Y-135936D01*
X7557Y-86757D02*
X143425Y-165199D01*
X-1679Y-77521D02*
X7273Y-86473D01*
X143425Y-165199D02*
X147599D01*
X70679Y-103525D02*
X126430Y-133460D01*
X60477Y-103525D02*
X70679D01*
X-52194Y-95196D02*
X-35662D01*
X-80899Y-123901D02*
X-52194Y-95196D01*
X-152400Y-165199D02*
Y-163772D01*
Y-142828D01*
X-214055Y-82601D02*
X-153827Y-142828D01*
Y-163772D02*
Y-142828D01*
X-295468Y-82601D02*
X-214055D01*
X-223901Y-123901D02*
X-223901D01*
X-252252Y-95550D02*
Y-94873D01*
Y-95550D02*
X-223901Y-123901D01*
X-295468Y82601D02*
X-174305D01*
X-152400Y104506D02*
Y159705D01*
X-174305Y82601D02*
X-152400Y104506D01*
X-193345Y123901D02*
X-169298Y99854D01*
X-223901Y123901D02*
X-193345D01*
X290700Y79700D02*
X293289Y82288D01*
X-152400Y159705D02*
Y165199D01*
X180530Y87958D02*
Y90450D01*
X-153827Y-163772D02*
X-152400Y-165199D01*
X137914Y68238D02*
X138163D01*
X291013Y82288D02*
X293289D01*
X290700Y82601D02*
X291013Y82288D01*
X204992Y49912D02*
Y50162D01*
D39*
X261007Y-41627D02*
X261045Y-41665D01*
Y-41845D02*
Y-41665D01*
X261007Y-41627D02*
Y-21365D01*
X261045Y-21327D01*
Y-21147D02*
X264467Y-17726D01*
X261045Y-21327D02*
Y-21147D01*
D40*
X271000Y-17726D02*
X273737Y-14989D01*
D41*
X-82746Y23479D02*
D03*
X50483Y37195D02*
D03*
X44768Y50549D02*
D03*
X116175Y-25707D02*
D03*
X60947Y30328D02*
D03*
X83470Y-30128D02*
D03*
X55869Y-57231D02*
D03*
X-76962Y15180D02*
D03*
X-257660Y-8911D02*
D03*
X244830Y-65804D02*
D03*
X33370Y80040D02*
D03*
X201456Y-10682D02*
D03*
X-62522Y-25677D02*
D03*
X-44516D02*
D03*
X80241Y54502D02*
D03*
X97977Y54421D02*
D03*
X-249419Y70628D02*
D03*
X-88799Y81222D02*
D03*
X-169298Y99854D02*
D03*
X-199291Y-74291D02*
D03*
X-252252Y-94873D02*
D03*
X-174615Y-99975D02*
D03*
X126954Y42591D02*
D03*
X180530Y90450D02*
D03*
X283129Y-50436D02*
D03*
X-146602Y-103612D02*
D03*
X129850Y-85476D02*
D03*
X-276018Y33956D02*
D03*
X-36857Y-95063D02*
D03*
M02*
