G04*
G04 #@! TF.GenerationSoftware,Altium Limited,Altium Designer,25.8.1 (18)*
G04*
G04 Layer_Color=32896*
%FSLAX44Y44*%
%MOMM*%
G71*
G04*
G04 #@! TF.SameCoordinates,BCE08161-644A-4D5C-BD65-52524292B4E2*
G04*
G04*
G04 #@! TF.FilePolarity,Positive*
G04*
G01*
G75*
%ADD10C,0.2000*%
%ADD11C,0.2500*%
%ADD13C,0.2540*%
%ADD14C,0.0762*%
%ADD40C,0.1524*%
%ADD56C,0.1000*%
%ADD57C,0.0800*%
G36*
X103199Y101870D02*
X103281Y101750D01*
X103379Y101630D01*
X103469Y101524D01*
X103560Y101434D01*
X103627Y101359D01*
X103657Y101336D01*
X103680Y101314D01*
X103687Y101306D01*
X103695Y101299D01*
X103853Y101171D01*
X104011Y101051D01*
X104161Y100946D01*
X104311Y100863D01*
X104439Y100788D01*
X104492Y100758D01*
X104537Y100735D01*
X104574Y100712D01*
X104605Y100705D01*
X104620Y100690D01*
X104627D01*
Y100073D01*
X104514Y100119D01*
X104402Y100171D01*
X104289Y100224D01*
X104184Y100276D01*
X104093Y100322D01*
X104018Y100359D01*
X103973Y100389D01*
X103966Y100397D01*
X103958D01*
X103823Y100479D01*
X103702Y100562D01*
X103597Y100637D01*
X103514Y100705D01*
X103439Y100758D01*
X103394Y100803D01*
X103357Y100833D01*
X103349Y100840D01*
Y96773D01*
X102710D01*
Y101998D01*
X103123D01*
X103199Y101870D01*
D02*
G37*
G36*
X108228Y99464D02*
X110236Y96773D01*
X109409D01*
X108093Y98577D01*
X108063Y98622D01*
X108025Y98675D01*
X107943Y98795D01*
X107905Y98855D01*
X107875Y98900D01*
X107852Y98931D01*
X107845Y98938D01*
X107770Y98825D01*
X107702Y98720D01*
X107672Y98682D01*
X107657Y98652D01*
X107642Y98630D01*
X107634Y98622D01*
X106319Y96773D01*
X105469D01*
X107416Y99494D01*
X105612Y101976D01*
X106364D01*
X107401Y100592D01*
X107492Y100479D01*
X107567Y100374D01*
X107642Y100269D01*
X107702Y100186D01*
X107755Y100111D01*
X107792Y100051D01*
X107815Y100021D01*
X107822Y100006D01*
X107875Y100096D01*
X107935Y100194D01*
X108003Y100299D01*
X108070Y100404D01*
X108138Y100494D01*
X108183Y100570D01*
X108206Y100600D01*
X108221Y100622D01*
X108236Y100630D01*
Y100637D01*
X109183Y101976D01*
X110003D01*
X108228Y99464D01*
D02*
G37*
G36*
X-35670Y669D02*
X-35798Y593D01*
X-35918Y511D01*
X-36038Y413D01*
X-36144Y323D01*
X-36234Y233D01*
X-36309Y165D01*
X-36332Y135D01*
X-36354Y112D01*
X-36362Y105D01*
X-36369Y97D01*
X-36497Y-61D01*
X-36617Y-218D01*
X-36723Y-369D01*
X-36805Y-519D01*
X-36880Y-647D01*
X-36911Y-700D01*
X-36933Y-745D01*
X-36956Y-782D01*
X-36963Y-812D01*
X-36978Y-827D01*
Y-835D01*
X-37595D01*
X-37550Y-722D01*
X-37497Y-609D01*
X-37444Y-497D01*
X-37392Y-391D01*
X-37346Y-301D01*
X-37309Y-226D01*
X-37279Y-181D01*
X-37271Y-173D01*
Y-166D01*
X-37189Y-30D01*
X-37106Y90D01*
X-37031Y195D01*
X-36963Y278D01*
X-36911Y353D01*
X-36865Y398D01*
X-36835Y436D01*
X-36828Y443D01*
X-40895D01*
Y1082D01*
X-35670D01*
Y669D01*
D02*
G37*
G36*
X-35693Y-2903D02*
X-38700D01*
X-38873D01*
X-39038Y-2918D01*
X-39181Y-2933D01*
X-39316Y-2955D01*
X-39437Y-2978D01*
X-39549Y-3008D01*
X-39647Y-3030D01*
X-39730Y-3060D01*
X-39797Y-3090D01*
X-39865Y-3121D01*
X-39910Y-3151D01*
X-39955Y-3173D01*
X-39985Y-3196D01*
X-40008Y-3211D01*
X-40016Y-3218D01*
X-40023Y-3226D01*
X-40083Y-3293D01*
X-40136Y-3369D01*
X-40219Y-3534D01*
X-40279Y-3707D01*
X-40316Y-3887D01*
X-40346Y-4053D01*
X-40354Y-4121D01*
Y-4188D01*
X-40361Y-4233D01*
Y-4308D01*
X-40354Y-4466D01*
X-40331Y-4609D01*
X-40309Y-4744D01*
X-40271Y-4850D01*
X-40241Y-4940D01*
X-40219Y-5008D01*
X-40196Y-5045D01*
X-40188Y-5060D01*
X-40121Y-5166D01*
X-40038Y-5256D01*
X-39955Y-5331D01*
X-39880Y-5384D01*
X-39805Y-5429D01*
X-39752Y-5466D01*
X-39715Y-5481D01*
X-39700Y-5489D01*
X-39632Y-5511D01*
X-39564Y-5526D01*
X-39407Y-5556D01*
X-39241Y-5579D01*
X-39076Y-5594D01*
X-38933Y-5602D01*
X-38865D01*
X-38813Y-5609D01*
X-38767D01*
X-38730D01*
X-38707D01*
X-38700D01*
X-35693D01*
Y-6301D01*
X-38700D01*
X-38850D01*
X-38993Y-6293D01*
X-39128Y-6286D01*
X-39256Y-6271D01*
X-39369Y-6256D01*
X-39474Y-6241D01*
X-39572Y-6218D01*
X-39662Y-6203D01*
X-39745Y-6188D01*
X-39813Y-6166D01*
X-39873Y-6151D01*
X-39918Y-6135D01*
X-39955Y-6120D01*
X-39985Y-6113D01*
X-40001Y-6105D01*
X-40008D01*
X-40174Y-6023D01*
X-40324Y-5917D01*
X-40444Y-5812D01*
X-40549Y-5699D01*
X-40632Y-5602D01*
X-40692Y-5519D01*
X-40707Y-5489D01*
X-40722Y-5466D01*
X-40737Y-5451D01*
Y-5444D01*
X-40820Y-5256D01*
X-40880Y-5060D01*
X-40925Y-4857D01*
X-40955Y-4669D01*
X-40963Y-4587D01*
X-40970Y-4504D01*
X-40978Y-4429D01*
Y-4369D01*
X-40985Y-4316D01*
Y-4248D01*
X-40970Y-3978D01*
X-40955Y-3857D01*
X-40940Y-3745D01*
X-40918Y-3632D01*
X-40895Y-3534D01*
X-40873Y-3444D01*
X-40843Y-3361D01*
X-40813Y-3286D01*
X-40790Y-3226D01*
X-40767Y-3166D01*
X-40745Y-3121D01*
X-40722Y-3083D01*
X-40715Y-3060D01*
X-40700Y-3045D01*
Y-3038D01*
X-40587Y-2872D01*
X-40459Y-2737D01*
X-40339Y-2632D01*
X-40219Y-2542D01*
X-40113Y-2474D01*
X-40031Y-2429D01*
X-40001Y-2414D01*
X-39978Y-2399D01*
X-39963Y-2391D01*
X-39955D01*
X-39865Y-2361D01*
X-39767Y-2331D01*
X-39564Y-2286D01*
X-39354Y-2256D01*
X-39151Y-2233D01*
X-39061Y-2226D01*
X-38970Y-2218D01*
X-38895D01*
X-38828Y-2211D01*
X-38775D01*
X-38737D01*
X-38707D01*
X-38700D01*
X-35693D01*
Y-2903D01*
D02*
G37*
G36*
X-230339Y66466D02*
X-230211Y66458D01*
X-230091Y66435D01*
X-229978Y66413D01*
X-229873Y66383D01*
X-229775Y66353D01*
X-229685Y66315D01*
X-229602Y66278D01*
X-229527Y66240D01*
X-229467Y66202D01*
X-229414Y66172D01*
X-229369Y66142D01*
X-229331Y66120D01*
X-229309Y66097D01*
X-229294Y66090D01*
X-229286Y66082D01*
X-229211Y66007D01*
X-229144Y65924D01*
X-229076Y65834D01*
X-229023Y65744D01*
X-228933Y65563D01*
X-228873Y65383D01*
X-228850Y65300D01*
X-228828Y65217D01*
X-228813Y65150D01*
X-228798Y65090D01*
X-228790Y65037D01*
Y64999D01*
X-228783Y64977D01*
Y64969D01*
X-229437Y64902D01*
X-229452Y65075D01*
X-229482Y65225D01*
X-229527Y65360D01*
X-229580Y65466D01*
X-229625Y65556D01*
X-229670Y65616D01*
X-229700Y65654D01*
X-229715Y65669D01*
X-229828Y65759D01*
X-229948Y65827D01*
X-230076Y65879D01*
X-230189Y65909D01*
X-230294Y65932D01*
X-230384Y65939D01*
X-230414Y65947D01*
X-230459D01*
X-230617Y65939D01*
X-230760Y65909D01*
X-230880Y65864D01*
X-230986Y65819D01*
X-231068Y65766D01*
X-231121Y65729D01*
X-231159Y65699D01*
X-231173Y65684D01*
X-231264Y65578D01*
X-231331Y65473D01*
X-231384Y65368D01*
X-231414Y65263D01*
X-231437Y65180D01*
X-231444Y65105D01*
X-231452Y65060D01*
Y65052D01*
Y65045D01*
X-231437Y64909D01*
X-231407Y64766D01*
X-231354Y64639D01*
X-231301Y64518D01*
X-231241Y64420D01*
X-231189Y64338D01*
X-231173Y64308D01*
X-231159Y64285D01*
X-231143Y64278D01*
Y64270D01*
X-231083Y64187D01*
X-231008Y64105D01*
X-230925Y64015D01*
X-230835Y63924D01*
X-230647Y63744D01*
X-230459Y63563D01*
X-230361Y63481D01*
X-230279Y63406D01*
X-230196Y63338D01*
X-230128Y63278D01*
X-230076Y63233D01*
X-230031Y63195D01*
X-230001Y63172D01*
X-229993Y63165D01*
X-229805Y63007D01*
X-229632Y62857D01*
X-229489Y62721D01*
X-229377Y62609D01*
X-229279Y62511D01*
X-229211Y62443D01*
X-229174Y62398D01*
X-229159Y62391D01*
Y62383D01*
X-229053Y62255D01*
X-228971Y62135D01*
X-228895Y62015D01*
X-228835Y61909D01*
X-228790Y61819D01*
X-228760Y61751D01*
X-228745Y61706D01*
X-228738Y61699D01*
Y61691D01*
X-228708Y61609D01*
X-228692Y61533D01*
X-228677Y61458D01*
X-228670Y61391D01*
X-228662Y61330D01*
Y61285D01*
Y61255D01*
Y61248D01*
X-232113D01*
Y61864D01*
X-229550D01*
X-229640Y61992D01*
X-229685Y62045D01*
X-229722Y62097D01*
X-229760Y62143D01*
X-229790Y62172D01*
X-229813Y62195D01*
X-229820Y62203D01*
X-229858Y62240D01*
X-229903Y62278D01*
X-230008Y62375D01*
X-230128Y62488D01*
X-230256Y62601D01*
X-230377Y62699D01*
X-230429Y62744D01*
X-230474Y62789D01*
X-230512Y62819D01*
X-230542Y62842D01*
X-230557Y62857D01*
X-230564Y62864D01*
X-230685Y62969D01*
X-230805Y63067D01*
X-230910Y63165D01*
X-231008Y63248D01*
X-231098Y63330D01*
X-231173Y63406D01*
X-231249Y63473D01*
X-231309Y63533D01*
X-231369Y63594D01*
X-231414Y63639D01*
X-231452Y63676D01*
X-231489Y63714D01*
X-231527Y63759D01*
X-231542Y63774D01*
X-231647Y63902D01*
X-231737Y64015D01*
X-231813Y64127D01*
X-231873Y64218D01*
X-231918Y64300D01*
X-231948Y64360D01*
X-231963Y64398D01*
X-231971Y64413D01*
X-232016Y64526D01*
X-232046Y64639D01*
X-232076Y64744D01*
X-232091Y64834D01*
X-232098Y64917D01*
X-232106Y64977D01*
Y65015D01*
Y65030D01*
X-232098Y65142D01*
X-232083Y65248D01*
X-232068Y65353D01*
X-232038Y65443D01*
X-231963Y65623D01*
X-231888Y65766D01*
X-231843Y65834D01*
X-231805Y65887D01*
X-231768Y65939D01*
X-231730Y65977D01*
X-231700Y66007D01*
X-231685Y66037D01*
X-231670Y66045D01*
X-231662Y66052D01*
X-231579Y66127D01*
X-231489Y66195D01*
X-231392Y66248D01*
X-231294Y66293D01*
X-231098Y66368D01*
X-230903Y66420D01*
X-230820Y66435D01*
X-230737Y66451D01*
X-230662Y66458D01*
X-230602Y66466D01*
X-230550Y66473D01*
X-230474D01*
X-230339Y66466D01*
D02*
G37*
G36*
X-223775Y61248D02*
X-224467D01*
Y63556D01*
X-225354D01*
X-225437Y63548D01*
X-225497D01*
X-225550Y63541D01*
X-225587Y63533D01*
X-225617D01*
X-225632Y63526D01*
X-225640D01*
X-225760Y63488D01*
X-225813Y63466D01*
X-225858Y63443D01*
X-225903Y63421D01*
X-225933Y63406D01*
X-225948Y63398D01*
X-225956Y63390D01*
X-226016Y63345D01*
X-226076Y63293D01*
X-226189Y63180D01*
X-226241Y63127D01*
X-226279Y63082D01*
X-226302Y63052D01*
X-226309Y63045D01*
X-226384Y62939D01*
X-226467Y62827D01*
X-226550Y62706D01*
X-226632Y62594D01*
X-226700Y62488D01*
X-226753Y62406D01*
X-226775Y62375D01*
X-226790Y62353D01*
X-226805Y62338D01*
Y62330D01*
X-227489Y61248D01*
X-228347D01*
X-227452Y62661D01*
X-227347Y62812D01*
X-227249Y62947D01*
X-227151Y63060D01*
X-227069Y63165D01*
X-226993Y63240D01*
X-226933Y63300D01*
X-226896Y63338D01*
X-226880Y63353D01*
X-226820Y63398D01*
X-226753Y63451D01*
X-226617Y63533D01*
X-226557Y63563D01*
X-226512Y63594D01*
X-226482Y63609D01*
X-226467Y63616D01*
X-226602Y63639D01*
X-226730Y63661D01*
X-226843Y63699D01*
X-226956Y63729D01*
X-227053Y63766D01*
X-227144Y63812D01*
X-227226Y63849D01*
X-227302Y63887D01*
X-227362Y63932D01*
X-227422Y63969D01*
X-227467Y64000D01*
X-227505Y64030D01*
X-227535Y64052D01*
X-227557Y64075D01*
X-227565Y64082D01*
X-227572Y64090D01*
X-227632Y64165D01*
X-227693Y64240D01*
X-227783Y64398D01*
X-227843Y64556D01*
X-227888Y64706D01*
X-227918Y64834D01*
X-227926Y64887D01*
Y64939D01*
X-227933Y64977D01*
Y65007D01*
Y65022D01*
Y65030D01*
X-227926Y65187D01*
X-227903Y65330D01*
X-227865Y65466D01*
X-227828Y65578D01*
X-227783Y65676D01*
X-227753Y65751D01*
X-227723Y65796D01*
X-227715Y65804D01*
Y65812D01*
X-227625Y65932D01*
X-227535Y66037D01*
X-227437Y66127D01*
X-227347Y66195D01*
X-227264Y66248D01*
X-227196Y66278D01*
X-227151Y66300D01*
X-227144Y66308D01*
X-227136D01*
X-227069Y66330D01*
X-226986Y66353D01*
X-226820Y66390D01*
X-226640Y66413D01*
X-226474Y66435D01*
X-226317Y66443D01*
X-226249D01*
X-226189Y66451D01*
X-223775D01*
Y61248D01*
D02*
G37*
G36*
X-207582Y118D02*
X-207687Y-33D01*
X-207785Y-168D01*
X-207883Y-281D01*
X-207965Y-386D01*
X-208041Y-461D01*
X-208101Y-521D01*
X-208138Y-559D01*
X-208153Y-574D01*
X-208213Y-619D01*
X-208281Y-671D01*
X-208416Y-754D01*
X-208477Y-784D01*
X-208522Y-814D01*
X-208552Y-829D01*
X-208567Y-837D01*
X-208431Y-860D01*
X-208304Y-882D01*
X-208191Y-920D01*
X-208078Y-950D01*
X-207980Y-987D01*
X-207890Y-1032D01*
X-207807Y-1070D01*
X-207732Y-1108D01*
X-207672Y-1153D01*
X-207612Y-1190D01*
X-207567Y-1220D01*
X-207529Y-1250D01*
X-207499Y-1273D01*
X-207477Y-1296D01*
X-207469Y-1303D01*
X-207462Y-1311D01*
X-207401Y-1386D01*
X-207341Y-1461D01*
X-207251Y-1619D01*
X-207191Y-1777D01*
X-207146Y-1927D01*
X-207116Y-2055D01*
X-207108Y-2107D01*
Y-2160D01*
X-207101Y-2198D01*
Y-2228D01*
Y-2243D01*
Y-2250D01*
X-207108Y-2408D01*
X-207131Y-2551D01*
X-207168Y-2686D01*
X-207206Y-2799D01*
X-207251Y-2897D01*
X-207281Y-2972D01*
X-207311Y-3017D01*
X-207319Y-3025D01*
Y-3032D01*
X-207409Y-3153D01*
X-207499Y-3258D01*
X-207597Y-3348D01*
X-207687Y-3416D01*
X-207770Y-3468D01*
X-207838Y-3498D01*
X-207883Y-3521D01*
X-207890Y-3528D01*
X-207898D01*
X-207965Y-3551D01*
X-208048Y-3574D01*
X-208213Y-3611D01*
X-208394Y-3634D01*
X-208559Y-3656D01*
X-208717Y-3664D01*
X-208785D01*
X-208845Y-3671D01*
X-211258D01*
Y1531D01*
X-210567D01*
Y-777D01*
X-209680D01*
X-209597Y-769D01*
X-209537D01*
X-209484Y-762D01*
X-209446Y-754D01*
X-209416D01*
X-209401Y-747D01*
X-209394D01*
X-209273Y-709D01*
X-209221Y-687D01*
X-209176Y-664D01*
X-209131Y-641D01*
X-209101Y-626D01*
X-209086Y-619D01*
X-209078Y-611D01*
X-209018Y-566D01*
X-208958Y-514D01*
X-208845Y-401D01*
X-208792Y-348D01*
X-208755Y-303D01*
X-208732Y-273D01*
X-208725Y-266D01*
X-208650Y-160D01*
X-208567Y-47D01*
X-208484Y73D01*
X-208401Y186D01*
X-208334Y291D01*
X-208281Y373D01*
X-208258Y404D01*
X-208244Y426D01*
X-208228Y441D01*
Y449D01*
X-207544Y1531D01*
X-206687D01*
X-207582Y118D01*
D02*
G37*
G36*
X-204484Y1614D02*
X-204356Y1599D01*
X-204229Y1576D01*
X-204108Y1546D01*
X-203996Y1509D01*
X-203898Y1471D01*
X-203800Y1426D01*
X-203717Y1381D01*
X-203635Y1343D01*
X-203567Y1298D01*
X-203507Y1261D01*
X-203462Y1223D01*
X-203424Y1193D01*
X-203394Y1170D01*
X-203379Y1155D01*
X-203372Y1148D01*
X-203281Y1058D01*
X-203206Y960D01*
X-203139Y862D01*
X-203078Y764D01*
X-203033Y674D01*
X-202988Y576D01*
X-202928Y396D01*
X-202913Y313D01*
X-202898Y238D01*
X-202883Y170D01*
X-202875Y110D01*
X-202868Y65D01*
Y28D01*
Y5D01*
Y-2D01*
X-202875Y-183D01*
X-202905Y-348D01*
X-202950Y-491D01*
X-202996Y-611D01*
X-203041Y-709D01*
X-203086Y-784D01*
X-203116Y-829D01*
X-203123Y-844D01*
X-203229Y-957D01*
X-203342Y-1055D01*
X-203462Y-1130D01*
X-203582Y-1190D01*
X-203687Y-1235D01*
X-203770Y-1266D01*
X-203800Y-1273D01*
X-203823Y-1280D01*
X-203838Y-1288D01*
X-203845D01*
X-203717Y-1356D01*
X-203612Y-1423D01*
X-203522Y-1498D01*
X-203447Y-1566D01*
X-203387Y-1626D01*
X-203342Y-1679D01*
X-203319Y-1709D01*
X-203311Y-1724D01*
X-203251Y-1829D01*
X-203206Y-1935D01*
X-203169Y-2040D01*
X-203146Y-2138D01*
X-203131Y-2220D01*
X-203123Y-2280D01*
Y-2326D01*
Y-2341D01*
X-203131Y-2468D01*
X-203153Y-2596D01*
X-203184Y-2709D01*
X-203221Y-2807D01*
X-203259Y-2889D01*
X-203289Y-2957D01*
X-203311Y-2995D01*
X-203319Y-3010D01*
X-203394Y-3122D01*
X-203484Y-3220D01*
X-203575Y-3303D01*
X-203665Y-3378D01*
X-203740Y-3431D01*
X-203808Y-3476D01*
X-203853Y-3498D01*
X-203860Y-3506D01*
X-203868D01*
X-204003Y-3566D01*
X-204138Y-3611D01*
X-204274Y-3649D01*
X-204394Y-3671D01*
X-204492Y-3686D01*
X-204575Y-3694D01*
X-204762D01*
X-204868Y-3679D01*
X-205071Y-3641D01*
X-205244Y-3581D01*
X-205394Y-3521D01*
X-205462Y-3483D01*
X-205514Y-3453D01*
X-205567Y-3423D01*
X-205604Y-3393D01*
X-205635Y-3371D01*
X-205657Y-3356D01*
X-205672Y-3348D01*
X-205680Y-3341D01*
X-205823Y-3198D01*
X-205935Y-3040D01*
X-206026Y-2874D01*
X-206101Y-2709D01*
X-206146Y-2566D01*
X-206168Y-2506D01*
X-206183Y-2453D01*
X-206191Y-2408D01*
X-206199Y-2378D01*
X-206206Y-2356D01*
Y-2348D01*
X-205567Y-2235D01*
X-205537Y-2401D01*
X-205492Y-2544D01*
X-205439Y-2664D01*
X-205387Y-2762D01*
X-205334Y-2837D01*
X-205289Y-2889D01*
X-205259Y-2927D01*
X-205251Y-2935D01*
X-205153Y-3010D01*
X-205048Y-3070D01*
X-204950Y-3108D01*
X-204853Y-3138D01*
X-204762Y-3153D01*
X-204695Y-3168D01*
X-204635D01*
X-204499Y-3160D01*
X-204379Y-3130D01*
X-204274Y-3092D01*
X-204184Y-3055D01*
X-204116Y-3010D01*
X-204063Y-2972D01*
X-204026Y-2942D01*
X-204018Y-2935D01*
X-203935Y-2844D01*
X-203875Y-2747D01*
X-203838Y-2649D01*
X-203808Y-2559D01*
X-203793Y-2476D01*
X-203778Y-2416D01*
Y-2371D01*
Y-2363D01*
Y-2356D01*
Y-2273D01*
X-203793Y-2198D01*
X-203830Y-2070D01*
X-203883Y-1957D01*
X-203943Y-1859D01*
X-204003Y-1792D01*
X-204056Y-1739D01*
X-204093Y-1709D01*
X-204101Y-1701D01*
X-204108D01*
X-204236Y-1634D01*
X-204356Y-1581D01*
X-204484Y-1544D01*
X-204597Y-1521D01*
X-204695Y-1506D01*
X-204778Y-1491D01*
X-204875D01*
X-204905Y-1498D01*
X-204943D01*
X-205018Y-935D01*
X-204920Y-957D01*
X-204830Y-972D01*
X-204755Y-987D01*
X-204687Y-995D01*
X-204635Y-1002D01*
X-204567D01*
X-204409Y-987D01*
X-204266Y-957D01*
X-204138Y-912D01*
X-204033Y-860D01*
X-203951Y-807D01*
X-203890Y-762D01*
X-203853Y-732D01*
X-203838Y-717D01*
X-203740Y-604D01*
X-203665Y-484D01*
X-203612Y-363D01*
X-203582Y-243D01*
X-203559Y-145D01*
X-203552Y-63D01*
X-203545Y-33D01*
Y-10D01*
Y5D01*
Y13D01*
X-203559Y178D01*
X-203597Y328D01*
X-203642Y456D01*
X-203702Y569D01*
X-203762Y659D01*
X-203808Y727D01*
X-203845Y772D01*
X-203860Y787D01*
X-203981Y892D01*
X-204108Y967D01*
X-204236Y1020D01*
X-204356Y1058D01*
X-204462Y1080D01*
X-204544Y1088D01*
X-204575Y1095D01*
X-204620D01*
X-204755Y1088D01*
X-204883Y1058D01*
X-204995Y1020D01*
X-205086Y975D01*
X-205161Y937D01*
X-205221Y900D01*
X-205251Y870D01*
X-205266Y862D01*
X-205356Y757D01*
X-205432Y637D01*
X-205499Y509D01*
X-205552Y373D01*
X-205590Y261D01*
X-205604Y208D01*
X-205612Y163D01*
X-205620Y125D01*
X-205627Y95D01*
X-205635Y80D01*
Y73D01*
X-206274Y155D01*
X-206259Y276D01*
X-206236Y389D01*
X-206168Y599D01*
X-206086Y780D01*
X-206041Y855D01*
X-205996Y930D01*
X-205950Y998D01*
X-205905Y1050D01*
X-205868Y1103D01*
X-205830Y1140D01*
X-205807Y1170D01*
X-205785Y1193D01*
X-205770Y1208D01*
X-205762Y1216D01*
X-205672Y1283D01*
X-205582Y1351D01*
X-205492Y1404D01*
X-205394Y1449D01*
X-205206Y1524D01*
X-205026Y1569D01*
X-204943Y1584D01*
X-204868Y1599D01*
X-204800Y1607D01*
X-204740Y1614D01*
X-204695Y1622D01*
X-204627D01*
X-204484Y1614D01*
D02*
G37*
G36*
X-234270Y17430D02*
X-234188Y17310D01*
X-234090Y17190D01*
X-234000Y17085D01*
X-233910Y16994D01*
X-233842Y16919D01*
X-233812Y16897D01*
X-233789Y16874D01*
X-233782Y16867D01*
X-233774Y16859D01*
X-233616Y16731D01*
X-233458Y16611D01*
X-233308Y16506D01*
X-233158Y16423D01*
X-233030Y16348D01*
X-232977Y16318D01*
X-232932Y16295D01*
X-232895Y16273D01*
X-232864Y16265D01*
X-232850Y16250D01*
X-232842D01*
Y15633D01*
X-232955Y15679D01*
X-233067Y15731D01*
X-233180Y15784D01*
X-233286Y15836D01*
X-233376Y15882D01*
X-233451Y15919D01*
X-233496Y15949D01*
X-233504Y15957D01*
X-233511D01*
X-233646Y16040D01*
X-233767Y16122D01*
X-233872Y16197D01*
X-233955Y16265D01*
X-234030Y16318D01*
X-234075Y16363D01*
X-234113Y16393D01*
X-234120Y16400D01*
Y12333D01*
X-234759D01*
Y17558D01*
X-234346D01*
X-234270Y17430D01*
D02*
G37*
G36*
X-223354Y12333D02*
X-224045D01*
Y14694D01*
X-226489D01*
Y15310D01*
X-224045D01*
Y16919D01*
X-226872D01*
Y17536D01*
X-223354D01*
Y12333D01*
D02*
G37*
G36*
X-227737D02*
X-229722D01*
X-229902Y12341D01*
X-230060Y12348D01*
X-230203Y12363D01*
X-230323Y12378D01*
X-230421Y12393D01*
X-230496Y12401D01*
X-230541Y12416D01*
X-230556D01*
X-230684Y12453D01*
X-230789Y12491D01*
X-230887Y12536D01*
X-230970Y12581D01*
X-231038Y12611D01*
X-231090Y12641D01*
X-231120Y12664D01*
X-231128Y12671D01*
X-231210Y12739D01*
X-231286Y12822D01*
X-231346Y12904D01*
X-231406Y12980D01*
X-231451Y13055D01*
X-231481Y13107D01*
X-231504Y13145D01*
X-231511Y13160D01*
X-231564Y13280D01*
X-231601Y13401D01*
X-231632Y13513D01*
X-231646Y13619D01*
X-231662Y13709D01*
X-231669Y13784D01*
Y13829D01*
Y13837D01*
Y13844D01*
X-231662Y14010D01*
X-231632Y14160D01*
X-231586Y14288D01*
X-231541Y14408D01*
X-231496Y14498D01*
X-231451Y14566D01*
X-231421Y14611D01*
X-231413Y14626D01*
X-231308Y14746D01*
X-231195Y14844D01*
X-231068Y14927D01*
X-230955Y14994D01*
X-230850Y15047D01*
X-230759Y15077D01*
X-230729Y15092D01*
X-230707Y15100D01*
X-230692Y15107D01*
X-230684D01*
X-230812Y15182D01*
X-230925Y15258D01*
X-231015Y15340D01*
X-231090Y15416D01*
X-231150Y15476D01*
X-231195Y15536D01*
X-231218Y15566D01*
X-231225Y15581D01*
X-231286Y15694D01*
X-231331Y15799D01*
X-231368Y15904D01*
X-231391Y16002D01*
X-231406Y16085D01*
X-231413Y16152D01*
Y16190D01*
Y16205D01*
X-231406Y16333D01*
X-231383Y16461D01*
X-231346Y16573D01*
X-231308Y16679D01*
X-231271Y16769D01*
X-231233Y16829D01*
X-231210Y16874D01*
X-231203Y16889D01*
X-231120Y17002D01*
X-231030Y17107D01*
X-230932Y17190D01*
X-230842Y17257D01*
X-230767Y17310D01*
X-230699Y17348D01*
X-230654Y17370D01*
X-230647Y17378D01*
X-230639D01*
X-230496Y17430D01*
X-230338Y17468D01*
X-230180Y17498D01*
X-230030Y17513D01*
X-229895Y17528D01*
X-229835D01*
X-229782Y17536D01*
X-227737D01*
Y12333D01*
D02*
G37*
G36*
X-255308Y17450D02*
X-255436Y17375D01*
X-255556Y17292D01*
X-255676Y17195D01*
X-255781Y17105D01*
X-255872Y17014D01*
X-255947Y16947D01*
X-255970Y16917D01*
X-255992Y16894D01*
X-256000Y16886D01*
X-256007Y16879D01*
X-256135Y16721D01*
X-256255Y16563D01*
X-256360Y16413D01*
X-256443Y16262D01*
X-256518Y16135D01*
X-256548Y16082D01*
X-256571Y16037D01*
X-256593Y15999D01*
X-256601Y15969D01*
X-256616Y15954D01*
Y15947D01*
X-257233D01*
X-257188Y16059D01*
X-257135Y16172D01*
X-257082Y16285D01*
X-257030Y16390D01*
X-256985Y16480D01*
X-256947Y16556D01*
X-256917Y16601D01*
X-256909Y16608D01*
Y16616D01*
X-256827Y16751D01*
X-256744Y16871D01*
X-256669Y16977D01*
X-256601Y17059D01*
X-256548Y17134D01*
X-256503Y17180D01*
X-256473Y17217D01*
X-256466Y17225D01*
X-260533D01*
Y17864D01*
X-255308D01*
Y17450D01*
D02*
G37*
G36*
X-257654Y14766D02*
X-257421Y14744D01*
X-257210Y14706D01*
X-257112Y14691D01*
X-257030Y14669D01*
X-256947Y14646D01*
X-256879Y14631D01*
X-256819Y14616D01*
X-256766Y14593D01*
X-256721Y14586D01*
X-256691Y14571D01*
X-256676Y14563D01*
X-256669D01*
X-256473Y14481D01*
X-256300Y14383D01*
X-256150Y14277D01*
X-256022Y14180D01*
X-255917Y14090D01*
X-255842Y14014D01*
X-255819Y13984D01*
X-255797Y13962D01*
X-255789Y13954D01*
X-255781Y13947D01*
X-255684Y13826D01*
X-255609Y13699D01*
X-255541Y13571D01*
X-255488Y13450D01*
X-255451Y13345D01*
X-255428Y13263D01*
X-255413Y13233D01*
Y13210D01*
X-255406Y13195D01*
Y13187D01*
X-255383Y13060D01*
X-255361Y12909D01*
X-255345Y12759D01*
X-255338Y12608D01*
X-255330Y12473D01*
Y10473D01*
X-260533D01*
Y12345D01*
X-260526Y12518D01*
X-260518Y12676D01*
X-260503Y12819D01*
X-260488Y12939D01*
X-260473Y13045D01*
X-260466Y13120D01*
X-260458Y13142D01*
X-260450Y13165D01*
Y13180D01*
X-260413Y13315D01*
X-260368Y13435D01*
X-260330Y13541D01*
X-260285Y13631D01*
X-260247Y13706D01*
X-260217Y13759D01*
X-260195Y13789D01*
X-260187Y13804D01*
X-260120Y13902D01*
X-260037Y13984D01*
X-259962Y14067D01*
X-259887Y14135D01*
X-259819Y14195D01*
X-259766Y14240D01*
X-259729Y14270D01*
X-259714Y14277D01*
X-259593Y14353D01*
X-259466Y14428D01*
X-259345Y14488D01*
X-259225Y14533D01*
X-259120Y14578D01*
X-259037Y14608D01*
X-259007Y14616D01*
X-258984Y14623D01*
X-258969Y14631D01*
X-258962D01*
X-258781Y14676D01*
X-258601Y14714D01*
X-258428Y14736D01*
X-258263Y14759D01*
X-258120Y14766D01*
X-258060D01*
X-258007Y14774D01*
X-257969D01*
X-257932D01*
X-257917D01*
X-257909D01*
X-257654Y14766D01*
D02*
G37*
G36*
X-51056Y98970D02*
X-47688D01*
Y98451D01*
X-51056Y96068D01*
X-51642D01*
Y98331D01*
X-52890D01*
Y98970D01*
X-51642D01*
Y99677D01*
X-51056D01*
Y98970D01*
D02*
G37*
G36*
X-51071Y95008D02*
X-51191Y94978D01*
X-51304Y94940D01*
X-51409Y94902D01*
X-51507Y94865D01*
X-51597Y94820D01*
X-51672Y94775D01*
X-51748Y94722D01*
X-51815Y94677D01*
X-51875Y94639D01*
X-51920Y94594D01*
X-51966Y94557D01*
X-52003Y94527D01*
X-52026Y94496D01*
X-52048Y94474D01*
X-52056Y94466D01*
X-52063Y94459D01*
X-52123Y94384D01*
X-52169Y94301D01*
X-52251Y94136D01*
X-52312Y93978D01*
X-52349Y93820D01*
X-52379Y93684D01*
X-52387Y93632D01*
Y93579D01*
X-52394Y93534D01*
Y93481D01*
X-52387Y93308D01*
X-52357Y93143D01*
X-52319Y92993D01*
X-52274Y92857D01*
X-52229Y92752D01*
X-52206Y92707D01*
X-52191Y92669D01*
X-52176Y92639D01*
X-52161Y92617D01*
X-52154Y92602D01*
Y92594D01*
X-52048Y92451D01*
X-51936Y92331D01*
X-51808Y92226D01*
X-51687Y92143D01*
X-51582Y92076D01*
X-51492Y92030D01*
X-51454Y92015D01*
X-51432Y92000D01*
X-51417Y91993D01*
X-51409D01*
X-51214Y91933D01*
X-51018Y91888D01*
X-50823Y91850D01*
X-50642Y91827D01*
X-50560Y91820D01*
X-50484Y91812D01*
X-50417D01*
X-50364Y91805D01*
X-50319D01*
X-50282D01*
X-50259D01*
X-50251D01*
X-50056Y91812D01*
X-49875Y91827D01*
X-49710Y91858D01*
X-49560Y91888D01*
X-49432Y91910D01*
X-49379Y91925D01*
X-49334Y91940D01*
X-49297Y91948D01*
X-49274Y91955D01*
X-49259Y91963D01*
X-49251D01*
X-49079Y92038D01*
X-48921Y92121D01*
X-48793Y92211D01*
X-48680Y92309D01*
X-48590Y92391D01*
X-48530Y92459D01*
X-48492Y92512D01*
X-48477Y92519D01*
Y92527D01*
X-48379Y92684D01*
X-48304Y92857D01*
X-48252Y93023D01*
X-48222Y93181D01*
X-48199Y93324D01*
X-48191Y93384D01*
Y93436D01*
X-48184Y93474D01*
Y93534D01*
X-48191Y93722D01*
X-48222Y93895D01*
X-48267Y94038D01*
X-48312Y94166D01*
X-48364Y94263D01*
X-48402Y94339D01*
X-48432Y94384D01*
X-48447Y94399D01*
X-48560Y94519D01*
X-48688Y94632D01*
X-48823Y94722D01*
X-48958Y94797D01*
X-49079Y94857D01*
X-49139Y94880D01*
X-49184Y94895D01*
X-49221Y94910D01*
X-49251Y94925D01*
X-49267Y94932D01*
X-49274D01*
X-49116Y95609D01*
X-48981Y95564D01*
X-48861Y95519D01*
X-48748Y95459D01*
X-48635Y95406D01*
X-48537Y95346D01*
X-48447Y95278D01*
X-48357Y95218D01*
X-48282Y95158D01*
X-48222Y95098D01*
X-48161Y95045D01*
X-48109Y94993D01*
X-48071Y94955D01*
X-48033Y94917D01*
X-48011Y94887D01*
X-48003Y94872D01*
X-47996Y94865D01*
X-47928Y94760D01*
X-47861Y94654D01*
X-47808Y94549D01*
X-47763Y94436D01*
X-47695Y94211D01*
X-47650Y94008D01*
X-47628Y93910D01*
X-47620Y93827D01*
X-47613Y93745D01*
X-47605Y93677D01*
X-47597Y93624D01*
Y93549D01*
X-47613Y93301D01*
X-47650Y93060D01*
X-47695Y92850D01*
X-47725Y92752D01*
X-47755Y92662D01*
X-47785Y92579D01*
X-47815Y92504D01*
X-47838Y92444D01*
X-47861Y92384D01*
X-47883Y92346D01*
X-47898Y92316D01*
X-47906Y92294D01*
X-47913Y92286D01*
X-48041Y92083D01*
X-48191Y91910D01*
X-48342Y91760D01*
X-48492Y91632D01*
X-48628Y91534D01*
X-48688Y91497D01*
X-48740Y91467D01*
X-48778Y91436D01*
X-48808Y91421D01*
X-48830Y91414D01*
X-48838Y91406D01*
X-49071Y91301D01*
X-49312Y91226D01*
X-49552Y91173D01*
X-49770Y91136D01*
X-49868Y91121D01*
X-49966Y91113D01*
X-50041Y91106D01*
X-50116D01*
X-50169Y91098D01*
X-50214D01*
X-50244D01*
X-50251D01*
X-50522Y91113D01*
X-50785Y91143D01*
X-51018Y91181D01*
X-51131Y91211D01*
X-51229Y91233D01*
X-51319Y91256D01*
X-51402Y91286D01*
X-51477Y91309D01*
X-51537Y91324D01*
X-51582Y91346D01*
X-51620Y91354D01*
X-51642Y91369D01*
X-51650D01*
X-51875Y91482D01*
X-52078Y91609D01*
X-52251Y91745D01*
X-52319Y91812D01*
X-52387Y91873D01*
X-52447Y91933D01*
X-52499Y91993D01*
X-52544Y92045D01*
X-52575Y92091D01*
X-52605Y92121D01*
X-52627Y92151D01*
X-52635Y92166D01*
X-52642Y92173D01*
X-52702Y92278D01*
X-52755Y92384D01*
X-52838Y92609D01*
X-52898Y92835D01*
X-52936Y93053D01*
X-52951Y93158D01*
X-52966Y93248D01*
X-52973Y93331D01*
Y93399D01*
X-52981Y93459D01*
Y93542D01*
X-52973Y93692D01*
X-52958Y93835D01*
X-52943Y93970D01*
X-52913Y94098D01*
X-52875Y94218D01*
X-52838Y94331D01*
X-52800Y94436D01*
X-52755Y94534D01*
X-52717Y94617D01*
X-52680Y94699D01*
X-52642Y94760D01*
X-52605Y94820D01*
X-52575Y94857D01*
X-52560Y94895D01*
X-52544Y94910D01*
X-52537Y94917D01*
X-52447Y95023D01*
X-52357Y95113D01*
X-52251Y95196D01*
X-52146Y95278D01*
X-51936Y95414D01*
X-51725Y95519D01*
X-51627Y95564D01*
X-51537Y95602D01*
X-51454Y95632D01*
X-51387Y95654D01*
X-51327Y95677D01*
X-51281Y95692D01*
X-51251Y95699D01*
X-51244D01*
X-51071Y95008D01*
D02*
G37*
G36*
X-194192Y64156D02*
X-194027Y64126D01*
X-193884Y64081D01*
X-193764Y64036D01*
X-193666Y63991D01*
X-193591Y63946D01*
X-193546Y63916D01*
X-193531Y63908D01*
X-193418Y63803D01*
X-193320Y63690D01*
X-193245Y63570D01*
X-193185Y63450D01*
X-193140Y63344D01*
X-193110Y63262D01*
X-193102Y63232D01*
X-193095Y63209D01*
X-193087Y63194D01*
Y63186D01*
X-193019Y63314D01*
X-192952Y63419D01*
X-192876Y63510D01*
X-192809Y63585D01*
X-192749Y63645D01*
X-192696Y63690D01*
X-192666Y63713D01*
X-192651Y63720D01*
X-192546Y63780D01*
X-192440Y63825D01*
X-192335Y63863D01*
X-192237Y63886D01*
X-192155Y63901D01*
X-192095Y63908D01*
X-192050D01*
X-192034D01*
X-191907Y63901D01*
X-191779Y63878D01*
X-191666Y63848D01*
X-191568Y63811D01*
X-191486Y63773D01*
X-191418Y63743D01*
X-191380Y63720D01*
X-191365Y63713D01*
X-191252Y63638D01*
X-191155Y63547D01*
X-191072Y63457D01*
X-190997Y63367D01*
X-190944Y63292D01*
X-190899Y63224D01*
X-190877Y63179D01*
X-190869Y63171D01*
Y63164D01*
X-190809Y63029D01*
X-190764Y62893D01*
X-190726Y62758D01*
X-190704Y62638D01*
X-190689Y62540D01*
X-190681Y62457D01*
Y62269D01*
X-190696Y62164D01*
X-190734Y61961D01*
X-190794Y61788D01*
X-190854Y61638D01*
X-190892Y61570D01*
X-190922Y61517D01*
X-190952Y61465D01*
X-190982Y61427D01*
X-191004Y61397D01*
X-191019Y61375D01*
X-191027Y61360D01*
X-191035Y61352D01*
X-191177Y61209D01*
X-191335Y61096D01*
X-191501Y61006D01*
X-191666Y60931D01*
X-191809Y60886D01*
X-191869Y60863D01*
X-191922Y60848D01*
X-191967Y60841D01*
X-191997Y60833D01*
X-192019Y60826D01*
X-192027D01*
X-192140Y61465D01*
X-191974Y61495D01*
X-191831Y61540D01*
X-191711Y61593D01*
X-191613Y61645D01*
X-191538Y61698D01*
X-191486Y61743D01*
X-191448Y61773D01*
X-191441Y61781D01*
X-191365Y61878D01*
X-191305Y61983D01*
X-191268Y62081D01*
X-191238Y62179D01*
X-191222Y62269D01*
X-191207Y62337D01*
Y62397D01*
X-191215Y62532D01*
X-191245Y62653D01*
X-191283Y62758D01*
X-191320Y62848D01*
X-191365Y62916D01*
X-191403Y62968D01*
X-191433Y63006D01*
X-191441Y63014D01*
X-191531Y63096D01*
X-191628Y63156D01*
X-191726Y63194D01*
X-191816Y63224D01*
X-191899Y63239D01*
X-191959Y63254D01*
X-192004D01*
X-192012D01*
X-192019D01*
X-192102D01*
X-192177Y63239D01*
X-192305Y63201D01*
X-192418Y63149D01*
X-192516Y63089D01*
X-192583Y63029D01*
X-192636Y62976D01*
X-192666Y62938D01*
X-192673Y62931D01*
Y62923D01*
X-192741Y62796D01*
X-192794Y62675D01*
X-192831Y62547D01*
X-192854Y62435D01*
X-192869Y62337D01*
X-192884Y62254D01*
Y62156D01*
X-192876Y62126D01*
Y62089D01*
X-193440Y62014D01*
X-193418Y62111D01*
X-193403Y62202D01*
X-193388Y62277D01*
X-193380Y62344D01*
X-193373Y62397D01*
Y62465D01*
X-193388Y62623D01*
X-193418Y62765D01*
X-193463Y62893D01*
X-193516Y62998D01*
X-193568Y63081D01*
X-193613Y63141D01*
X-193643Y63179D01*
X-193658Y63194D01*
X-193771Y63292D01*
X-193892Y63367D01*
X-194012Y63419D01*
X-194132Y63450D01*
X-194230Y63472D01*
X-194312Y63480D01*
X-194343Y63487D01*
X-194365D01*
X-194380D01*
X-194388D01*
X-194553Y63472D01*
X-194704Y63435D01*
X-194831Y63390D01*
X-194944Y63329D01*
X-195034Y63269D01*
X-195102Y63224D01*
X-195147Y63186D01*
X-195162Y63171D01*
X-195267Y63051D01*
X-195343Y62923D01*
X-195395Y62796D01*
X-195433Y62675D01*
X-195455Y62570D01*
X-195463Y62487D01*
X-195470Y62457D01*
Y62412D01*
X-195463Y62277D01*
X-195433Y62149D01*
X-195395Y62036D01*
X-195350Y61946D01*
X-195312Y61871D01*
X-195275Y61811D01*
X-195245Y61781D01*
X-195237Y61765D01*
X-195132Y61675D01*
X-195012Y61600D01*
X-194884Y61532D01*
X-194749Y61480D01*
X-194636Y61442D01*
X-194583Y61427D01*
X-194538Y61420D01*
X-194501Y61412D01*
X-194470Y61405D01*
X-194455Y61397D01*
X-194448D01*
X-194531Y60758D01*
X-194651Y60773D01*
X-194764Y60796D01*
X-194974Y60863D01*
X-195155Y60946D01*
X-195230Y60991D01*
X-195305Y61036D01*
X-195373Y61081D01*
X-195425Y61126D01*
X-195478Y61164D01*
X-195515Y61202D01*
X-195546Y61224D01*
X-195568Y61247D01*
X-195583Y61262D01*
X-195591Y61269D01*
X-195658Y61360D01*
X-195726Y61450D01*
X-195779Y61540D01*
X-195824Y61638D01*
X-195899Y61826D01*
X-195944Y62006D01*
X-195959Y62089D01*
X-195974Y62164D01*
X-195982Y62232D01*
X-195989Y62292D01*
X-195997Y62337D01*
Y62404D01*
X-195989Y62547D01*
X-195974Y62675D01*
X-195951Y62803D01*
X-195921Y62923D01*
X-195884Y63036D01*
X-195846Y63134D01*
X-195801Y63232D01*
X-195756Y63314D01*
X-195718Y63397D01*
X-195673Y63465D01*
X-195636Y63525D01*
X-195598Y63570D01*
X-195568Y63608D01*
X-195546Y63638D01*
X-195530Y63653D01*
X-195523Y63660D01*
X-195433Y63750D01*
X-195335Y63825D01*
X-195237Y63893D01*
X-195140Y63953D01*
X-195049Y63998D01*
X-194952Y64044D01*
X-194771Y64104D01*
X-194688Y64119D01*
X-194613Y64134D01*
X-194546Y64149D01*
X-194485Y64156D01*
X-194440Y64164D01*
X-194403D01*
X-194380D01*
X-194373D01*
X-194192Y64156D01*
D02*
G37*
G36*
X-194087Y59472D02*
X-194207Y59442D01*
X-194320Y59405D01*
X-194425Y59367D01*
X-194523Y59330D01*
X-194613Y59284D01*
X-194688Y59239D01*
X-194764Y59187D01*
X-194831Y59142D01*
X-194891Y59104D01*
X-194937Y59059D01*
X-194982Y59021D01*
X-195019Y58991D01*
X-195042Y58961D01*
X-195064Y58939D01*
X-195072Y58931D01*
X-195079Y58924D01*
X-195140Y58848D01*
X-195185Y58766D01*
X-195267Y58600D01*
X-195327Y58442D01*
X-195365Y58285D01*
X-195395Y58149D01*
X-195403Y58096D01*
Y58044D01*
X-195410Y57999D01*
Y57946D01*
X-195403Y57773D01*
X-195373Y57608D01*
X-195335Y57457D01*
X-195290Y57322D01*
X-195245Y57217D01*
X-195222Y57172D01*
X-195207Y57134D01*
X-195192Y57104D01*
X-195177Y57081D01*
X-195170Y57066D01*
Y57059D01*
X-195064Y56916D01*
X-194952Y56796D01*
X-194824Y56691D01*
X-194704Y56608D01*
X-194598Y56540D01*
X-194508Y56495D01*
X-194470Y56480D01*
X-194448Y56465D01*
X-194433Y56458D01*
X-194425D01*
X-194230Y56397D01*
X-194034Y56352D01*
X-193839Y56315D01*
X-193658Y56292D01*
X-193576Y56285D01*
X-193500Y56277D01*
X-193433D01*
X-193380Y56269D01*
X-193335D01*
X-193298D01*
X-193275D01*
X-193267D01*
X-193072Y56277D01*
X-192892Y56292D01*
X-192726Y56322D01*
X-192576Y56352D01*
X-192448Y56375D01*
X-192395Y56390D01*
X-192350Y56405D01*
X-192313Y56412D01*
X-192290Y56420D01*
X-192275Y56427D01*
X-192267D01*
X-192095Y56503D01*
X-191937Y56585D01*
X-191809Y56676D01*
X-191696Y56773D01*
X-191606Y56856D01*
X-191546Y56924D01*
X-191508Y56976D01*
X-191493Y56984D01*
Y56991D01*
X-191395Y57149D01*
X-191320Y57322D01*
X-191268Y57488D01*
X-191238Y57645D01*
X-191215Y57788D01*
X-191207Y57848D01*
Y57901D01*
X-191200Y57939D01*
Y57999D01*
X-191207Y58187D01*
X-191238Y58360D01*
X-191283Y58502D01*
X-191328Y58630D01*
X-191380Y58728D01*
X-191418Y58803D01*
X-191448Y58848D01*
X-191463Y58863D01*
X-191576Y58984D01*
X-191704Y59096D01*
X-191839Y59187D01*
X-191974Y59262D01*
X-192095Y59322D01*
X-192155Y59345D01*
X-192200Y59360D01*
X-192237Y59375D01*
X-192267Y59390D01*
X-192283Y59397D01*
X-192290D01*
X-192132Y60074D01*
X-191997Y60029D01*
X-191877Y59984D01*
X-191764Y59924D01*
X-191651Y59871D01*
X-191553Y59811D01*
X-191463Y59743D01*
X-191373Y59683D01*
X-191298Y59623D01*
X-191238Y59563D01*
X-191177Y59510D01*
X-191125Y59457D01*
X-191087Y59420D01*
X-191049Y59382D01*
X-191027Y59352D01*
X-191019Y59337D01*
X-191012Y59330D01*
X-190944Y59224D01*
X-190877Y59119D01*
X-190824Y59014D01*
X-190779Y58901D01*
X-190711Y58675D01*
X-190666Y58472D01*
X-190644Y58375D01*
X-190636Y58292D01*
X-190629Y58209D01*
X-190621Y58142D01*
X-190613Y58089D01*
Y58014D01*
X-190629Y57766D01*
X-190666Y57525D01*
X-190711Y57315D01*
X-190741Y57217D01*
X-190771Y57127D01*
X-190801Y57044D01*
X-190832Y56969D01*
X-190854Y56909D01*
X-190877Y56849D01*
X-190899Y56811D01*
X-190914Y56781D01*
X-190922Y56758D01*
X-190929Y56751D01*
X-191057Y56548D01*
X-191207Y56375D01*
X-191358Y56224D01*
X-191508Y56097D01*
X-191644Y55999D01*
X-191704Y55961D01*
X-191756Y55931D01*
X-191794Y55901D01*
X-191824Y55886D01*
X-191847Y55879D01*
X-191854Y55871D01*
X-192087Y55766D01*
X-192328Y55691D01*
X-192568Y55638D01*
X-192786Y55600D01*
X-192884Y55585D01*
X-192982Y55578D01*
X-193057Y55570D01*
X-193132D01*
X-193185Y55563D01*
X-193230D01*
X-193260D01*
X-193267D01*
X-193538Y55578D01*
X-193801Y55608D01*
X-194034Y55645D01*
X-194147Y55676D01*
X-194245Y55698D01*
X-194335Y55721D01*
X-194418Y55751D01*
X-194493Y55773D01*
X-194553Y55788D01*
X-194598Y55811D01*
X-194636Y55818D01*
X-194658Y55834D01*
X-194666D01*
X-194891Y55946D01*
X-195094Y56074D01*
X-195267Y56209D01*
X-195335Y56277D01*
X-195403Y56337D01*
X-195463Y56397D01*
X-195515Y56458D01*
X-195561Y56510D01*
X-195591Y56555D01*
X-195621Y56585D01*
X-195643Y56615D01*
X-195651Y56630D01*
X-195658Y56638D01*
X-195718Y56743D01*
X-195771Y56849D01*
X-195854Y57074D01*
X-195914Y57300D01*
X-195951Y57518D01*
X-195967Y57623D01*
X-195982Y57713D01*
X-195989Y57796D01*
Y57863D01*
X-195997Y57924D01*
Y58006D01*
X-195989Y58157D01*
X-195974Y58299D01*
X-195959Y58435D01*
X-195929Y58563D01*
X-195891Y58683D01*
X-195854Y58796D01*
X-195816Y58901D01*
X-195771Y58999D01*
X-195734Y59081D01*
X-195696Y59164D01*
X-195658Y59224D01*
X-195621Y59284D01*
X-195591Y59322D01*
X-195576Y59360D01*
X-195561Y59375D01*
X-195553Y59382D01*
X-195463Y59487D01*
X-195373Y59578D01*
X-195267Y59660D01*
X-195162Y59743D01*
X-194952Y59878D01*
X-194741Y59984D01*
X-194643Y60029D01*
X-194553Y60066D01*
X-194470Y60096D01*
X-194403Y60119D01*
X-194343Y60142D01*
X-194298Y60156D01*
X-194267Y60164D01*
X-194260D01*
X-194087Y59472D01*
D02*
G37*
G36*
X-129977Y68837D02*
X-129849Y68927D01*
X-129796Y68972D01*
X-129744Y69010D01*
X-129698Y69048D01*
X-129668Y69078D01*
X-129646Y69100D01*
X-129638Y69108D01*
X-129601Y69145D01*
X-129563Y69190D01*
X-129465Y69296D01*
X-129353Y69416D01*
X-129240Y69544D01*
X-129142Y69664D01*
X-129097Y69717D01*
X-129052Y69762D01*
X-129022Y69799D01*
X-128999Y69830D01*
X-128984Y69844D01*
X-128977Y69852D01*
X-128871Y69972D01*
X-128774Y70093D01*
X-128676Y70198D01*
X-128593Y70296D01*
X-128511Y70386D01*
X-128435Y70461D01*
X-128368Y70536D01*
X-128308Y70596D01*
X-128247Y70656D01*
X-128202Y70702D01*
X-128165Y70739D01*
X-128127Y70777D01*
X-128082Y70814D01*
X-128067Y70829D01*
X-127939Y70935D01*
X-127826Y71025D01*
X-127714Y71100D01*
X-127623Y71160D01*
X-127541Y71205D01*
X-127480Y71235D01*
X-127443Y71251D01*
X-127428Y71258D01*
X-127315Y71303D01*
X-127202Y71333D01*
X-127097Y71363D01*
X-127007Y71378D01*
X-126924Y71386D01*
X-126864Y71393D01*
X-126826D01*
X-126811D01*
X-126699Y71386D01*
X-126593Y71371D01*
X-126488Y71356D01*
X-126398Y71326D01*
X-126217Y71251D01*
X-126075Y71175D01*
X-126007Y71130D01*
X-125954Y71093D01*
X-125902Y71055D01*
X-125864Y71017D01*
X-125834Y70987D01*
X-125804Y70972D01*
X-125796Y70957D01*
X-125789Y70950D01*
X-125714Y70867D01*
X-125646Y70777D01*
X-125593Y70679D01*
X-125548Y70581D01*
X-125473Y70386D01*
X-125421Y70190D01*
X-125406Y70108D01*
X-125390Y70025D01*
X-125383Y69950D01*
X-125375Y69890D01*
X-125368Y69837D01*
Y69762D01*
X-125375Y69626D01*
X-125383Y69499D01*
X-125406Y69378D01*
X-125428Y69266D01*
X-125458Y69160D01*
X-125488Y69063D01*
X-125526Y68972D01*
X-125563Y68890D01*
X-125601Y68815D01*
X-125639Y68754D01*
X-125669Y68702D01*
X-125699Y68657D01*
X-125721Y68619D01*
X-125744Y68597D01*
X-125751Y68581D01*
X-125759Y68574D01*
X-125834Y68499D01*
X-125917Y68431D01*
X-126007Y68363D01*
X-126097Y68311D01*
X-126278Y68221D01*
X-126458Y68160D01*
X-126541Y68138D01*
X-126623Y68115D01*
X-126691Y68100D01*
X-126751Y68085D01*
X-126804Y68078D01*
X-126841D01*
X-126864Y68070D01*
X-126872D01*
X-126939Y68724D01*
X-126766Y68739D01*
X-126616Y68769D01*
X-126481Y68815D01*
X-126375Y68867D01*
X-126285Y68912D01*
X-126225Y68957D01*
X-126187Y68987D01*
X-126172Y69002D01*
X-126082Y69115D01*
X-126014Y69236D01*
X-125962Y69363D01*
X-125932Y69476D01*
X-125909Y69581D01*
X-125902Y69672D01*
X-125894Y69702D01*
Y69747D01*
X-125902Y69905D01*
X-125932Y70047D01*
X-125977Y70168D01*
X-126022Y70273D01*
X-126075Y70356D01*
X-126112Y70408D01*
X-126142Y70446D01*
X-126157Y70461D01*
X-126263Y70551D01*
X-126368Y70619D01*
X-126473Y70672D01*
X-126578Y70702D01*
X-126661Y70724D01*
X-126736Y70732D01*
X-126781Y70739D01*
X-126789D01*
X-126796D01*
X-126932Y70724D01*
X-127074Y70694D01*
X-127202Y70641D01*
X-127323Y70589D01*
X-127420Y70529D01*
X-127503Y70476D01*
X-127533Y70461D01*
X-127556Y70446D01*
X-127563Y70431D01*
X-127571D01*
X-127654Y70371D01*
X-127736Y70296D01*
X-127826Y70213D01*
X-127917Y70123D01*
X-128097Y69935D01*
X-128278Y69747D01*
X-128360Y69649D01*
X-128435Y69566D01*
X-128503Y69484D01*
X-128563Y69416D01*
X-128608Y69363D01*
X-128646Y69318D01*
X-128668Y69288D01*
X-128676Y69281D01*
X-128834Y69093D01*
X-128984Y68920D01*
X-129120Y68777D01*
X-129232Y68664D01*
X-129330Y68566D01*
X-129398Y68499D01*
X-129443Y68461D01*
X-129450Y68446D01*
X-129458D01*
X-129586Y68341D01*
X-129706Y68258D01*
X-129826Y68183D01*
X-129931Y68123D01*
X-130022Y68078D01*
X-130089Y68048D01*
X-130134Y68033D01*
X-130142Y68025D01*
X-130150D01*
X-130232Y67995D01*
X-130308Y67980D01*
X-130383Y67965D01*
X-130450Y67957D01*
X-130511Y67950D01*
X-130556D01*
X-130586D01*
X-130593D01*
Y71401D01*
X-129977D01*
Y68837D01*
D02*
G37*
G36*
X-128774Y66762D02*
X-128894Y66732D01*
X-129007Y66694D01*
X-129112Y66657D01*
X-129210Y66619D01*
X-129300Y66574D01*
X-129375Y66529D01*
X-129450Y66476D01*
X-129518Y66431D01*
X-129578Y66394D01*
X-129623Y66349D01*
X-129668Y66311D01*
X-129706Y66281D01*
X-129728Y66251D01*
X-129751Y66228D01*
X-129759Y66221D01*
X-129766Y66213D01*
X-129826Y66138D01*
X-129871Y66055D01*
X-129954Y65890D01*
X-130014Y65732D01*
X-130052Y65574D01*
X-130082Y65439D01*
X-130089Y65386D01*
Y65333D01*
X-130097Y65288D01*
Y65236D01*
X-130089Y65063D01*
X-130059Y64897D01*
X-130022Y64747D01*
X-129977Y64612D01*
X-129931Y64506D01*
X-129909Y64461D01*
X-129894Y64424D01*
X-129879Y64394D01*
X-129864Y64371D01*
X-129856Y64356D01*
Y64349D01*
X-129751Y64206D01*
X-129638Y64085D01*
X-129510Y63980D01*
X-129390Y63898D01*
X-129285Y63830D01*
X-129195Y63785D01*
X-129157Y63770D01*
X-129135Y63755D01*
X-129120Y63747D01*
X-129112D01*
X-128917Y63687D01*
X-128721Y63642D01*
X-128526Y63604D01*
X-128345Y63582D01*
X-128263Y63574D01*
X-128187Y63567D01*
X-128120D01*
X-128067Y63559D01*
X-128022D01*
X-127984D01*
X-127962D01*
X-127954D01*
X-127759Y63567D01*
X-127578Y63582D01*
X-127413Y63612D01*
X-127262Y63642D01*
X-127135Y63664D01*
X-127082Y63679D01*
X-127037Y63695D01*
X-126999Y63702D01*
X-126977Y63710D01*
X-126962Y63717D01*
X-126954D01*
X-126781Y63792D01*
X-126623Y63875D01*
X-126496Y63965D01*
X-126383Y64063D01*
X-126293Y64146D01*
X-126233Y64213D01*
X-126195Y64266D01*
X-126180Y64273D01*
Y64281D01*
X-126082Y64439D01*
X-126007Y64612D01*
X-125954Y64777D01*
X-125924Y64935D01*
X-125902Y65078D01*
X-125894Y65138D01*
Y65191D01*
X-125887Y65228D01*
Y65288D01*
X-125894Y65476D01*
X-125924Y65649D01*
X-125969Y65792D01*
X-126014Y65920D01*
X-126067Y66018D01*
X-126105Y66093D01*
X-126135Y66138D01*
X-126150Y66153D01*
X-126263Y66273D01*
X-126390Y66386D01*
X-126526Y66476D01*
X-126661Y66551D01*
X-126781Y66612D01*
X-126841Y66634D01*
X-126887Y66649D01*
X-126924Y66664D01*
X-126954Y66679D01*
X-126969Y66687D01*
X-126977D01*
X-126819Y67363D01*
X-126684Y67318D01*
X-126563Y67273D01*
X-126451Y67213D01*
X-126338Y67160D01*
X-126240Y67100D01*
X-126150Y67033D01*
X-126060Y66972D01*
X-125984Y66912D01*
X-125924Y66852D01*
X-125864Y66800D01*
X-125812Y66747D01*
X-125774Y66709D01*
X-125736Y66672D01*
X-125714Y66642D01*
X-125706Y66627D01*
X-125699Y66619D01*
X-125631Y66514D01*
X-125563Y66409D01*
X-125511Y66303D01*
X-125466Y66191D01*
X-125398Y65965D01*
X-125353Y65762D01*
X-125330Y65664D01*
X-125323Y65582D01*
X-125315Y65499D01*
X-125308Y65431D01*
X-125300Y65379D01*
Y65303D01*
X-125315Y65055D01*
X-125353Y64815D01*
X-125398Y64604D01*
X-125428Y64506D01*
X-125458Y64416D01*
X-125488Y64334D01*
X-125518Y64258D01*
X-125541Y64198D01*
X-125563Y64138D01*
X-125586Y64100D01*
X-125601Y64070D01*
X-125609Y64048D01*
X-125616Y64040D01*
X-125744Y63837D01*
X-125894Y63664D01*
X-126045Y63514D01*
X-126195Y63386D01*
X-126330Y63288D01*
X-126390Y63251D01*
X-126443Y63221D01*
X-126481Y63191D01*
X-126511Y63176D01*
X-126533Y63168D01*
X-126541Y63161D01*
X-126774Y63055D01*
X-127014Y62980D01*
X-127255Y62928D01*
X-127473Y62890D01*
X-127571Y62875D01*
X-127669Y62867D01*
X-127744Y62860D01*
X-127819D01*
X-127872Y62852D01*
X-127917D01*
X-127947D01*
X-127954D01*
X-128225Y62867D01*
X-128488Y62898D01*
X-128721Y62935D01*
X-128834Y62965D01*
X-128932Y62988D01*
X-129022Y63010D01*
X-129104Y63040D01*
X-129180Y63063D01*
X-129240Y63078D01*
X-129285Y63101D01*
X-129323Y63108D01*
X-129345Y63123D01*
X-129353D01*
X-129578Y63236D01*
X-129781Y63364D01*
X-129954Y63499D01*
X-130022Y63567D01*
X-130089Y63627D01*
X-130150Y63687D01*
X-130202Y63747D01*
X-130247Y63800D01*
X-130277Y63845D01*
X-130308Y63875D01*
X-130330Y63905D01*
X-130337Y63920D01*
X-130345Y63927D01*
X-130405Y64033D01*
X-130458Y64138D01*
X-130541Y64364D01*
X-130601Y64589D01*
X-130638Y64807D01*
X-130653Y64912D01*
X-130668Y65003D01*
X-130676Y65085D01*
Y65153D01*
X-130683Y65213D01*
Y65296D01*
X-130676Y65446D01*
X-130661Y65589D01*
X-130646Y65724D01*
X-130616Y65852D01*
X-130578Y65972D01*
X-130541Y66085D01*
X-130503Y66191D01*
X-130458Y66288D01*
X-130420Y66371D01*
X-130383Y66454D01*
X-130345Y66514D01*
X-130308Y66574D01*
X-130277Y66612D01*
X-130262Y66649D01*
X-130247Y66664D01*
X-130240Y66672D01*
X-130150Y66777D01*
X-130059Y66867D01*
X-129954Y66950D01*
X-129849Y67033D01*
X-129638Y67168D01*
X-129428Y67273D01*
X-129330Y67318D01*
X-129240Y67356D01*
X-129157Y67386D01*
X-129089Y67409D01*
X-129029Y67431D01*
X-128984Y67446D01*
X-128954Y67454D01*
X-128947D01*
X-128774Y66762D01*
D02*
G37*
G36*
X-155941Y-4951D02*
X-156543Y-5034D01*
X-156595Y-4951D01*
X-156663Y-4884D01*
X-156723Y-4816D01*
X-156783Y-4763D01*
X-156843Y-4726D01*
X-156888Y-4688D01*
X-156918Y-4673D01*
X-156926Y-4666D01*
X-157024Y-4621D01*
X-157121Y-4583D01*
X-157212Y-4560D01*
X-157302Y-4538D01*
X-157377Y-4530D01*
X-157437Y-4523D01*
X-157580D01*
X-157670Y-4538D01*
X-157828Y-4575D01*
X-157963Y-4628D01*
X-158084Y-4681D01*
X-158174Y-4741D01*
X-158242Y-4794D01*
X-158279Y-4831D01*
X-158294Y-4839D01*
Y-4846D01*
X-158400Y-4974D01*
X-158475Y-5109D01*
X-158527Y-5252D01*
X-158565Y-5395D01*
X-158588Y-5515D01*
X-158595Y-5568D01*
Y-5613D01*
X-158603Y-5651D01*
Y-5681D01*
Y-5696D01*
Y-5703D01*
Y-5809D01*
X-158588Y-5906D01*
X-158550Y-6094D01*
X-158497Y-6252D01*
X-158445Y-6380D01*
X-158385Y-6485D01*
X-158332Y-6568D01*
X-158309Y-6590D01*
X-158294Y-6613D01*
X-158287Y-6621D01*
X-158279Y-6628D01*
X-158219Y-6688D01*
X-158159Y-6741D01*
X-158024Y-6831D01*
X-157896Y-6891D01*
X-157768Y-6929D01*
X-157663Y-6959D01*
X-157572Y-6966D01*
X-157542Y-6974D01*
X-157497D01*
X-157354Y-6966D01*
X-157227Y-6936D01*
X-157114Y-6899D01*
X-157024Y-6854D01*
X-156941Y-6808D01*
X-156881Y-6771D01*
X-156851Y-6741D01*
X-156836Y-6733D01*
X-156746Y-6628D01*
X-156670Y-6515D01*
X-156610Y-6387D01*
X-156565Y-6275D01*
X-156535Y-6162D01*
X-156512Y-6079D01*
X-156505Y-6041D01*
X-156497Y-6019D01*
Y-6004D01*
Y-5996D01*
X-155828Y-6049D01*
X-155843Y-6169D01*
X-155866Y-6282D01*
X-155934Y-6493D01*
X-156016Y-6673D01*
X-156061Y-6756D01*
X-156106Y-6823D01*
X-156144Y-6891D01*
X-156189Y-6951D01*
X-156227Y-6996D01*
X-156264Y-7034D01*
X-156294Y-7064D01*
X-156309Y-7094D01*
X-156325Y-7102D01*
X-156332Y-7109D01*
X-156422Y-7177D01*
X-156512Y-7237D01*
X-156610Y-7290D01*
X-156708Y-7335D01*
X-156896Y-7402D01*
X-157084Y-7448D01*
X-157167Y-7470D01*
X-157249Y-7478D01*
X-157317Y-7485D01*
X-157377Y-7493D01*
X-157430Y-7500D01*
X-157497D01*
X-157655Y-7493D01*
X-157806Y-7470D01*
X-157949Y-7440D01*
X-158076Y-7402D01*
X-158197Y-7350D01*
X-158309Y-7297D01*
X-158415Y-7244D01*
X-158505Y-7184D01*
X-158588Y-7124D01*
X-158663Y-7072D01*
X-158723Y-7011D01*
X-158776Y-6966D01*
X-158813Y-6929D01*
X-158843Y-6899D01*
X-158858Y-6876D01*
X-158866Y-6869D01*
X-158941Y-6771D01*
X-159001Y-6666D01*
X-159061Y-6568D01*
X-159106Y-6463D01*
X-159181Y-6260D01*
X-159227Y-6064D01*
X-159242Y-5981D01*
X-159257Y-5899D01*
X-159264Y-5831D01*
X-159272Y-5771D01*
X-159279Y-5718D01*
Y-5681D01*
Y-5658D01*
Y-5651D01*
X-159272Y-5515D01*
X-159257Y-5387D01*
X-159234Y-5260D01*
X-159204Y-5147D01*
X-159166Y-5042D01*
X-159129Y-4936D01*
X-159084Y-4846D01*
X-159046Y-4763D01*
X-159001Y-4688D01*
X-158956Y-4621D01*
X-158918Y-4568D01*
X-158881Y-4515D01*
X-158851Y-4478D01*
X-158828Y-4455D01*
X-158813Y-4440D01*
X-158806Y-4433D01*
X-158715Y-4350D01*
X-158625Y-4275D01*
X-158527Y-4215D01*
X-158430Y-4162D01*
X-158332Y-4109D01*
X-158234Y-4072D01*
X-158054Y-4019D01*
X-157971Y-3997D01*
X-157896Y-3981D01*
X-157828Y-3974D01*
X-157768Y-3966D01*
X-157723Y-3959D01*
X-157557D01*
X-157467Y-3974D01*
X-157287Y-4012D01*
X-157121Y-4064D01*
X-156971Y-4124D01*
X-156851Y-4184D01*
X-156798Y-4215D01*
X-156753Y-4237D01*
X-156715Y-4260D01*
X-156693Y-4275D01*
X-156678Y-4282D01*
X-156670Y-4290D01*
X-156948Y-2884D01*
X-159031D01*
Y-2275D01*
X-156445D01*
X-155941Y-4951D01*
D02*
G37*
G36*
X-152844Y-2132D02*
X-152603Y-2170D01*
X-152392Y-2215D01*
X-152295Y-2245D01*
X-152204Y-2275D01*
X-152122Y-2305D01*
X-152046Y-2335D01*
X-151986Y-2358D01*
X-151926Y-2380D01*
X-151889Y-2403D01*
X-151859Y-2418D01*
X-151836Y-2425D01*
X-151828Y-2433D01*
X-151625Y-2560D01*
X-151453Y-2711D01*
X-151302Y-2861D01*
X-151174Y-3012D01*
X-151077Y-3147D01*
X-151039Y-3207D01*
X-151009Y-3260D01*
X-150979Y-3297D01*
X-150964Y-3327D01*
X-150956Y-3350D01*
X-150949Y-3358D01*
X-150844Y-3591D01*
X-150768Y-3831D01*
X-150716Y-4072D01*
X-150678Y-4290D01*
X-150663Y-4387D01*
X-150656Y-4485D01*
X-150648Y-4560D01*
Y-4636D01*
X-150641Y-4688D01*
Y-4733D01*
Y-4763D01*
Y-4771D01*
X-150656Y-5042D01*
X-150686Y-5305D01*
X-150723Y-5538D01*
X-150753Y-5651D01*
X-150776Y-5748D01*
X-150799Y-5839D01*
X-150829Y-5921D01*
X-150851Y-5996D01*
X-150866Y-6057D01*
X-150889Y-6102D01*
X-150896Y-6139D01*
X-150911Y-6162D01*
Y-6169D01*
X-151024Y-6395D01*
X-151152Y-6598D01*
X-151287Y-6771D01*
X-151355Y-6838D01*
X-151415Y-6906D01*
X-151475Y-6966D01*
X-151535Y-7019D01*
X-151588Y-7064D01*
X-151633Y-7094D01*
X-151663Y-7124D01*
X-151693Y-7147D01*
X-151708Y-7154D01*
X-151716Y-7162D01*
X-151821Y-7222D01*
X-151926Y-7275D01*
X-152152Y-7357D01*
X-152377Y-7417D01*
X-152595Y-7455D01*
X-152701Y-7470D01*
X-152791Y-7485D01*
X-152873Y-7493D01*
X-152941D01*
X-153001Y-7500D01*
X-153084D01*
X-153234Y-7493D01*
X-153377Y-7478D01*
X-153513Y-7462D01*
X-153640Y-7432D01*
X-153761Y-7395D01*
X-153874Y-7357D01*
X-153979Y-7320D01*
X-154076Y-7275D01*
X-154159Y-7237D01*
X-154242Y-7199D01*
X-154302Y-7162D01*
X-154362Y-7124D01*
X-154400Y-7094D01*
X-154437Y-7079D01*
X-154452Y-7064D01*
X-154460Y-7056D01*
X-154565Y-6966D01*
X-154655Y-6876D01*
X-154738Y-6771D01*
X-154821Y-6666D01*
X-154956Y-6455D01*
X-155061Y-6245D01*
X-155106Y-6147D01*
X-155144Y-6057D01*
X-155174Y-5974D01*
X-155197Y-5906D01*
X-155219Y-5846D01*
X-155234Y-5801D01*
X-155242Y-5771D01*
Y-5763D01*
X-154550Y-5590D01*
X-154520Y-5711D01*
X-154482Y-5824D01*
X-154445Y-5929D01*
X-154407Y-6026D01*
X-154362Y-6117D01*
X-154317Y-6192D01*
X-154264Y-6267D01*
X-154219Y-6335D01*
X-154182Y-6395D01*
X-154137Y-6440D01*
X-154099Y-6485D01*
X-154069Y-6523D01*
X-154039Y-6545D01*
X-154016Y-6568D01*
X-154009Y-6575D01*
X-154001Y-6583D01*
X-153926Y-6643D01*
X-153843Y-6688D01*
X-153678Y-6771D01*
X-153520Y-6831D01*
X-153362Y-6869D01*
X-153227Y-6899D01*
X-153174Y-6906D01*
X-153122D01*
X-153076Y-6914D01*
X-153024D01*
X-152851Y-6906D01*
X-152686Y-6876D01*
X-152535Y-6838D01*
X-152400Y-6793D01*
X-152295Y-6748D01*
X-152249Y-6726D01*
X-152212Y-6711D01*
X-152182Y-6696D01*
X-152159Y-6681D01*
X-152144Y-6673D01*
X-152137D01*
X-151994Y-6568D01*
X-151874Y-6455D01*
X-151768Y-6327D01*
X-151686Y-6207D01*
X-151618Y-6102D01*
X-151573Y-6011D01*
X-151558Y-5974D01*
X-151543Y-5951D01*
X-151535Y-5936D01*
Y-5929D01*
X-151475Y-5733D01*
X-151430Y-5538D01*
X-151392Y-5342D01*
X-151370Y-5162D01*
X-151362Y-5079D01*
X-151355Y-5004D01*
Y-4936D01*
X-151347Y-4884D01*
Y-4839D01*
Y-4801D01*
Y-4778D01*
Y-4771D01*
X-151355Y-4575D01*
X-151370Y-4395D01*
X-151400Y-4230D01*
X-151430Y-4079D01*
X-151453Y-3951D01*
X-151468Y-3899D01*
X-151483Y-3854D01*
X-151490Y-3816D01*
X-151498Y-3794D01*
X-151505Y-3778D01*
Y-3771D01*
X-151580Y-3598D01*
X-151663Y-3440D01*
X-151753Y-3312D01*
X-151851Y-3200D01*
X-151934Y-3109D01*
X-152001Y-3049D01*
X-152054Y-3012D01*
X-152062Y-2997D01*
X-152069D01*
X-152227Y-2899D01*
X-152400Y-2824D01*
X-152565Y-2771D01*
X-152723Y-2741D01*
X-152866Y-2718D01*
X-152926Y-2711D01*
X-152979D01*
X-153016Y-2703D01*
X-153076D01*
X-153265Y-2711D01*
X-153437Y-2741D01*
X-153580Y-2786D01*
X-153708Y-2831D01*
X-153806Y-2884D01*
X-153881Y-2921D01*
X-153926Y-2952D01*
X-153941Y-2966D01*
X-154061Y-3079D01*
X-154174Y-3207D01*
X-154264Y-3342D01*
X-154340Y-3478D01*
X-154400Y-3598D01*
X-154422Y-3658D01*
X-154437Y-3703D01*
X-154452Y-3741D01*
X-154467Y-3771D01*
X-154475Y-3786D01*
Y-3794D01*
X-155152Y-3636D01*
X-155106Y-3500D01*
X-155061Y-3380D01*
X-155001Y-3267D01*
X-154949Y-3155D01*
X-154888Y-3057D01*
X-154821Y-2966D01*
X-154761Y-2876D01*
X-154700Y-2801D01*
X-154640Y-2741D01*
X-154588Y-2681D01*
X-154535Y-2628D01*
X-154497Y-2591D01*
X-154460Y-2553D01*
X-154430Y-2530D01*
X-154415Y-2523D01*
X-154407Y-2515D01*
X-154302Y-2448D01*
X-154197Y-2380D01*
X-154092Y-2327D01*
X-153979Y-2282D01*
X-153753Y-2215D01*
X-153550Y-2170D01*
X-153452Y-2147D01*
X-153370Y-2139D01*
X-153287Y-2132D01*
X-153219Y-2124D01*
X-153167Y-2117D01*
X-153092D01*
X-152844Y-2132D01*
D02*
G37*
G36*
X-162455Y63888D02*
X-162583Y63813D01*
X-162703Y63730D01*
X-162823Y63632D01*
X-162929Y63542D01*
X-163019Y63452D01*
X-163094Y63384D01*
X-163116Y63354D01*
X-163139Y63332D01*
X-163147Y63324D01*
X-163154Y63317D01*
X-163282Y63159D01*
X-163402Y63001D01*
X-163507Y62850D01*
X-163590Y62700D01*
X-163665Y62572D01*
X-163695Y62520D01*
X-163718Y62475D01*
X-163741Y62437D01*
X-163748Y62407D01*
X-163763Y62392D01*
Y62384D01*
X-164380D01*
X-164335Y62497D01*
X-164282Y62610D01*
X-164229Y62723D01*
X-164177Y62828D01*
X-164132Y62918D01*
X-164094Y62993D01*
X-164064Y63038D01*
X-164056Y63046D01*
Y63053D01*
X-163974Y63189D01*
X-163891Y63309D01*
X-163816Y63414D01*
X-163748Y63497D01*
X-163695Y63572D01*
X-163650Y63617D01*
X-163620Y63655D01*
X-163613Y63663D01*
X-167680D01*
Y64302D01*
X-162455D01*
Y63888D01*
D02*
G37*
G36*
X-165861Y60617D02*
X-165981Y60587D01*
X-166094Y60550D01*
X-166199Y60512D01*
X-166297Y60475D01*
X-166387Y60430D01*
X-166462Y60384D01*
X-166537Y60332D01*
X-166605Y60287D01*
X-166665Y60249D01*
X-166710Y60204D01*
X-166755Y60166D01*
X-166793Y60136D01*
X-166816Y60106D01*
X-166838Y60084D01*
X-166846Y60076D01*
X-166853Y60069D01*
X-166913Y59994D01*
X-166958Y59911D01*
X-167041Y59745D01*
X-167101Y59587D01*
X-167139Y59430D01*
X-167169Y59294D01*
X-167176Y59242D01*
Y59189D01*
X-167184Y59144D01*
Y59091D01*
X-167176Y58918D01*
X-167146Y58753D01*
X-167109Y58603D01*
X-167064Y58467D01*
X-167019Y58362D01*
X-166996Y58317D01*
X-166981Y58279D01*
X-166966Y58249D01*
X-166951Y58227D01*
X-166943Y58212D01*
Y58204D01*
X-166838Y58061D01*
X-166725Y57941D01*
X-166597Y57836D01*
X-166477Y57753D01*
X-166372Y57685D01*
X-166282Y57640D01*
X-166244Y57625D01*
X-166222Y57610D01*
X-166207Y57603D01*
X-166199D01*
X-166004Y57543D01*
X-165808Y57497D01*
X-165613Y57460D01*
X-165432Y57437D01*
X-165350Y57430D01*
X-165274Y57422D01*
X-165207D01*
X-165154Y57415D01*
X-165109D01*
X-165071D01*
X-165049D01*
X-165041D01*
X-164846Y57422D01*
X-164665Y57437D01*
X-164500Y57467D01*
X-164349Y57497D01*
X-164222Y57520D01*
X-164169Y57535D01*
X-164124Y57550D01*
X-164086Y57558D01*
X-164064Y57565D01*
X-164049Y57573D01*
X-164041D01*
X-163868Y57648D01*
X-163710Y57730D01*
X-163583Y57821D01*
X-163470Y57918D01*
X-163380Y58001D01*
X-163319Y58069D01*
X-163282Y58121D01*
X-163267Y58129D01*
Y58136D01*
X-163169Y58294D01*
X-163094Y58467D01*
X-163041Y58633D01*
X-163011Y58790D01*
X-162989Y58933D01*
X-162981Y58994D01*
Y59046D01*
X-162974Y59084D01*
Y59144D01*
X-162981Y59332D01*
X-163011Y59505D01*
X-163056Y59648D01*
X-163102Y59775D01*
X-163154Y59873D01*
X-163192Y59948D01*
X-163222Y59994D01*
X-163237Y60009D01*
X-163350Y60129D01*
X-163477Y60242D01*
X-163613Y60332D01*
X-163748Y60407D01*
X-163868Y60467D01*
X-163929Y60490D01*
X-163974Y60505D01*
X-164011Y60520D01*
X-164041Y60535D01*
X-164056Y60542D01*
X-164064D01*
X-163906Y61219D01*
X-163771Y61174D01*
X-163650Y61129D01*
X-163538Y61069D01*
X-163425Y61016D01*
X-163327Y60956D01*
X-163237Y60888D01*
X-163147Y60828D01*
X-163071Y60768D01*
X-163011Y60708D01*
X-162951Y60655D01*
X-162899Y60602D01*
X-162861Y60565D01*
X-162823Y60527D01*
X-162801Y60497D01*
X-162793Y60482D01*
X-162786Y60475D01*
X-162718Y60369D01*
X-162650Y60264D01*
X-162598Y60159D01*
X-162553Y60046D01*
X-162485Y59821D01*
X-162440Y59618D01*
X-162417Y59520D01*
X-162410Y59437D01*
X-162402Y59354D01*
X-162395Y59287D01*
X-162387Y59234D01*
Y59159D01*
X-162402Y58911D01*
X-162440Y58670D01*
X-162485Y58460D01*
X-162515Y58362D01*
X-162545Y58272D01*
X-162575Y58189D01*
X-162605Y58114D01*
X-162628Y58054D01*
X-162650Y57994D01*
X-162673Y57956D01*
X-162688Y57926D01*
X-162696Y57903D01*
X-162703Y57896D01*
X-162831Y57693D01*
X-162981Y57520D01*
X-163132Y57370D01*
X-163282Y57242D01*
X-163417Y57144D01*
X-163477Y57106D01*
X-163530Y57076D01*
X-163568Y57046D01*
X-163598Y57031D01*
X-163620Y57024D01*
X-163628Y57016D01*
X-163861Y56911D01*
X-164101Y56836D01*
X-164342Y56783D01*
X-164560Y56746D01*
X-164658Y56730D01*
X-164755Y56723D01*
X-164831Y56715D01*
X-164906D01*
X-164958Y56708D01*
X-165004D01*
X-165034D01*
X-165041D01*
X-165312Y56723D01*
X-165575Y56753D01*
X-165808Y56791D01*
X-165921Y56821D01*
X-166019Y56843D01*
X-166109Y56866D01*
X-166192Y56896D01*
X-166267Y56919D01*
X-166327Y56933D01*
X-166372Y56956D01*
X-166410Y56964D01*
X-166432Y56979D01*
X-166440D01*
X-166665Y57091D01*
X-166868Y57219D01*
X-167041Y57354D01*
X-167109Y57422D01*
X-167176Y57482D01*
X-167237Y57543D01*
X-167289Y57603D01*
X-167334Y57655D01*
X-167364Y57700D01*
X-167395Y57730D01*
X-167417Y57761D01*
X-167425Y57776D01*
X-167432Y57783D01*
X-167492Y57888D01*
X-167545Y57994D01*
X-167628Y58219D01*
X-167688Y58445D01*
X-167725Y58663D01*
X-167740Y58768D01*
X-167755Y58858D01*
X-167763Y58941D01*
Y59009D01*
X-167770Y59069D01*
Y59151D01*
X-167763Y59302D01*
X-167748Y59445D01*
X-167733Y59580D01*
X-167703Y59708D01*
X-167665Y59828D01*
X-167628Y59941D01*
X-167590Y60046D01*
X-167545Y60144D01*
X-167507Y60226D01*
X-167470Y60309D01*
X-167432Y60369D01*
X-167395Y60430D01*
X-167364Y60467D01*
X-167349Y60505D01*
X-167334Y60520D01*
X-167327Y60527D01*
X-167237Y60633D01*
X-167146Y60723D01*
X-167041Y60806D01*
X-166936Y60888D01*
X-166725Y61024D01*
X-166515Y61129D01*
X-166417Y61174D01*
X-166327Y61212D01*
X-166244Y61241D01*
X-166176Y61264D01*
X-166116Y61287D01*
X-166071Y61302D01*
X-166041Y61309D01*
X-166034D01*
X-165861Y60617D01*
D02*
G37*
%LPC*%
G36*
X-224467Y65872D02*
X-226106D01*
X-226309Y65864D01*
X-226482Y65834D01*
X-226632Y65796D01*
X-226745Y65751D01*
X-226843Y65706D01*
X-226903Y65669D01*
X-226941Y65638D01*
X-226956Y65631D01*
X-227046Y65533D01*
X-227114Y65436D01*
X-227159Y65330D01*
X-227196Y65240D01*
X-227211Y65150D01*
X-227219Y65082D01*
X-227226Y65037D01*
Y65030D01*
Y65022D01*
X-227219Y64932D01*
X-227204Y64842D01*
X-227181Y64766D01*
X-227159Y64699D01*
X-227129Y64639D01*
X-227106Y64594D01*
X-227091Y64563D01*
X-227083Y64556D01*
X-227031Y64481D01*
X-226963Y64413D01*
X-226896Y64360D01*
X-226828Y64315D01*
X-226768Y64285D01*
X-226723Y64263D01*
X-226693Y64248D01*
X-226677Y64240D01*
X-226572Y64210D01*
X-226452Y64187D01*
X-226332Y64172D01*
X-226211Y64165D01*
X-226106Y64157D01*
X-226016Y64150D01*
X-224467D01*
Y65872D01*
D02*
G37*
G36*
X-209018Y-1371D02*
X-210567D01*
Y-3092D01*
X-208928D01*
X-208725Y-3085D01*
X-208552Y-3055D01*
X-208401Y-3017D01*
X-208289Y-2972D01*
X-208191Y-2927D01*
X-208131Y-2889D01*
X-208093Y-2859D01*
X-208078Y-2852D01*
X-207988Y-2754D01*
X-207920Y-2656D01*
X-207875Y-2551D01*
X-207838Y-2461D01*
X-207822Y-2371D01*
X-207815Y-2303D01*
X-207807Y-2258D01*
Y-2250D01*
Y-2243D01*
X-207815Y-2153D01*
X-207830Y-2062D01*
X-207852Y-1987D01*
X-207875Y-1920D01*
X-207905Y-1859D01*
X-207928Y-1814D01*
X-207943Y-1784D01*
X-207950Y-1777D01*
X-208003Y-1701D01*
X-208071Y-1634D01*
X-208138Y-1581D01*
X-208206Y-1536D01*
X-208266Y-1506D01*
X-208311Y-1484D01*
X-208341Y-1469D01*
X-208356Y-1461D01*
X-208461Y-1431D01*
X-208582Y-1408D01*
X-208702Y-1393D01*
X-208822Y-1386D01*
X-208928Y-1378D01*
X-209018Y-1371D01*
D02*
G37*
G36*
X-228429Y16919D02*
X-229662D01*
X-229827Y16904D01*
X-229955Y16897D01*
X-230068Y16882D01*
X-230150Y16867D01*
X-230203Y16859D01*
X-230241Y16844D01*
X-230248D01*
X-230331Y16814D01*
X-230406Y16769D01*
X-230466Y16724D01*
X-230519Y16679D01*
X-230556Y16641D01*
X-230586Y16603D01*
X-230602Y16581D01*
X-230609Y16573D01*
X-230654Y16498D01*
X-230684Y16423D01*
X-230707Y16348D01*
X-230722Y16273D01*
X-230729Y16213D01*
X-230737Y16167D01*
Y16137D01*
Y16122D01*
X-230729Y16025D01*
X-230714Y15934D01*
X-230692Y15859D01*
X-230669Y15799D01*
X-230647Y15746D01*
X-230624Y15701D01*
X-230609Y15679D01*
X-230602Y15671D01*
X-230549Y15611D01*
X-230481Y15551D01*
X-230413Y15506D01*
X-230353Y15476D01*
X-230293Y15446D01*
X-230248Y15423D01*
X-230218Y15416D01*
X-230203Y15408D01*
X-230120Y15393D01*
X-230015Y15378D01*
X-229910Y15370D01*
X-229804Y15363D01*
X-229707Y15355D01*
X-228429D01*
Y16919D01*
D02*
G37*
G36*
Y14739D02*
X-229797D01*
X-229955Y14724D01*
X-230083Y14709D01*
X-230188Y14694D01*
X-230271Y14679D01*
X-230338Y14664D01*
X-230368Y14656D01*
X-230383Y14649D01*
X-230481Y14611D01*
X-230564Y14566D01*
X-230639Y14513D01*
X-230699Y14461D01*
X-230744Y14416D01*
X-230774Y14378D01*
X-230797Y14348D01*
X-230805Y14340D01*
X-230857Y14258D01*
X-230895Y14175D01*
X-230925Y14092D01*
X-230940Y14017D01*
X-230955Y13949D01*
X-230962Y13889D01*
Y13859D01*
Y13844D01*
X-230955Y13754D01*
X-230947Y13664D01*
X-230932Y13589D01*
X-230910Y13528D01*
X-230887Y13476D01*
X-230872Y13431D01*
X-230865Y13408D01*
X-230857Y13401D01*
X-230812Y13333D01*
X-230774Y13273D01*
X-230722Y13228D01*
X-230684Y13182D01*
X-230647Y13153D01*
X-230616Y13130D01*
X-230594Y13115D01*
X-230586Y13107D01*
X-230459Y13047D01*
X-230331Y13002D01*
X-230278Y12987D01*
X-230233Y12980D01*
X-230203Y12972D01*
X-230196D01*
X-230135Y12965D01*
X-230068Y12957D01*
X-229910Y12950D01*
X-228429D01*
Y14739D01*
D02*
G37*
G36*
X-257819Y14067D02*
X-257857D01*
X-257887D01*
X-257894D01*
X-258105Y14059D01*
X-258300Y14045D01*
X-258473Y14022D01*
X-258624Y13999D01*
X-258684Y13984D01*
X-258736Y13969D01*
X-258789Y13954D01*
X-258827Y13947D01*
X-258857Y13939D01*
X-258879Y13932D01*
X-258894Y13924D01*
X-258902D01*
X-259044Y13872D01*
X-259172Y13811D01*
X-259285Y13744D01*
X-259383Y13684D01*
X-259458Y13631D01*
X-259511Y13586D01*
X-259541Y13556D01*
X-259556Y13548D01*
X-259616Y13473D01*
X-259669Y13398D01*
X-259714Y13323D01*
X-259759Y13247D01*
X-259789Y13180D01*
X-259811Y13127D01*
X-259819Y13090D01*
X-259826Y13075D01*
X-259856Y12962D01*
X-259879Y12826D01*
X-259894Y12691D01*
X-259902Y12563D01*
X-259909Y12451D01*
X-259917Y12398D01*
Y11165D01*
X-255947D01*
Y12368D01*
X-255954Y12466D01*
Y12563D01*
X-255962Y12654D01*
X-255984Y12804D01*
X-256000Y12924D01*
X-256022Y13022D01*
X-256045Y13090D01*
X-256052Y13127D01*
X-256060Y13142D01*
X-256127Y13278D01*
X-256210Y13405D01*
X-256308Y13518D01*
X-256406Y13616D01*
X-256496Y13691D01*
X-256571Y13751D01*
X-256601Y13766D01*
X-256624Y13781D01*
X-256639Y13796D01*
X-256646D01*
X-256729Y13842D01*
X-256827Y13887D01*
X-257022Y13954D01*
X-257233Y13999D01*
X-257436Y14037D01*
X-257526Y14045D01*
X-257616Y14052D01*
X-257691Y14059D01*
X-257759D01*
X-257819Y14067D01*
D02*
G37*
G36*
X-48725Y98331D02*
X-51056D01*
Y96692D01*
X-48725Y98331D01*
D02*
G37*
%LPD*%
D10*
X-237306Y22436D02*
X-219806D01*
X-237533Y38056D02*
X-220033D01*
X-251420Y30819D02*
Y48319D01*
X-264421Y30819D02*
Y56448D01*
D11*
X-25088Y31061D02*
G03*
X-25088Y31061I-1250J0D01*
G01*
D13*
X107374Y117386D02*
Y99610D01*
X119225Y117386D02*
Y99610D01*
X107374Y108921D02*
X119225D01*
X124135Y114000D02*
X125828Y114846D01*
X128367Y117386D01*
Y99610D01*
X147328Y114846D02*
X146482Y116539D01*
X143942Y117386D01*
X142249D01*
X139710Y116539D01*
X138017Y114000D01*
X137170Y109768D01*
Y105535D01*
X138017Y102149D01*
X139710Y100456D01*
X142249Y99610D01*
X143096D01*
X145635Y100456D01*
X147328Y102149D01*
X148175Y104689D01*
Y105535D01*
X147328Y108075D01*
X145635Y109768D01*
X143096Y110614D01*
X142249D01*
X139710Y109768D01*
X138017Y108075D01*
X137170Y105535D01*
X152069Y117386D02*
Y99610D01*
Y117386D02*
X159687D01*
X162227Y116539D01*
X163073Y115693D01*
X163920Y114000D01*
Y112307D01*
X163073Y110614D01*
X162227Y109768D01*
X159687Y108921D01*
X152069D01*
X157994D02*
X163920Y99610D01*
X179749Y117386D02*
X171284Y99610D01*
X167898Y117386D02*
X179749D01*
X183727Y111461D02*
X193039Y99610D01*
Y111461D02*
X183727Y99610D01*
X-249936Y-2490D02*
X-258207D01*
X-260965Y-1570D01*
X-261884Y-651D01*
X-262803Y1187D01*
Y3944D01*
X-261884Y5782D01*
X-260965Y6701D01*
X-258207Y7620D01*
X-249936D01*
Y-11680D01*
X-278151Y7620D02*
X-268960D01*
X-268041Y-651D01*
X-268960Y268D01*
X-271717Y1187D01*
X-274474D01*
X-277232Y268D01*
X-279070Y-1570D01*
X-279989Y-4327D01*
Y-6166D01*
X-279070Y-8923D01*
X-277232Y-10761D01*
X-274474Y-11680D01*
X-271717D01*
X-268960Y-10761D01*
X-268041Y-9842D01*
X-267122Y-8004D01*
X-107696Y-119330D02*
X-115967D01*
X-118724Y-118410D01*
X-119643Y-117491D01*
X-120563Y-115653D01*
Y-112896D01*
X-119643Y-111058D01*
X-118724Y-110139D01*
X-115967Y-109220D01*
X-107696D01*
Y-128520D01*
X-126720Y-109220D02*
X-136830D01*
X-131315Y-116572D01*
X-134073D01*
X-135911Y-117491D01*
X-136830Y-118410D01*
X-137749Y-121167D01*
Y-123006D01*
X-136830Y-125763D01*
X-134992Y-127601D01*
X-132234Y-128520D01*
X-129477D01*
X-126720Y-127601D01*
X-125801Y-126682D01*
X-124882Y-124844D01*
X-56896Y94031D02*
X-65167D01*
X-67924Y94950D01*
X-68843Y95869D01*
X-69763Y97707D01*
Y100464D01*
X-68843Y102302D01*
X-67924Y103221D01*
X-65167Y104140D01*
X-56896D01*
Y84840D01*
X-75001Y99545D02*
Y100464D01*
X-75920Y102302D01*
X-76839Y103221D01*
X-78677Y104140D01*
X-82353D01*
X-84192Y103221D01*
X-85111Y102302D01*
X-86030Y100464D01*
Y98626D01*
X-85111Y96788D01*
X-83272Y94031D01*
X-74082Y84840D01*
X-86949D01*
X-95863Y104140D02*
Y93111D01*
X-91268Y101383D02*
X-100458Y95869D01*
Y101383D02*
X-91268Y95869D01*
X-180340Y114351D02*
X-188611D01*
X-191369Y115270D01*
X-192288Y116189D01*
X-193207Y118027D01*
Y120784D01*
X-192288Y122622D01*
X-191369Y123541D01*
X-188611Y124460D01*
X-180340D01*
Y105160D01*
X-197526Y120784D02*
X-199364Y121703D01*
X-202121Y124460D01*
Y105160D01*
X-173499Y-108744D02*
X-181771D01*
X-184528Y-107825D01*
X-185447Y-106906D01*
X-186366Y-105068D01*
Y-102311D01*
X-185447Y-100472D01*
X-184528Y-99553D01*
X-181771Y-98634D01*
X-173499D01*
Y-117934D01*
X-199876Y-98634D02*
X-190685Y-111501D01*
X-204471D01*
X-199876Y-98634D02*
Y-117934D01*
D14*
X-15466Y-14923D02*
X-15079Y-13762D01*
Y-16084D01*
X-15466Y-14923D01*
X-16239Y-15697D01*
X-17400Y-16084D01*
X-18174D01*
X-19335Y-15697D01*
X-20109Y-14923D01*
X-20496Y-14149D01*
X-20883Y-12988D01*
Y-11054D01*
X-20496Y-9893D01*
X-20109Y-9119D01*
X-19335Y-8345D01*
X-18174Y-7958D01*
X-17400D01*
X-16239Y-8345D01*
X-15466Y-9119D01*
X-18174Y-16084D02*
X-18948Y-15697D01*
X-19722Y-14923D01*
X-20109Y-14149D01*
X-20496Y-12988D01*
Y-11054D01*
X-20109Y-9893D01*
X-19722Y-9119D01*
X-18948Y-8345D01*
X-18174Y-7958D01*
X-15466Y-11054D02*
Y-7958D01*
X-15079Y-11054D02*
Y-7958D01*
X-16626Y-11054D02*
X-13918D01*
X-11712Y-16084D02*
Y-7958D01*
X-11325Y-16084D02*
X-6681Y-8732D01*
X-11325Y-15310D02*
X-6681Y-7958D01*
Y-16084D02*
Y-7958D01*
X-12873Y-16084D02*
X-11325D01*
X-7842D02*
X-5520D01*
X-12873Y-7958D02*
X-10551D01*
X-3354Y-16084D02*
Y-7958D01*
X-2966Y-16084D02*
Y-7958D01*
X-4514Y-16084D02*
X-645D01*
X516Y-15697D01*
X1290Y-14923D01*
X1677Y-14149D01*
X2064Y-12988D01*
Y-11054D01*
X1677Y-9893D01*
X1290Y-9119D01*
X516Y-8345D01*
X-645Y-7958D01*
X-4514D01*
X-645Y-16084D02*
X129Y-15697D01*
X903Y-14923D01*
X1290Y-14149D01*
X1677Y-12988D01*
Y-11054D01*
X1290Y-9893D01*
X903Y-9119D01*
X129Y-8345D01*
X-645Y-7958D01*
X269664Y-83203D02*
X269277Y-84364D01*
Y-82042D01*
X269664Y-83203D01*
X270438Y-82429D01*
X271599Y-82042D01*
X272373D01*
X273534Y-82429D01*
X274308Y-83203D01*
X274695Y-83977D01*
X275082Y-85138D01*
Y-87072D01*
X274695Y-88233D01*
X274308Y-89007D01*
X273534Y-89781D01*
X272373Y-90168D01*
X271599D01*
X270438Y-89781D01*
X269664Y-89007D01*
X272373Y-82042D02*
X273147Y-82429D01*
X273921Y-83203D01*
X274308Y-83977D01*
X274695Y-85138D01*
Y-87072D01*
X274308Y-88233D01*
X273921Y-89007D01*
X273147Y-89781D01*
X272373Y-90168D01*
X269664Y-87072D02*
Y-90168D01*
X269277Y-87072D02*
Y-90168D01*
X270825Y-87072D02*
X268117D01*
X265911Y-82042D02*
Y-90168D01*
X265524Y-82042D02*
X260880Y-89394D01*
X265524Y-82816D02*
X260880Y-90168D01*
Y-82042D02*
Y-90168D01*
X267072Y-82042D02*
X265524D01*
X262041D02*
X259720D01*
X267072Y-90168D02*
X264750D01*
X257553Y-82042D02*
Y-90168D01*
X257166Y-82042D02*
Y-90168D01*
X258713Y-82042D02*
X254844D01*
X253683Y-82429D01*
X252909Y-83203D01*
X252522Y-83977D01*
X252135Y-85138D01*
Y-87072D01*
X252522Y-88233D01*
X252909Y-89007D01*
X253683Y-89781D01*
X254844Y-90168D01*
X258713D01*
X254844Y-82042D02*
X254070Y-82429D01*
X253296Y-83203D01*
X252909Y-83977D01*
X252522Y-85138D01*
Y-87072D01*
X252909Y-88233D01*
X253296Y-89007D01*
X254070Y-89781D01*
X254844Y-90168D01*
X269664Y89517D02*
X269277Y88356D01*
Y90678D01*
X269664Y89517D01*
X270438Y90291D01*
X271599Y90678D01*
X272373D01*
X273534Y90291D01*
X274308Y89517D01*
X274695Y88743D01*
X275082Y87582D01*
Y85647D01*
X274695Y84487D01*
X274308Y83713D01*
X273534Y82939D01*
X272373Y82552D01*
X271599D01*
X270438Y82939D01*
X269664Y83713D01*
X272373Y90678D02*
X273147Y90291D01*
X273921Y89517D01*
X274308Y88743D01*
X274695Y87582D01*
Y85647D01*
X274308Y84487D01*
X273921Y83713D01*
X273147Y82939D01*
X272373Y82552D01*
X269664Y85647D02*
Y82552D01*
X269277Y85647D02*
Y82552D01*
X270825Y85647D02*
X268117D01*
X265911Y90678D02*
Y82552D01*
X265524Y90678D02*
X260880Y83326D01*
X265524Y89904D02*
X260880Y82552D01*
Y90678D02*
Y82552D01*
X267072Y90678D02*
X265524D01*
X262041D02*
X259720D01*
X267072Y82552D02*
X264750D01*
X257553Y90678D02*
Y82552D01*
X257166Y90678D02*
Y82552D01*
X258713Y90678D02*
X254844D01*
X253683Y90291D01*
X252909Y89517D01*
X252522Y88743D01*
X252135Y87582D01*
Y85647D01*
X252522Y84487D01*
X252909Y83713D01*
X253683Y82939D01*
X254844Y82552D01*
X258713D01*
X254844Y90678D02*
X254070Y90291D01*
X253296Y89517D01*
X252909Y88743D01*
X252522Y87582D01*
Y85647D01*
X252909Y84487D01*
X253296Y83713D01*
X254070Y82939D01*
X254844Y82552D01*
X144864Y-145397D02*
X145251Y-144236D01*
Y-146558D01*
X144864Y-145397D01*
X144090Y-146171D01*
X142929Y-146558D01*
X142155D01*
X140994Y-146171D01*
X140220Y-145397D01*
X139833Y-144623D01*
X139446Y-143462D01*
Y-141528D01*
X139833Y-140367D01*
X140220Y-139593D01*
X140994Y-138819D01*
X142155Y-138432D01*
X142929D01*
X144090Y-138819D01*
X144864Y-139593D01*
X142155Y-146558D02*
X141381Y-146171D01*
X140607Y-145397D01*
X140220Y-144623D01*
X139833Y-143462D01*
Y-141528D01*
X140220Y-140367D01*
X140607Y-139593D01*
X141381Y-138819D01*
X142155Y-138432D01*
X144864Y-141528D02*
Y-138432D01*
X145251Y-141528D02*
Y-138432D01*
X143703Y-141528D02*
X146411D01*
X148617Y-146558D02*
Y-138432D01*
X149004Y-146558D02*
X153648Y-139206D01*
X149004Y-145784D02*
X153648Y-138432D01*
Y-146558D02*
Y-138432D01*
X147456Y-146558D02*
X149004D01*
X152487D02*
X154809D01*
X147456Y-138432D02*
X149778D01*
X156975Y-146558D02*
Y-138432D01*
X157362Y-146558D02*
Y-138432D01*
X155815Y-146558D02*
X159684D01*
X160845Y-146171D01*
X161619Y-145397D01*
X162006Y-144623D01*
X162393Y-143462D01*
Y-141528D01*
X162006Y-140367D01*
X161619Y-139593D01*
X160845Y-138819D01*
X159684Y-138432D01*
X155815D01*
X159684Y-146558D02*
X160458Y-146171D01*
X161232Y-145397D01*
X161619Y-144623D01*
X162006Y-143462D01*
Y-141528D01*
X161619Y-140367D01*
X161232Y-139593D01*
X160458Y-138819D01*
X159684Y-138432D01*
X-7537Y-64117D02*
X-7150Y-62956D01*
Y-65278D01*
X-7537Y-64117D01*
X-8310Y-64891D01*
X-9471Y-65278D01*
X-10245D01*
X-11406Y-64891D01*
X-12180Y-64117D01*
X-12567Y-63343D01*
X-12954Y-62182D01*
Y-60248D01*
X-12567Y-59087D01*
X-12180Y-58313D01*
X-11406Y-57539D01*
X-10245Y-57152D01*
X-9471D01*
X-8310Y-57539D01*
X-7537Y-58313D01*
X-10245Y-65278D02*
X-11019Y-64891D01*
X-11793Y-64117D01*
X-12180Y-63343D01*
X-12567Y-62182D01*
Y-60248D01*
X-12180Y-59087D01*
X-11793Y-58313D01*
X-11019Y-57539D01*
X-10245Y-57152D01*
X-7537Y-60248D02*
Y-57152D01*
X-7150Y-60248D02*
Y-57152D01*
X-8697Y-60248D02*
X-5989D01*
X-3783Y-65278D02*
Y-57152D01*
X-3396Y-65278D02*
X1248Y-57926D01*
X-3396Y-64504D02*
X1248Y-57152D01*
Y-65278D02*
Y-57152D01*
X-4944Y-65278D02*
X-3396D01*
X87D02*
X2409D01*
X-4944Y-57152D02*
X-2622D01*
X4575Y-65278D02*
Y-57152D01*
X4962Y-65278D02*
Y-57152D01*
X3415Y-65278D02*
X7284D01*
X8445Y-64891D01*
X9219Y-64117D01*
X9606Y-63343D01*
X9993Y-62182D01*
Y-60248D01*
X9606Y-59087D01*
X9219Y-58313D01*
X8445Y-57539D01*
X7284Y-57152D01*
X3415D01*
X7284Y-65278D02*
X8058Y-64891D01*
X8832Y-64117D01*
X9219Y-63343D01*
X9606Y-62182D01*
Y-60248D01*
X9219Y-59087D01*
X8832Y-58313D01*
X8058Y-57539D01*
X7284Y-57152D01*
X-154857Y144163D02*
X-154469Y145324D01*
Y143002D01*
X-154857Y144163D01*
X-155630Y143389D01*
X-156791Y143002D01*
X-157565D01*
X-158726Y143389D01*
X-159500Y144163D01*
X-159887Y144937D01*
X-160274Y146098D01*
Y148033D01*
X-159887Y149193D01*
X-159500Y149967D01*
X-158726Y150741D01*
X-157565Y151128D01*
X-156791D01*
X-155630Y150741D01*
X-154857Y149967D01*
X-157565Y143002D02*
X-158339Y143389D01*
X-159113Y144163D01*
X-159500Y144937D01*
X-159887Y146098D01*
Y148033D01*
X-159500Y149193D01*
X-159113Y149967D01*
X-158339Y150741D01*
X-157565Y151128D01*
X-154857Y148033D02*
Y151128D01*
X-154469Y148033D02*
Y151128D01*
X-156017Y148033D02*
X-153309D01*
X-151103Y143002D02*
Y151128D01*
X-150716Y143002D02*
X-146072Y150354D01*
X-150716Y143776D02*
X-146072Y151128D01*
Y143002D02*
Y151128D01*
X-152264Y143002D02*
X-150716D01*
X-147233D02*
X-144911D01*
X-152264Y151128D02*
X-149942D01*
X-142745Y143002D02*
Y151128D01*
X-142358Y143002D02*
Y151128D01*
X-143905Y143002D02*
X-140036D01*
X-138875Y143389D01*
X-138101Y144163D01*
X-137714Y144937D01*
X-137327Y146098D01*
Y148033D01*
X-137714Y149193D01*
X-138101Y149967D01*
X-138875Y150741D01*
X-140036Y151128D01*
X-143905D01*
X-140036Y143002D02*
X-139262Y143389D01*
X-138488Y144163D01*
X-138101Y144937D01*
X-137714Y146098D01*
Y148033D01*
X-138101Y149193D01*
X-138488Y149967D01*
X-139262Y150741D01*
X-140036Y151128D01*
X-287637Y64941D02*
X-286476Y64553D01*
X-288798D01*
X-287637Y64941D01*
X-288411Y65714D01*
X-288798Y66875D01*
Y67649D01*
X-288411Y68810D01*
X-287637Y69584D01*
X-286863Y69971D01*
X-285702Y70358D01*
X-283768D01*
X-282607Y69971D01*
X-281833Y69584D01*
X-281059Y68810D01*
X-280672Y67649D01*
Y66875D01*
X-281059Y65714D01*
X-281833Y64941D01*
X-288798Y67649D02*
X-288411Y68423D01*
X-287637Y69197D01*
X-286863Y69584D01*
X-285702Y69971D01*
X-283768D01*
X-282607Y69584D01*
X-281833Y69197D01*
X-281059Y68423D01*
X-280672Y67649D01*
X-283768Y64941D02*
X-280672D01*
X-283768Y64553D02*
X-280672D01*
X-283768Y66101D02*
Y63393D01*
X-288798Y61187D02*
X-280672D01*
X-288798Y60800D02*
X-281446Y56156D01*
X-288024Y60800D02*
X-280672Y56156D01*
X-288798D02*
X-280672D01*
X-288798Y62348D02*
Y60800D01*
Y57317D02*
Y54995D01*
X-280672Y62348D02*
Y60026D01*
X-288798Y52828D02*
X-280672D01*
X-288798Y52442D02*
X-280672D01*
X-288798Y53989D02*
Y50120D01*
X-288411Y48959D01*
X-287637Y48185D01*
X-286863Y47798D01*
X-285702Y47411D01*
X-283768D01*
X-282607Y47798D01*
X-281833Y48185D01*
X-281059Y48959D01*
X-280672Y50120D01*
Y53989D01*
X-288798Y50120D02*
X-288411Y49346D01*
X-287637Y48572D01*
X-286863Y48185D01*
X-285702Y47798D01*
X-283768D01*
X-282607Y48185D01*
X-281833Y48572D01*
X-281059Y49346D01*
X-280672Y50120D01*
X-258655Y-78123D02*
X-259042Y-79284D01*
Y-76962D01*
X-258655Y-78123D01*
X-257882Y-77349D01*
X-256721Y-76962D01*
X-255947D01*
X-254786Y-77349D01*
X-254012Y-78123D01*
X-253625Y-78897D01*
X-253238Y-80058D01*
Y-81993D01*
X-253625Y-83153D01*
X-254012Y-83927D01*
X-254786Y-84701D01*
X-255947Y-85088D01*
X-256721D01*
X-257882Y-84701D01*
X-258655Y-83927D01*
X-255947Y-76962D02*
X-255173Y-77349D01*
X-254399Y-78123D01*
X-254012Y-78897D01*
X-253625Y-80058D01*
Y-81993D01*
X-254012Y-83153D01*
X-254399Y-83927D01*
X-255173Y-84701D01*
X-255947Y-85088D01*
X-258655Y-81993D02*
Y-85088D01*
X-259042Y-81993D02*
Y-85088D01*
X-257495Y-81993D02*
X-260203D01*
X-262409Y-76962D02*
Y-85088D01*
X-262796Y-76962D02*
X-267440Y-84314D01*
X-262796Y-77736D02*
X-267440Y-85088D01*
Y-76962D02*
Y-85088D01*
X-261248Y-76962D02*
X-262796D01*
X-266279D02*
X-268601D01*
X-261248Y-85088D02*
X-263570D01*
X-270767Y-76962D02*
Y-85088D01*
X-271154Y-76962D02*
Y-85088D01*
X-269607Y-76962D02*
X-273476D01*
X-274637Y-77349D01*
X-275411Y-78123D01*
X-275798Y-78897D01*
X-276185Y-80058D01*
Y-81993D01*
X-275798Y-83153D01*
X-275411Y-83927D01*
X-274637Y-84701D01*
X-273476Y-85088D01*
X-269607D01*
X-273476Y-76962D02*
X-274250Y-77349D01*
X-275024Y-78123D01*
X-275411Y-78897D01*
X-275798Y-80058D01*
Y-81993D01*
X-275411Y-83153D01*
X-275024Y-83927D01*
X-274250Y-84701D01*
X-273476Y-85088D01*
X-159937Y-150477D02*
X-159550Y-149316D01*
Y-151638D01*
X-159937Y-150477D01*
X-160710Y-151251D01*
X-161871Y-151638D01*
X-162645D01*
X-163806Y-151251D01*
X-164580Y-150477D01*
X-164967Y-149703D01*
X-165354Y-148542D01*
Y-146608D01*
X-164967Y-145447D01*
X-164580Y-144673D01*
X-163806Y-143899D01*
X-162645Y-143512D01*
X-161871D01*
X-160710Y-143899D01*
X-159937Y-144673D01*
X-162645Y-151638D02*
X-163419Y-151251D01*
X-164193Y-150477D01*
X-164580Y-149703D01*
X-164967Y-148542D01*
Y-146608D01*
X-164580Y-145447D01*
X-164193Y-144673D01*
X-163419Y-143899D01*
X-162645Y-143512D01*
X-159937Y-146608D02*
Y-143512D01*
X-159550Y-146608D02*
Y-143512D01*
X-161097Y-146608D02*
X-158389D01*
X-156183Y-151638D02*
Y-143512D01*
X-155796Y-151638D02*
X-151152Y-144286D01*
X-155796Y-150864D02*
X-151152Y-143512D01*
Y-151638D02*
Y-143512D01*
X-157344Y-151638D02*
X-155796D01*
X-152313D02*
X-149992D01*
X-157344Y-143512D02*
X-155022D01*
X-147824Y-151638D02*
Y-143512D01*
X-147438Y-151638D02*
Y-143512D01*
X-148985Y-151638D02*
X-145116D01*
X-143955Y-151251D01*
X-143181Y-150477D01*
X-142794Y-149703D01*
X-142407Y-148542D01*
Y-146608D01*
X-142794Y-145447D01*
X-143181Y-144673D01*
X-143955Y-143899D01*
X-145116Y-143512D01*
X-148985D01*
X-145116Y-151638D02*
X-144342Y-151251D01*
X-143568Y-150477D01*
X-143181Y-149703D01*
X-142794Y-148542D01*
Y-146608D01*
X-143181Y-145447D01*
X-143568Y-144673D01*
X-144342Y-143899D01*
X-145116Y-143512D01*
D40*
X-60090Y63351D02*
Y77351D01*
X-41090D01*
Y43351D02*
Y77351D01*
X-60090Y43351D02*
X-41090D01*
X-60090D02*
Y63351D01*
X-117222Y24726D02*
Y38727D01*
X-136221Y24726D02*
X-117222D01*
X-136221D02*
Y58727D01*
X-117222D01*
Y38727D02*
Y58727D01*
D56*
X-158515Y-34202D02*
Y-13702D01*
X-147515Y-34202D02*
Y-13452D01*
X-158460Y32380D02*
Y53130D01*
X-169460Y32380D02*
Y52880D01*
X-187956Y31739D02*
Y52489D01*
X-198956Y31739D02*
Y52239D01*
D57*
X-155015Y-22952D02*
X-151015D01*
X-155015Y-24952D02*
X-151015D01*
X-153015Y-25952D02*
Y-24952D01*
Y-22952D02*
Y-21952D01*
X-163960Y43630D02*
Y44630D01*
Y40630D02*
Y41630D01*
X-165960D02*
X-161960D01*
X-165960Y43630D02*
X-161960D01*
X-193456Y42989D02*
Y43989D01*
Y39989D02*
Y40989D01*
X-195456D02*
X-191456D01*
X-195456Y42989D02*
X-191456D01*
M02*
