G04*
G04 #@! TF.GenerationSoftware,Altium Limited,Altium Designer,25.8.1 (18)*
G04*
G04 Layer_Color=8388736*
%FSLAX44Y44*%
%MOMM*%
G71*
G04*
G04 #@! TF.SameCoordinates,BCE08161-644A-4D5C-BD65-52524292B4E2*
G04*
G04*
G04 #@! TF.FilePolarity,Negative*
G04*
G01*
G75*
%ADD20R,0.8000X0.8000*%
%ADD25R,1.7032X0.8032*%
%ADD26R,1.7032X1.0032*%
%ADD27R,1.0032X1.0032*%
G04:AMPARAMS|DCode=28|XSize=0.7532mm|YSize=0.7032mm|CornerRadius=0.1641mm|HoleSize=0mm|Usage=FLASHONLY|Rotation=180.000|XOffset=0mm|YOffset=0mm|HoleType=Round|Shape=RoundedRectangle|*
%AMROUNDEDRECTD28*
21,1,0.7532,0.3750,0,0,180.0*
21,1,0.4250,0.7032,0,0,180.0*
1,1,0.3282,-0.2125,0.1875*
1,1,0.3282,0.2125,0.1875*
1,1,0.3282,0.2125,-0.1875*
1,1,0.3282,-0.2125,-0.1875*
%
%ADD28ROUNDEDRECTD28*%
%ADD29R,1.1532X1.0032*%
G04:AMPARAMS|DCode=30|XSize=1.2032mm|YSize=1.2032mm|CornerRadius=0.6016mm|HoleSize=0mm|Usage=FLASHONLY|Rotation=210.000|XOffset=0mm|YOffset=0mm|HoleType=Round|Shape=RoundedRectangle|*
%AMROUNDEDRECTD30*
21,1,1.2032,0.0000,0,0,210.0*
21,1,0.0000,1.2032,0,0,210.0*
1,1,1.2032,0.0000,0.0000*
1,1,1.2032,0.0000,0.0000*
1,1,1.2032,0.0000,0.0000*
1,1,1.2032,0.0000,0.0000*
%
%ADD30ROUNDEDRECTD30*%
G04:AMPARAMS|DCode=31|XSize=1.2032mm|YSize=1.2032mm|CornerRadius=0.6016mm|HoleSize=0mm|Usage=FLASHONLY|Rotation=90.000|XOffset=0mm|YOffset=0mm|HoleType=Round|Shape=RoundedRectangle|*
%AMROUNDEDRECTD31*
21,1,1.2032,0.0000,0,0,90.0*
21,1,0.0000,1.2032,0,0,90.0*
1,1,1.2032,0.0000,0.0000*
1,1,1.2032,0.0000,0.0000*
1,1,1.2032,0.0000,0.0000*
1,1,1.2032,0.0000,0.0000*
%
%ADD31ROUNDEDRECTD31*%
G04:AMPARAMS|DCode=32|XSize=1.2032mm|YSize=1.2032mm|CornerRadius=0.6016mm|HoleSize=0mm|Usage=FLASHONLY|Rotation=150.000|XOffset=0mm|YOffset=0mm|HoleType=Round|Shape=RoundedRectangle|*
%AMROUNDEDRECTD32*
21,1,1.2032,0.0000,0,0,150.0*
21,1,0.0000,1.2032,0,0,150.0*
1,1,1.2032,0.0000,0.0000*
1,1,1.2032,0.0000,0.0000*
1,1,1.2032,0.0000,0.0000*
1,1,1.2032,0.0000,0.0000*
%
%ADD32ROUNDEDRECTD32*%
G04:AMPARAMS|DCode=33|XSize=0.7532mm|YSize=0.7032mm|CornerRadius=0.1641mm|HoleSize=0mm|Usage=FLASHONLY|Rotation=90.000|XOffset=0mm|YOffset=0mm|HoleType=Round|Shape=RoundedRectangle|*
%AMROUNDEDRECTD33*
21,1,0.7532,0.3750,0,0,90.0*
21,1,0.4250,0.7032,0,0,90.0*
1,1,0.3282,0.1875,0.2125*
1,1,0.3282,0.1875,-0.2125*
1,1,0.3282,-0.1875,-0.2125*
1,1,0.3282,-0.1875,0.2125*
%
%ADD33ROUNDEDRECTD33*%
%ADD34C,1.5700*%
%ADD35R,1.5700X1.5700*%
%ADD36C,0.7620*%
G36*
X153602Y191945D02*
X157319Y190313D01*
X160621Y187953D01*
X163369Y184964D01*
X165443Y181474D01*
X166757Y177633D01*
X167254Y173604D01*
X166912Y169559D01*
X165747Y165671D01*
X164778Y163887D01*
Y163887D01*
X147599Y173778D01*
X130421Y163887D01*
X129452Y165671D01*
X128287Y169559D01*
X127945Y173604D01*
X128442Y177633D01*
X129755Y181474D01*
X131830Y184964D01*
X134577Y187953D01*
X137880Y190313D01*
X141597Y191945D01*
X145570Y192779D01*
X149629D01*
X153602Y191945D01*
D02*
G37*
G36*
X-146397D02*
X-142680Y190313D01*
X-139378Y187953D01*
X-136631Y184964D01*
X-134556Y181474D01*
X-133243Y177633D01*
X-132746Y173604D01*
X-133087Y169559D01*
X-134252Y165671D01*
X-135222Y163887D01*
Y163887D01*
X-152400Y173778D01*
X-136089Y164387D01*
X-136883Y162923D01*
X-138966Y160324D01*
X-141478Y158138D01*
X-144339Y156435D01*
X-147458Y155268D01*
X-150735Y154675D01*
X-154065D01*
X-157342Y155268D01*
X-160461Y156435D01*
X-163322Y158138D01*
X-165834Y160324D01*
X-167917Y162923D01*
X-168711Y164387D01*
X-169578Y163887D01*
X-170548Y165671D01*
X-171713Y169559D01*
X-172054Y173604D01*
X-171558Y177633D01*
X-170244Y181474D01*
X-168169Y184964D01*
X-165422Y187953D01*
X-162120Y190313D01*
X-158403Y191945D01*
X-154430Y192779D01*
X-150370D01*
X-146397Y191945D01*
D02*
G37*
G36*
X163670Y163521D02*
X162877Y162057D01*
X160794Y159459D01*
X158282Y157273D01*
X155421Y155569D01*
X152302Y154402D01*
X149025Y153809D01*
X145695D01*
X142418Y154402D01*
X139299Y155569D01*
X136438Y157273D01*
X133925Y159459D01*
X131843Y162057D01*
X131049Y163521D01*
X131049Y163521D01*
X147360Y172912D01*
X163670Y163521D01*
D02*
G37*
G36*
X-92289Y139060D02*
X-92277Y139080D01*
X-77174Y130346D01*
X-62065Y121637D01*
X-62076Y121617D01*
X-62023Y121586D01*
X-62856Y120043D01*
X-65104Y117351D01*
X-67840Y115159D01*
X-70958Y113554D01*
X-74333Y112600D01*
X-77829Y112336D01*
X-81309Y112771D01*
X-84633Y113888D01*
X-86165Y114774D01*
X-87704Y115661D01*
X-90333Y117981D01*
X-92450Y120777D01*
X-93969Y123937D01*
X-94830Y127337D01*
X-94999Y130839D01*
X-94469Y134305D01*
X-93261Y137598D01*
X-92343Y139091D01*
X-92289Y139060D01*
D02*
G37*
G36*
X-211602Y137587D02*
X-210390Y134297D01*
X-209856Y130831D01*
X-210020Y127328D01*
X-210877Y123928D01*
X-212392Y120765D01*
X-214505Y117967D01*
X-217131Y115644D01*
X-220167Y113888D01*
X-223491Y112771D01*
X-226971Y112336D01*
X-230467Y112600D01*
X-233842Y113554D01*
X-236960Y115159D01*
X-239697Y117351D01*
X-241944Y120043D01*
X-242778Y121586D01*
X-242778D01*
X-212523Y139080D01*
X-211602Y137587D01*
D02*
G37*
G36*
X-285740Y96820D02*
D01*
X-285740D01*
X-285740D01*
D02*
G37*
G36*
X-284825Y95325D02*
X-283556Y92057D01*
X-282889Y88616D01*
X-282844Y85111D01*
X-283423Y81654D01*
X-284608Y78355D01*
X-286361Y75319D01*
X-288626Y72643D01*
X-291330Y70413D01*
X-294388Y68700D01*
X-297702Y67557D01*
X-301166Y67023D01*
X-302918Y67067D01*
X-302917Y68069D01*
X-302920Y68069D01*
Y68069D01*
X-302897Y86890D01*
X-286609Y96320D01*
X-286608Y96318D01*
X-285740Y96820D01*
X-284825Y95325D01*
D02*
G37*
G36*
X281810Y96269D02*
X281842Y96320D01*
X281842D01*
X298130Y86890D01*
X298152Y68069D01*
X298099Y68068D01*
Y67106D01*
X296351Y67059D01*
X292893Y67589D01*
X289584Y68726D01*
X286530Y70432D01*
X283828Y72655D01*
X281565Y75323D01*
X279812Y78351D01*
X278626Y81642D01*
X278044Y85092D01*
X278084Y88590D01*
X278747Y92025D01*
X280009Y95288D01*
X280921Y96781D01*
Y96781D01*
X281810Y96269D01*
D02*
G37*
G36*
X-2400Y87176D02*
X14278Y96781D01*
X15189Y95288D01*
X16452Y92025D01*
X17114Y88590D01*
X17155Y85092D01*
X16573Y81642D01*
X15387Y78351D01*
X13634Y75323D01*
X11371Y72655D01*
X8669Y70432D01*
X5615Y68726D01*
X2306Y67589D01*
X-1152Y67059D01*
X-2400Y67093D01*
X-3649Y67059D01*
X-7107Y67589D01*
X-10416Y68726D01*
X-13470Y70432D01*
X-16171Y72655D01*
X-18435Y75323D01*
X-20187Y78351D01*
X-21374Y81642D01*
X-21956Y85092D01*
X-21915Y88590D01*
X-21253Y92025D01*
X-19990Y95288D01*
X-19079Y96781D01*
Y96781D01*
X-2400Y87176D01*
D02*
G37*
G36*
X-297687Y16945D02*
X-294415Y15672D01*
X-291462Y13774D01*
X-288944Y11327D01*
X-286963Y8429D01*
X-285596Y5196D01*
X-284899Y1755D01*
Y-1755D01*
X-285596Y-5196D01*
X-286963Y-8429D01*
X-288944Y-11327D01*
X-291462Y-13774D01*
X-294415Y-15672D01*
X-297687Y-16945D01*
X-297715Y-16950D01*
X-297726Y-16954D01*
X-301181Y-17554D01*
X-302934Y-17505D01*
X-302934D01*
X-302957Y17443D01*
X-302900Y17444D01*
Y17493D01*
X-301146Y17544D01*
X-297687Y16945D01*
D02*
G37*
G36*
X2306Y-67589D02*
X5615Y-68726D01*
X8669Y-70432D01*
X11371Y-72655D01*
X13634Y-75323D01*
X15387Y-78351D01*
X16573Y-81642D01*
X17155Y-85092D01*
X17114Y-88590D01*
X16452Y-92025D01*
X15189Y-95288D01*
X14278Y-96781D01*
X-2400Y-87176D01*
X-19079Y-96781D01*
X-19990Y-95288D01*
X-21253Y-92025D01*
X-21915Y-88590D01*
X-21956Y-85092D01*
X-21374Y-81642D01*
X-20187Y-78351D01*
X-18435Y-75323D01*
X-16171Y-72655D01*
X-13470Y-70432D01*
X-10416Y-68726D01*
X-7107Y-67589D01*
X-3649Y-67059D01*
X-2400Y-67093D01*
X-1152Y-67059D01*
X2306Y-67589D01*
D02*
G37*
G36*
X298099Y-67106D02*
Y-68068D01*
X298152Y-68069D01*
X298152Y-68069D01*
X298130Y-86890D01*
X281842Y-96320D01*
X281810Y-96269D01*
X280921Y-96781D01*
X280009Y-95288D01*
X278747Y-92025D01*
X278084Y-88590D01*
X278044Y-85092D01*
X278626Y-81642D01*
X279812Y-78351D01*
X281565Y-75323D01*
X283828Y-72655D01*
X286530Y-70432D01*
X289584Y-68726D01*
X292893Y-67589D01*
X296351Y-67059D01*
X298099Y-67106D01*
D02*
G37*
G36*
X14278Y-96781D02*
X14278D01*
D01*
X14278D01*
D02*
G37*
G36*
X-302917Y-68069D02*
X-301255Y-68025D01*
X-297964Y-68529D01*
X-294814Y-69612D01*
X-291908Y-71238D01*
X-289338Y-73355D01*
X-287186Y-75897D01*
X-285521Y-78781D01*
X-284396Y-81915D01*
X-283847Y-85200D01*
X-283892Y-88529D01*
X-284529Y-91798D01*
X-285738Y-94901D01*
X-286608Y-96318D01*
X-285740Y-96820D01*
X-286800Y-98551D01*
X-289585Y-101504D01*
X-292917Y-103823D01*
X-296655Y-105407D01*
X-300638Y-106190D01*
X-304697Y-106138D01*
X-308659Y-105253D01*
X-312354Y-103574D01*
X-315626Y-101171D01*
X-318335Y-98147D01*
X-320365Y-94632D01*
X-321629Y-90774D01*
X-322074Y-86740D01*
X-321681Y-82699D01*
X-320466Y-78826D01*
X-318482Y-75285D01*
X-315812Y-72226D01*
X-312571Y-69782D01*
X-308898Y-68055D01*
X-304947Y-67120D01*
X-302918Y-67067D01*
X-302918Y-67067D01*
X-302917Y-68069D01*
D02*
G37*
G36*
X-74333Y-112600D02*
X-70958Y-113554D01*
X-67840Y-115159D01*
X-65104Y-117351D01*
X-62856Y-120043D01*
X-62023Y-121586D01*
D01*
Y-121586D01*
X-77150Y-130333D01*
X-92277Y-139080D01*
X-93198Y-137587D01*
X-94410Y-134297D01*
X-94944Y-130831D01*
X-94780Y-127329D01*
X-93923Y-123928D01*
X-92408Y-120766D01*
X-90295Y-117967D01*
X-87669Y-115644D01*
X-84633Y-113888D01*
X-81309Y-112771D01*
X-77829Y-112336D01*
X-74333Y-112600D01*
D02*
G37*
G36*
X-223491Y-112771D02*
X-220167Y-113888D01*
X-218636Y-114774D01*
X-217097Y-115661D01*
X-214467Y-117981D01*
X-212350Y-120777D01*
X-210831Y-123937D01*
X-209970Y-127337D01*
X-209801Y-130839D01*
X-210331Y-134305D01*
X-211539Y-137598D01*
X-212457Y-139091D01*
D01*
X-212457Y-139091D01*
X-212457Y-139091D01*
X-212511Y-139060D01*
X-212523Y-139080D01*
D01*
X-212523Y-139080D01*
X-212523Y-139080D01*
X-227626Y-130346D01*
X-242735Y-121637D01*
X-242724Y-121617D01*
X-242778Y-121586D01*
X-241944Y-120043D01*
X-239697Y-117351D01*
X-236960Y-115159D01*
X-233842Y-113554D01*
X-230467Y-112600D01*
X-226971Y-112336D01*
X-223491Y-112771D01*
D02*
G37*
G36*
X152541Y-155268D02*
X155660Y-156435D01*
X158522Y-158139D01*
X161034Y-160324D01*
X163116Y-162923D01*
X163910Y-164387D01*
X147599Y-173778D01*
X131289Y-164387D01*
X132082Y-162923D01*
X134165Y-160324D01*
X136677Y-158139D01*
X139538Y-156435D01*
X142657Y-155268D01*
X145934Y-154675D01*
X149264D01*
X152541Y-155268D01*
D02*
G37*
G36*
X-147458D02*
X-144339Y-156435D01*
X-141478Y-158139D01*
X-138966Y-160324D01*
X-136883Y-162923D01*
X-136089Y-164387D01*
X-152400Y-173778D01*
X-168711Y-164387D01*
X-167917Y-162923D01*
X-165834Y-160324D01*
X-163322Y-158139D01*
X-160461Y-156435D01*
X-157342Y-155268D01*
X-154065Y-154675D01*
X-150735D01*
X-147458Y-155268D01*
D02*
G37*
D20*
X128906Y-120936D02*
D03*
Y-135936D02*
D03*
D25*
X272444Y14004D02*
D03*
X244444Y19004D02*
D03*
X272444Y24004D02*
D03*
X244444Y-996D02*
D03*
X272444Y-15996D02*
D03*
X244444Y-10996D02*
D03*
X272444Y-5996D02*
D03*
Y4004D02*
D03*
Y-25996D02*
D03*
X244444Y9004D02*
D03*
Y29004D02*
D03*
Y-20996D02*
D03*
D26*
Y-35996D02*
D03*
X272444D02*
D03*
X244444Y39004D02*
D03*
X272444D02*
D03*
D27*
X166954Y44699D02*
D03*
X157454Y24499D02*
D03*
X176454D02*
D03*
D28*
X137914Y68238D02*
D03*
Y59238D02*
D03*
D29*
X59454Y-91466D02*
D03*
Y-103966D02*
D03*
D30*
X-223901Y-123901D02*
D03*
X-80899Y123901D02*
D03*
X290700Y82601D02*
D03*
X-295468Y-82601D02*
D03*
D31*
X-223901Y123901D02*
D03*
X-80899Y-123901D02*
D03*
X-1679Y77521D02*
D03*
X147360Y164334D02*
D03*
X147599Y-165199D02*
D03*
X-152400Y165199D02*
D03*
X-1679Y-77521D02*
D03*
X-152400Y-165199D02*
D03*
D32*
X-295501Y0D02*
D03*
X290700Y-82601D02*
D03*
X-295468Y82601D02*
D03*
D33*
X213992Y50162D02*
D03*
X204992D02*
D03*
D34*
X-108837Y-53317D02*
D03*
Y-27917D02*
D03*
D35*
Y-2517D02*
D03*
D36*
X-82746Y23479D02*
D03*
X50483Y37195D02*
D03*
X44768Y50549D02*
D03*
X116175Y-25707D02*
D03*
X60947Y30328D02*
D03*
X83470Y-30128D02*
D03*
X55869Y-57231D02*
D03*
X-76962Y15180D02*
D03*
X-257660Y-8911D02*
D03*
X244830Y-65804D02*
D03*
X33370Y80040D02*
D03*
X201456Y-10682D02*
D03*
X-62522Y-25677D02*
D03*
X-44516D02*
D03*
X80241Y54502D02*
D03*
X97977Y54421D02*
D03*
X-249419Y70628D02*
D03*
X-88799Y81222D02*
D03*
X-169298Y99854D02*
D03*
X-199291Y-74291D02*
D03*
X-252252Y-94873D02*
D03*
X-174615Y-99975D02*
D03*
X126954Y42591D02*
D03*
X180530Y90450D02*
D03*
X283129Y-50436D02*
D03*
X-146602Y-103612D02*
D03*
X129850Y-85476D02*
D03*
X-276018Y33956D02*
D03*
X-36857Y-95063D02*
D03*
M02*
