M48
;Layer_Color=9474304
;FILE_FORMAT=4:4
METRIC,LZ
;TYPE=PLATED
T01F00S00C0.3048
T02F00S00C1.0200
%
T01
X0024483Y-00065804
X00283129Y-00050436
X00201456Y-00010682
X00116175Y-00025707
X0008347Y-00030128
X00055869Y-00057231
X00060947Y00030328
X00050483Y00037195
X00044768Y00050549
X00080241Y00054502
X00097977Y00054421
X00126954Y00042591
X0012985Y-00085476
X-00036857Y-00095063
X-00044516Y-00025677
X-00062522
X-00076962Y0001518
X-00082746Y00023479
X-00146602Y-00103612
X-00174615Y-00099975
X-00199291Y-00074291
X-00252252Y-00094873
X-0025766Y-00008911
X-00276018Y00033956
X-00249419Y00070628
X-00169298Y00099854
X-00088799Y00081222
X0003337Y0008004
X0018053Y0009045
T02
X-00108837Y-00053317
Y-00027917
Y-00002517
M30
